SplineFontDB: 3.2
FontName: Africa
FullName: Africa
FamilyName: Africa
Weight: Book
Copyright: 
Version: 001.000
ItalicAngle: 0
UnderlinePosition: -100
UnderlineWidth: 50
Ascent: 800
Descent: 200
InvalidEm: 0
sfntRevision: 0x00010000
LayerCount: 2
Layer: 0 1 "Back" 1
Layer: 1 1 "Fore" 0
HasVMetrics: 1
XUID: [1021 630 180614390 4565568]
StyleMap: 0x0000
FSType: 0
OS2Version: 4
OS2_WeightWidthSlopeOnly: 0
OS2_UseTypoMetrics: 1
CreationTime: 1750358571
ModificationTime: 1750458501
PfmFamily: 17
TTFWeight: 400
TTFWidth: 5
LineGap: 90
VLineGap: 0
Panose: 2 0 5 9 0 0 0 0 0 0
OS2TypoAscent: 800
OS2TypoAOffset: 0
OS2TypoDescent: 1200
OS2TypoDOffset: 0
OS2TypoLinegap: 90
OS2WinAscent: 804
OS2WinAOffset: 0
OS2WinDescent: 1000
OS2WinDOffset: 0
HheadAscent: 804
HheadAOffset: 0
HheadDescent: -206
HheadDOffset: 0
OS2SubXSize: 650
OS2SubYSize: 700
OS2SubXOff: 0
OS2SubYOff: 140
OS2SupXSize: 650
OS2SupYSize: 700
OS2SupXOff: 0
OS2SupYOff: 480
OS2StrikeYSize: 49
OS2StrikeYPos: 258
OS2CapHeight: 799
OS2XHeight: 551
OS2Vendor: 'PfEd'
OS2CodePages: 00000001.00000000
OS2UnicodeRanges: 00000001.00000000.00000000.00000000
MarkAttachClasses: 1
DEI: 91125
ShortTable: cvt  2
  33
  633
EndShort
ShortTable: maxp 16
  1
  0
  55
  532
  40
  0
  0
  2
  0
  1
  1
  0
  64
  46
  0
  0
EndShort
LangName: 1033 "" "" "Regular" "FontForge 2.0 : Africa : 20-6-2025" "" "Version 001.000"
GaspTable: 1 65535 2 0
Encoding: UnicodeBmp
UnicodeInterp: none
NameList: AGL For New Fonts
DisplaySize: -48
AntiAlias: 1
FitToEm: 0
WinInfo: 64 16 4
BeginPrivate: 0
EndPrivate
BeginChars: 65539 55

StartChar: .notdef
Encoding: 65536 -1 0
Width: 415
GlyphClass: 1
Flags: W
LayerCount: 2
Fore
SplineSet
75 0 m 1,0,-1
 75 666 l 1,1,-1
 340 666 l 1,2,-1
 340 0 l 1,3,-1
 75 0 l 1,0,-1
108 33 m 1,4,-1
 307 33 l 1,5,-1
 307 633 l 1,6,-1
 108 633 l 1,7,-1
 108 33 l 1,4,-1
EndSplineSet
Validated: 1
EndChar

StartChar: A
Encoding: 65 65 3
Width: 941
GlyphClass: 1
Flags: W
LayerCount: 2
Fore
SplineSet
148 -163 m 128,-1,1
 58 -127 58 -127 46 -114 c 128,-1,2
 34 -101 34 -101 152 200 c 0,3,4
 164 228 164 228 183 277 c 0,5,6
 275 508 275 508 278 532 c 0,7,8
 279 546 279 546 268 548 c 0,9,10
 267 549 267 549 265 549 c 0,11,12
 260 550 260 550 257 550 c 0,13,14
 247 553 247 553 242.5 557.5 c 128,-1,15
 238 562 238 562 234.5 575 c 128,-1,16
 231 588 231 588 231.5 612 c 128,-1,17
 232 636 232 636 232 679 c 2,18,-1
 235 800 l 1,19,-1
 439 800 l 1,20,-1
 644 800 l 1,21,-1
 670 710 l 2,22,23
 696 620 696 620 771.5 339.5 c 128,-1,24
 847 59 847 59 872.5 -25.5 c 128,-1,25
 898 -110 898 -110 898 -120.5 c 128,-1,26
 898 -131 898 -131 789.5 -160 c 128,-1,27
 681 -189 681 -189 665 -183 c 0,28,29
 658 -180 658 -180 650.5 -167 c 128,-1,30
 643 -154 643 -154 639 -138 c 0,31,32
 630 -101 630 -101 616 -63 c 2,33,-1
 601 -25 l 1,34,-1
 486 -35 l 2,35,36
 371 -44 371 -44 348 -56 c 0,37,38
 339 -61 339 -61 323.5 -84 c 128,-1,39
 308 -107 308 -107 296.5 -134.5 c 128,-1,40
 285 -162 285 -162 272 -181 c 128,-1,41
 259 -200 259 -200 253 -200 c 0,42,0
 238 -199 238 -199 148 -163 c 128,-1,1
279 -31 m 0,43,44
 276 -28 276 -28 268 -42 c 0,45,46
 243 -84 243 -84 233 -127 c 0,47,48
 232 -135 232 -135 232 -139 c 0,49,50
 232 -146 232 -146 242 -129 c 0,51,52
 250 -116 250 -116 259 -95 c 0,53,54
 285 -37 285 -37 279 -31 c 0,43,44
700 -75 m 0,55,56
 679 -15 679 -15 674 -20 c 0,57,58
 668 -26 668 -26 686 -80 c 128,-1,59
 704 -134 704 -134 712 -134 c 0,60,61
 714 -133 714 -133 713.5 -125.5 c 128,-1,62
 713 -118 713 -118 709.5 -104.5 c 128,-1,63
 706 -91 706 -91 700 -75 c 0,55,56
203 -1 m 0,64,65
 202 15 202 15 188 -16 c 0,66,67
 170 -52 170 -52 159 -94 c 0,68,69
 157 -104 157 -104 159 -104 c 0,70,71
 163 -104 163 -104 177 -74 c 0,72,73
 204 -21 204 -21 203 -1 c 0,64,65
765 -61 m 0,74,75
 749 -16 749 -16 742 -19 c 0,76,77
 735 -25 735 -25 751 -74 c 0,78,79
 767 -118 767 -118 774 -116 c 0,80,81
 781 -109 781 -109 765 -61 c 0,74,75
832 -41 m 0,82,83
 824 -19 824 -19 816 -3 c 128,-1,84
 808 13 808 13 803 13 c 0,85,86
 801 12 801 12 801 4.5 c 128,-1,87
 801 -3 801 -3 805 -17 c 128,-1,88
 809 -31 809 -31 815 -47 c 0,89,90
 835 -102 835 -102 842.5 -99 c 128,-1,91
 850 -96 850 -96 832 -41 c 0,82,83
145 50 m 0,92,93
 143 52 143 52 136 41 c 128,-1,94
 129 30 129 30 120.5 12 c 128,-1,95
 112 -6 112 -6 103.5 -25.5 c 128,-1,96
 95 -45 95 -45 90 -62 c 128,-1,97
 85 -79 85 -79 85 -85 c 256,98,99
 85 -91 85 -91 95 -76 c 0,100,101
 105 -59 105 -59 119 -29 c 0,102,103
 151 44 151 44 145 50 c 0,92,93
372 73 m 0,104,105
 408 144 408 144 422 144 c 0,106,107
 430 144 430 144 438 119 c 0,108,109
 445 97 445 97 478.5 55 c 128,-1,110
 512 13 512 13 523 13 c 0,111,112
 533 13 533 13 562 83 c 2,113,-1
 592 154 l 1,114,-1
 661 89 l 2,115,116
 679 72 679 72 692.5 60.5 c 128,-1,117
 706 49 706 49 715.5 43.5 c 128,-1,118
 725 38 725 38 730.5 37.5 c 128,-1,119
 736 37 736 37 739 42 c 0,120,121
 760 80 760 80 777 163 c 0,122,123
 784 197 784 197 779 193 c 0,124,125
 767 186 767 186 750 119.5 c 128,-1,126
 733 53 733 53 725 53 c 128,-1,127
 717 53 717 53 658 113 c 128,-1,128
 599 173 599 173 590 173 c 128,-1,129
 581 173 581 173 551 99 c 0,130,131
 538 66 538 66 529 51.5 c 128,-1,132
 520 37 520 37 509 39 c 128,-1,133
 498 41 498 41 486.5 59 c 128,-1,134
 475 77 475 77 456 116 c 2,135,-1
 427 177 l 1,136,-1
 396 139 l 2,137,138
 365 100 365 100 350 63 c 0,139,140
 344 48 344 48 336 37 c 128,-1,141
 328 26 328 26 323 26 c 128,-1,142
 318 26 318 26 296.5 49.5 c 128,-1,143
 275 73 275 73 249 106 c 0,144,145
 183 191 183 191 179 185 c 0,146,147
 177 183 177 183 199 150 c 0,148,149
 224 110 224 110 271 54.5 c 128,-1,150
 318 -1 318 -1 326 -1 c 0,151,152
 335 -1 335 -1 372 73 c 0,104,105
324 85.5 m 128,-1,154
 324 91 324 91 311 100 c 0,155,156
 306 103 306 103 302 101 c 128,-1,157
 298 99 298 99 298 93.5 c 128,-1,158
 298 88 298 88 302 84 c 128,-1,159
 306 80 306 80 311 80 c 0,160,153
 324 80 324 80 324 85.5 c 128,-1,154
725 93 m 0,161,162
 725 98 725 98 720.5 102 c 128,-1,163
 716 106 716 106 710.5 106 c 128,-1,164
 705 106 705 106 703 102 c 128,-1,165
 701 98 701 98 705 93 c 0,166,167
 713 80 713 80 719 80 c 128,-1,168
 725 80 725 80 725 93 c 0,161,162
284 173 m 0,169,170
 284 186 284 186 278.5 186 c 128,-1,171
 273 186 273 186 264 173 c 0,172,173
 261 167 261 167 262.5 163.5 c 128,-1,174
 264 160 264 160 270 160 c 128,-1,175
 276 160 276 160 280 163.5 c 128,-1,176
 284 167 284 167 284 173 c 0,169,170
351 172.5 m 128,-1,178
 351 178 351 178 347 182 c 128,-1,179
 343 186 343 186 337.5 186 c 128,-1,180
 332 186 332 186 328 182 c 128,-1,181
 324 178 324 178 324 172.5 c 128,-1,182
 324 167 324 167 328 163.5 c 128,-1,183
 332 160 332 160 337.5 160 c 128,-1,184
 343 160 343 160 347 163.5 c 128,-1,177
 351 167 351 167 351 172.5 c 128,-1,178
380 235 m 0,185,186
 404 257 404 257 403.5 293.5 c 128,-1,187
 403 330 403 330 379 352 c 0,188,189
 348 380 348 380 312 363 c 0,190,191
 282 349 282 349 287 322 c 0,192,193
 289 309 289 309 300 298 c 0,194,195
 318 281 318 281 341.5 284.5 c 128,-1,196
 365 288 365 288 365 308 c 0,197,198
 365 323 365 323 344 306 c 0,199,200
 329 293 329 293 315.5 296.5 c 128,-1,201
 302 300 302 300 301.5 313 c 128,-1,202
 301 326 301 326 314 342 c 0,203,204
 343 371 343 371 370 344 c 0,205,206
 395 319 395 319 387 282 c 0,207,208
 383 266 383 266 371 252 c 0,209,210
 349 229 349 229 319 228.5 c 128,-1,211
 289 228 289 228 266.5 249 c 128,-1,212
 244 270 244 270 244 302 c 0,213,214
 244 330 244 330 270.5 358 c 128,-1,215
 297 386 297 386 324 386 c 0,216,217
 335 386 335 386 343 390.5 c 128,-1,218
 351 395 351 395 351 401 c 0,219,220
 351 418 351 418 312 402 c 0,221,222
 284 390 284 390 261 369 c 0,223,224
 233 343 233 343 231.5 305.5 c 128,-1,225
 230 268 230 268 253.5 240.5 c 128,-1,226
 277 213 277 213 314 213 c 0,227,228
 331 213 331 213 350.5 219.5 c 128,-1,229
 370 226 370 226 380 235 c 0,185,186
529 223 m 0,230,231
 535 232 535 232 520.5 300.5 c 128,-1,232
 506 369 506 369 497 378 c 0,233,234
 495 380 495 380 489 370 c 0,235,236
 478 348 478 348 462 299 c 2,237,-1
 434 213 l 1,238,-1
 478 213 l 2,239,240
 523 213 523 213 529 223 c 0,230,231
735 263 m 0,241,242
 751 284 751 284 751 319.5 c 128,-1,243
 751 355 751 355 735 370 c 0,244,245
 722 384 722 384 702 386 c 128,-1,246
 682 388 682 388 666 381 c 128,-1,247
 650 374 650 374 641.5 359.5 c 128,-1,248
 633 345 633 345 639 328 c 0,249,250
 646 310 646 310 670.5 307 c 128,-1,251
 695 304 695 304 705 320 c 0,252,253
 709 327 709 327 702 327 c 0,254,255
 698 327 698 327 693 325 c 0,256,257
 672 317 672 317 659.5 326.5 c 128,-1,258
 647 336 647 336 654 354 c 0,259,260
 661 374 661 374 696 370 c 0,261,262
 719 368 719 368 725 359 c 128,-1,263
 731 350 731 350 731 320 c 0,264,265
 731 280 731 280 706.5 260 c 128,-1,266
 682 240 682 240 650.5 251 c 128,-1,267
 619 262 619 262 602 300 c 0,268,269
 587 332 587 332 609 365.5 c 128,-1,270
 631 399 631 399 675 411 c 0,271,272
 707 421 707 421 708 422 c 1,273,-1
 695 425 l 2,274,275
 691 425 691 425 681 425 c 0,276,277
 645 426 645 426 611.5 393.5 c 128,-1,278
 578 361 578 361 578 326 c 0,279,280
 578 288 578 288 613 256 c 128,-1,281
 648 224 648 224 682 232 c 0,282,283
 697 236 697 236 712.5 245 c 128,-1,284
 728 254 728 254 735 263 c 0,241,242
555 476 m 0,285,286
 485 481 485 481 415 476 c 0,287,288
 380 474 380 474 414 472 c 0,289,290
 437 471 437 471 485 471 c 0,291,292
 578 471 578 471 571 474 c 0,293,294
 568 475 568 475 555 476 c 0,285,286
651 535 m 0,295,296
 660 544 660 544 506.5 545.5 c 128,-1,297
 353 547 353 547 347 537 c 0,298,299
 343 531 343 531 416.5 528 c 128,-1,300
 490 525 490 525 567.5 527 c 128,-1,301
 645 529 645 529 651 535 c 0,295,296
373 673 m 2,302,303
 360 760 360 760 352 760 c 128,-1,304
 344 760 344 760 316 673 c 2,305,-1
 287 587 l 1,306,-1
 336 587 l 1,307,-1
 386 587 l 1,308,-1
 373 673 l 2,302,303
316 621 m 0,309,310
 325 642 325 642 334 678 c 2,311,-1
 343 713 l 1,312,-1
 352 680 l 2,313,314
 365 634 365 634 362 617 c 128,-1,315
 359 600 359 600 336 600 c 0,316,317
 321 600 321 600 316.5 605 c 128,-1,318
 312 610 312 610 316 621 c 0,309,310
511 598 m 0,319,320
 511 623 511 623 494 691.5 c 128,-1,321
 477 760 477 760 471 760 c 0,322,323
 461 760 461 760 453.5 716.5 c 128,-1,324
 446 673 446 673 437 630 c 0,325,326
 430 599 430 599 435 593 c 128,-1,327
 440 587 440 587 470 587 c 0,328,329
 487 587 487 587 499 590 c 128,-1,330
 511 593 511 593 511 598 c 0,319,320
454 610 m 0,331,332
 448 622 448 622 465 682 c 0,333,334
 473 707 473 707 477 705 c 0,335,336
 481 700 481 700 489 650 c 0,337,338
 493 622 493 622 490.5 611 c 128,-1,339
 488 600 488 600 478 600 c 0,340,341
 459 600 459 600 454 610 c 0,331,332
627 595 m 0,342,343
 648 600 648 600 649 608 c 128,-1,344
 650 616 650 616 635 651 c 0,345,346
 615 700 615 700 602 733 c 0,347,348
 594 754 594 754 589.5 756.5 c 128,-1,349
 585 759 585 759 578 746 c 0,350,351
 566 725 566 725 557 656 c 0,352,353
 550 600 550 600 561 590 c 128,-1,354
 572 580 572 580 627 595 c 0,342,343
569 619 m 0,355,356
 578 642 578 642 578 684 c 0,357,358
 578 716 578 716 586 715 c 0,359,360
 588 714 588 714 590 713 c 0,361,362
 598 703 598 703 608 678 c 128,-1,363
 618 653 618 653 621 634.5 c 128,-1,364
 624 616 624 616 618 613 c 0,365,366
 607 613 607 613 583 604 c 0,367,368
 570 599 570 599 567 602 c 128,-1,369
 564 605 564 605 569 619 c 0,355,356
EndSplineSet
Validated: 33
EndChar

StartChar: B
Encoding: 66 66 4
Width: 892
GlyphClass: 2
Flags: W
LayerCount: 2
Fore
SplineSet
260 -191 m 0,0,1
 251 -182 251 -182 251 -158 c 0,2,3
 251 -143 251 -143 240.5 -138.5 c 128,-1,4
 230 -134 230 -134 198 -134 c 2,5,-1
 145 -134 l 1,6,-1
 145 186 l 2,7,8
 145 506 145 506 132 506 c 0,9,10
 124 506 124 506 92 569 c 128,-1,11
 60 632 60 632 45 677 c 0,12,13
 36 705 36 705 89.5 734 c 128,-1,14
 143 763 143 763 234.5 781.5 c 128,-1,15
 326 800 326 800 421 800 c 0,16,17
 533 800 533 800 592 785.5 c 128,-1,18
 651 771 651 771 707 728 c 0,19,20
 786 668 786 668 801 580.5 c 128,-1,21
 816 493 816 493 762 402 c 2,22,-1
 729 345 l 1,23,-1
 776 293 l 2,24,25
 822 242 822 242 835.5 184.5 c 128,-1,26
 849 127 849 127 830 72 c 128,-1,27
 811 17 811 17 767.5 -32 c 128,-1,28
 724 -81 724 -81 651.5 -120 c 128,-1,29
 579 -159 579 -159 490 -180 c 0,30,31
 423 -195 423 -195 347.5 -199 c 128,-1,32
 272 -203 272 -203 260 -191 c 0,0,1
514 -107 m 0,33,34
 527 -89 527 -89 535.5 -65 c 128,-1,35
 544 -41 544 -41 544 -25 c 0,36,37
 544 11 544 11 562 12 c 128,-1,38
 580 13 580 13 611 -21 c 0,39,40
 642 -54 642 -54 669 -51.5 c 128,-1,41
 696 -49 696 -49 700 -19 c 128,-1,42
 704 11 704 11 685 56 c 0,43,44
 670 86 670 86 670 95 c 128,-1,45
 670 104 670 104 686 116 c 0,46,47
 709 133 709 133 719 133 c 0,48,49
 732 133 732 133 736 157 c 128,-1,50
 740 181 740 181 729 195 c 0,51,52
 713 214 713 214 660 205 c 2,53,-1
 607 197 l 1,54,-1
 616 245 l 2,55,56
 625 293 625 293 604 303.5 c 128,-1,57
 583 314 583 314 555 275 c 0,58,59
 527 237 527 237 509.5 242.5 c 128,-1,60
 492 248 492 248 479 299 c 0,61,62
 464 358 464 358 451 366 c 256,63,64
 438 374 438 374 426 341 c 0,65,66
 411 303 411 303 413 255 c 0,67,68
 413 227 413 227 415 226 c 1,69,-1
 421 243 l 2,70,71
 423 255 423 255 428 279 c 0,72,73
 438 335 438 335 442 337 c 0,74,75
 445 337 445 337 449.5 328.5 c 128,-1,76
 454 320 454 320 479 256 c 0,77,78
 490 226 490 226 516.5 227 c 128,-1,79
 543 228 543 228 563 259 c 0,80,81
 587 296 587 296 597 290 c 128,-1,82
 607 284 607 284 601 237 c 2,83,-1
 593 182 l 1,84,-1
 648 189 l 2,85,86
 712 198 712 198 722 176 c 0,87,88
 730 160 730 160 692 140 c 0,89,90
 657 122 657 122 653 104 c 128,-1,91
 649 86 649 86 671 44 c 0,92,93
 702 -15 702 -15 684.5 -30 c 128,-1,94
 667 -45 667 -45 616 -1 c 0,95,96
 572 38 572 38 547 28.5 c 128,-1,97
 522 19 522 19 514 -41 c 0,98,99
 510 -66 510 -66 498.5 -92.5 c 128,-1,100
 487 -119 487 -119 473.5 -133 c 128,-1,101
 460 -147 460 -147 452.5 -139.5 c 128,-1,102
 445 -132 445 -132 436 -63 c 2,103,-1
 428 6 l 1,104,-1
 426 -61 l 2,105,106
 425 -110 425 -110 437 -136.5 c 128,-1,107
 449 -163 449 -163 470 -156 c 0,108,109
 484 -152 484 -152 514 -107 c 0,33,34
296 -66 m 0,110,111
 327 -44 327 -44 349 -24 c 128,-1,112
 371 -4 371 -4 371 1.5 c 128,-1,113
 371 7 371 7 345.5 22.5 c 128,-1,114
 320 38 320 38 283 55 c 0,115,116
 260 66 260 66 241 77 c 128,-1,117
 222 88 222 88 213 96 c 128,-1,118
 204 104 204 104 207 107 c 0,119,120
 218 117 218 117 296 178 c 2,121,-1
 374 238 l 1,122,-1
 284 283 l 1,123,-1
 195 328 l 1,124,-1
 276 380 l 2,125,126
 357 433 357 433 358 442 c 0,127,128
 358 451 358 451 283.5 473 c 128,-1,129
 209 495 209 495 203 489 c 0,130,131
 201 487 201 487 211 482 c 0,132,133
 228 474 228 474 264 465 c 0,134,135
 331 448 331 448 331 440.5 c 128,-1,136
 331 433 331 433 251 381 c 0,137,138
 218 360 218 360 196.5 342.5 c 128,-1,139
 175 325 175 325 177 321 c 0,140,141
 182 312 182 312 263 274 c 2,142,-1
 343 235 l 1,143,-1
 264 175 l 2,144,145
 231 150 231 150 207.5 127.5 c 128,-1,146
 184 105 184 105 184 99 c 128,-1,147
 184 93 184 93 208.5 77.5 c 128,-1,148
 233 62 233 62 268 46 c 0,149,150
 354 6 354 6 358 -1 c 0,151,152
 360 -5 360 -5 346 -13 c 0,153,154
 345 -13 345 -13 344 -14 c 0,155,156
 284 -48 284 -48 222 -102 c 0,157,158
 200 -120 200 -120 206 -120 c 0,159,160
 220 -120 220 -120 296 -66 c 0,110,111
597 -64 m 0,161,162
 597 -71 597 -71 602 -75.5 c 128,-1,163
 607 -80 607 -80 614 -80 c 0,164,165
 630 -80 630 -80 608 -59 c 0,166,167
 590 -41 590 -41 574 -46.5 c 128,-1,168
 558 -52 558 -52 558 -77 c 0,169,170
 558 -90 558 -90 561.5 -89.5 c 128,-1,171
 565 -89 565 -89 577 -73 c 0,172,173
 594 -51 594 -51 597 -61 c 0,174,175
 597 -62 597 -62 597 -64 c 0,161,162
238 -34.5 m 128,-1,177
 238 -29 238 -29 224 -20 c 0,178,179
 219 -17 219 -17 215 -18.5 c 128,-1,180
 211 -20 211 -20 211 -26 c 128,-1,181
 211 -32 211 -32 215 -36 c 128,-1,182
 219 -40 219 -40 224 -40 c 0,183,176
 238 -40 238 -40 238 -34.5 c 128,-1,177
504 73 m 0,184,185
 569 106 569 106 576 118 c 0,186,187
 583 129 583 129 549 152.5 c 128,-1,188
 515 176 515 176 474 187 c 0,189,190
 431 200 431 200 414.5 181.5 c 128,-1,191
 398 163 398 163 398 105 c 0,192,193
 398 84 398 84 399 72 c 128,-1,194
 400 60 400 60 404.5 51.5 c 128,-1,195
 409 43 409 43 415 41 c 128,-1,196
 421 39 421 39 434 42.5 c 128,-1,197
 447 46 447 46 462.5 53 c 128,-1,198
 478 60 478 60 504 73 c 0,184,185
747 55 m 0,199,200
 731 71 731 71 746 88.5 c 128,-1,201
 761 106 761 106 746.5 106 c 128,-1,202
 732 106 732 106 724 92 c 0,203,204
 715 78 715 78 723 59 c 128,-1,205
 731 40 731 40 746 40 c 0,206,207
 756 40 756 40 756 43 c 128,-1,208
 756 46 756 46 747 55 c 0,199,200
358 106 m 0,209,210
 358 120 358 120 352 120 c 128,-1,211
 346 120 346 120 338 106 c 0,212,213
 334 101 334 101 336 97 c 128,-1,214
 338 93 338 93 343.5 93 c 128,-1,215
 349 93 349 93 353.5 97 c 128,-1,216
 358 101 358 101 358 106 c 0,209,210
204 199 m 0,217,218
 208 205 208 205 206 209 c 128,-1,219
 204 213 204 213 198.5 213 c 128,-1,220
 193 213 193 213 188.5 209 c 128,-1,221
 184 205 184 205 184 199 c 0,222,223
 184 186 184 186 190 186 c 128,-1,224
 196 186 196 186 204 199 c 0,217,218
697 239 m 0,225,226
 701 245 701 245 697 249 c 128,-1,227
 693 253 693 253 684.5 253 c 128,-1,228
 676 253 676 253 670 257.5 c 128,-1,229
 664 262 664 262 664 268.5 c 128,-1,230
 664 275 664 275 661.5 277 c 128,-1,231
 659 279 659 279 656 276 c 0,232,233
 647 267 647 267 655.5 246.5 c 128,-1,234
 664 226 664 226 676 226 c 0,235,236
 689 226 689 226 697 239 c 0,225,226
551 426 m 0,237,238
 566 426 566 426 598 393 c 0,239,240
 624 364 624 364 650.5 360.5 c 128,-1,241
 677 357 677 357 687 381 c 0,242,243
 692 396 692 396 687 417 c 128,-1,244
 682 438 682 438 658 496 c 0,245,246
 653 508 653 508 658 517 c 128,-1,247
 663 526 663 526 682 534 c 0,248,249
 719 551 719 551 724.5 574.5 c 128,-1,250
 730 598 730 598 705.5 611.5 c 128,-1,251
 681 625 681 625 640 617 c 2,252,-1
 594 609 l 1,253,-1
 603 657 l 2,254,255
 612 706 612 706 591 716.5 c 128,-1,256
 570 727 570 727 541 688 c 0,257,258
 513 650 513 650 496 655.5 c 128,-1,259
 479 661 479 661 464 712 c 0,260,261
 446 776 446 776 425 773 c 0,262,263
 401 770 401 770 399 698 c 0,264,265
 399 687 399 687 399 675 c 2,266,-1
 401 619 l 1,267,-1
 412 684 l 2,268,269
 422 748 422 748 429 754 c 0,270,271
 431 756 431 756 436 746 c 0,272,273
 444 731 444 731 453 703 c 0,274,275
 469 650 469 650 496.5 641.5 c 128,-1,276
 524 633 524 633 549 672 c 0,277,278
 576 713 576 713 587 694 c 0,279,280
 594 681 594 681 588 644 c 2,281,-1
 580 595 l 1,282,-1
 635 602 l 2,283,284
 699 611 699 611 710 589 c 0,285,286
 718 572 718 572 679 549 c 0,287,288
 644 529 644 529 640 511.5 c 128,-1,289
 636 494 636 494 658 451 c 0,290,291
 669 430 669 430 672.5 413 c 128,-1,292
 676 396 676 396 672 387 c 128,-1,293
 668 378 668 378 659.5 375.5 c 128,-1,294
 651 373 651 373 637 381 c 128,-1,295
 623 389 623 389 608 406 c 0,296,297
 584 434 584 434 552.5 438 c 128,-1,298
 521 442 521 442 512 418 c 0,299,300
 504 397 504 397 506 362 c 0,301,302
 507 341 507 341 509 340.5 c 128,-1,303
 511 340 511 340 515 353 c 0,304,305
 517 360 517 360 522 376 c 0,306,307
 527 397 527 397 536 411.5 c 128,-1,308
 545 426 545 426 551 426 c 0,237,238
485 455 m 0,309,310
 553 503 553 503 543.5 531 c 128,-1,311
 534 559 534 559 450 559 c 2,312,-1
 398 559 l 1,313,-1
 398 486 l 2,314,315
 398 413 398 413 412.5 413 c 128,-1,316
 427 413 427 413 485 455 c 0,309,310
739 493 m 0,317,318
 737 535 737 535 726 531 c 0,319,320
 719 529 719 529 712 511 c 0,321,322
 709 502 709 502 711 490 c 128,-1,323
 713 478 713 478 719 471 c 0,324,325
 735 451 735 451 738 456 c 0,326,327
 740 460 740 460 739 493 c 0,317,318
254 582 m 0,328,329
 292 577 292 577 325 587 c 128,-1,330
 358 597 358 597 358 615 c 0,331,332
 358 624 358 624 354.5 624 c 128,-1,333
 351 624 351 624 342 615 c 0,334,335
 335 609 335 609 314 604 c 128,-1,336
 293 599 293 599 270 599 c 0,337,338
 171 599 171 599 171 569 c 0,339,340
 173 558 173 558 191 572 c 0,341,342
 199 579 199 579 217.5 582 c 128,-1,343
 236 585 236 585 254 582 c 0,328,329
168 626 m 0,344,345
 178 641 178 641 195 646.5 c 128,-1,346
 212 652 212 652 249 652 c 0,347,348
 313 652 313 652 338 674 c 0,349,350
 357 689 357 689 357.5 690.5 c 128,-1,351
 358 692 358 692 343 687 c 0,352,353
 341 686 341 686 338 685 c 0,354,355
 311 675 311 675 253 673 c 0,356,357
 222 671 222 671 201 662.5 c 128,-1,358
 180 654 180 654 160 634 c 0,359,360
 129 602 129 602 138 599 c 0,361,362
 144 599 144 599 152.5 607 c 128,-1,363
 161 615 161 615 168 626 c 0,344,345
669 663 m 0,364,365
 655 672 655 672 647 692 c 0,366,367
 640 710 640 710 639 688 c 0,368,369
 639 685 639 685 639 682 c 0,370,371
 637 652 637 652 661 653 c 0,372,373
 674 653 674 653 674 657 c 0,374,375
 675 659 675 659 669 663 c 0,364,365
225 712 m 0,376,377
 273 706 273 706 308.5 716 c 128,-1,378
 344 726 344 726 344 747 c 0,379,380
 344 758 344 758 320 743 c 0,381,382
 317 741 317 741 315 740 c 0,383,384
 285 719 285 719 221 727 c 0,385,386
 183 733 183 733 165 729.5 c 128,-1,387
 147 726 147 726 131 712 c 0,388,389
 105 688 105 688 105 675 c 0,390,391
 105 663 105 663 128 686 c 0,392,393
 130 688 130 688 133 691 c 0,394,395
 151 711 151 711 167 714.5 c 128,-1,396
 183 718 183 718 225 712 c 0,376,377
539 735 m 0,397,398
 546 747 546 747 535 744 c 0,399,400
 532 744 532 744 526 742 c 0,401,402
 517 738 517 738 510.5 740 c 128,-1,403
 504 742 504 742 504 748 c 0,404,405
 504 755 504 755 502 757 c 128,-1,406
 500 759 500 759 496 755 c 0,407,408
 489 748 489 748 497.5 733.5 c 128,-1,409
 506 719 506 719 517.5 719 c 128,-1,410
 529 719 529 719 539 735 c 0,397,398
EndSplineSet
Validated: 33
EndChar

StartChar: C
Encoding: 67 67 5
Width: 900
GlyphClass: 2
Flags: W
LayerCount: 2
Fore
SplineSet
321 -159 m 0,0,1
 177 -87 177 -87 96 78 c 0,2,3
 71 129 71 129 65 164 c 128,-1,4
 59 199 59 199 59 293 c 0,5,6
 59 423 59 423 86.5 500.5 c 128,-1,7
 114 578 114 578 190 661 c 0,8,9
 363 850 363 850 588 783 c 0,10,11
 644 766 644 766 715 698.5 c 128,-1,12
 786 631 786 631 817 566 c 0,13,14
 851 494 851 494 851 483 c 0,15,16
 851 475 851 475 750.5 437 c 128,-1,17
 650 399 650 399 628 399 c 0,18,19
 622 399 622 399 615 407.5 c 128,-1,20
 608 416 608 416 604 427 c 0,21,22
 596 454 596 454 556 500 c 0,23,24
 475 592 475 592 388 503 c 0,25,26
 330 443 330 443 312.5 360.5 c 128,-1,27
 295 278 295 278 321.5 202 c 128,-1,28
 348 126 348 126 411 83 c 0,29,30
 470 44 470 44 523.5 61.5 c 128,-1,31
 577 79 577 79 618 151 c 0,32,33
 627 168 627 168 645.5 165 c 128,-1,34
 664 162 664 162 741 133 c 0,35,36
 851 91 851 91 851 71.5 c 128,-1,37
 851 52 851 52 825 1 c 0,38,39
 790 -66 790 -66 733 -113.5 c 128,-1,40
 676 -161 676 -161 608.5 -182.5 c 128,-1,41
 541 -204 541 -204 465.5 -198.5 c 128,-1,42
 390 -193 390 -193 321 -159 c 0,0,1
518 -163 m 2,43,44
 481 -156 481 -156 466.5 -139.5 c 128,-1,45
 452 -123 452 -123 452 -86 c 0,46,47
 452 -7 452 -7 526 -16 c 0,48,49
 561 -20 561 -20 576.5 -43 c 128,-1,50
 592 -66 592 -66 577 -90 c 0,51,52
 560 -115 560 -115 542.5 -112.5 c 128,-1,53
 525 -110 525 -110 528 -82 c 0,54,55
 531 -57 531 -57 521 -59 c 0,56,57
 520 -59 520 -59 518 -60 c 0,58,59
 501 -71 501 -71 506 -95.5 c 128,-1,60
 511 -120 511 -120 532 -127 c 0,61,62
 552 -133 552 -133 569 -124 c 128,-1,63
 586 -115 586 -115 593 -97.5 c 128,-1,64
 600 -80 600 -80 596.5 -58.5 c 128,-1,65
 593 -37 593 -37 577 -21 c 128,-1,66
 561 -5 561 -5 525 -1 c 128,-1,67
 489 3 489 3 470 -10 c 0,68,69
 458 -18 458 -18 441.5 -47.5 c 128,-1,70
 425 -77 425 -77 425 -90 c 0,71,72
 425 -114 425 -114 457.5 -143 c 128,-1,73
 490 -172 490 -172 516 -171 c 2,74,-1
 551 -169 l 1,75,-1
 518 -163 l 2,43,44
390 -45 m 0,76,77
 426 30 426 30 420 36 c 0,78,79
 418 38 418 38 411 28.5 c 128,-1,80
 404 19 404 19 393.5 1 c 128,-1,81
 383 -17 383 -17 372 -39 c 0,82,83
 332 -118 332 -118 342 -120 c 0,84,85
 347 -120 347 -120 360.5 -98 c 128,-1,86
 374 -76 374 -76 390 -45 c 0,76,77
336 -26 m 0,87,88
 374 42 374 42 367 49 c 0,89,90
 365 51 365 51 360.5 46.5 c 128,-1,91
 356 42 356 42 350 32.5 c 128,-1,92
 344 23 344 23 337 11 c 0,93,94
 315 -33 315 -33 295 -63 c 0,95,96
 277 -92 277 -92 287 -93 c 0,97,98
 292 -93 292 -93 306.5 -73 c 128,-1,99
 321 -53 321 -53 336 -26 c 0,87,88
698 20 m 0,100,101
 645 52 645 52 631 52 c 0,102,103
 623 52 623 52 650 34 c 0,104,105
 659 27 659 27 671 20 c 0,106,107
 724 -13 724 -13 738 -13 c 0,108,109
 746 -13 746 -13 719 6 c 0,110,111
 710 12 710 12 698 20 c 0,100,101
252 13 m 0,112,113
 252 19 252 19 242.5 23 c 128,-1,114
 233 27 233 27 219 27 c 0,115,116
 189 27 189 27 172.5 51 c 128,-1,117
 156 75 156 75 160.5 106 c 128,-1,118
 165 137 165 137 191 154 c 0,119,120
 225 176 225 176 252.5 161.5 c 128,-1,121
 280 147 280 147 276 109 c 0,122,123
 274 93 274 93 267.5 83 c 128,-1,124
 261 73 261 73 252 73 c 0,125,126
 244 73 244 73 239 78 c 128,-1,127
 234 83 234 83 235.5 90 c 128,-1,128
 237 97 237 97 233.5 102 c 128,-1,129
 230 107 230 107 224 107 c 0,130,131
 207 107 207 107 214 85 c 0,132,133
 224 60 224 60 245 55 c 0,134,135
 264 52 264 52 284.5 72 c 128,-1,136
 305 92 305 92 305 116 c 0,137,138
 305 135 305 135 276.5 160.5 c 128,-1,139
 248 186 248 186 227 186 c 0,140,141
 202 186 202 186 174.5 162 c 128,-1,142
 147 138 147 138 139 110 c 0,143,144
 134 93 134 93 141 77.5 c 128,-1,145
 148 62 148 62 170 40 c 0,146,147
 212 -2 212 -2 240 0 c 0,148,149
 252 1 252 1 252 13 c 0,112,113
794 48 m 0,150,151
 776 66 776 66 695 97 c 0,152,153
 656 111 656 111 659 105 c 0,154,155
 668 90 668 90 723 66 c 0,156,157
 802 30 802 30 798 43 c 0,158,159
 797 45 797 45 794 48 c 0,150,151
188 245 m 0,160,161
 213 241 213 241 233 242 c 128,-1,162
 253 243 253 243 256 248 c 0,163,164
 258 251 258 251 247 254 c 0,165,166
 227 260 227 260 182 260 c 128,-1,167
 137 260 137 260 117.5 255.5 c 128,-1,168
 98 251 98 251 94 240 c 0,169,170
 90 226 90 226 94 227 c 0,171,172
 97 227 97 227 108 236 c 0,173,174
 128 253 128 253 188 245 c 0,160,161
212 320 m 0,175,176
 212 325 212 325 203 329 c 128,-1,177
 194 333 194 333 181 333 c 0,178,179
 119 333 119 333 119 401 c 0,180,181
 119 428 119 428 137 453.5 c 128,-1,182
 155 479 155 479 174 479 c 0,183,184
 198 479 198 479 218.5 460.5 c 128,-1,185
 239 442 239 442 239 420 c 0,186,187
 239 388 239 388 223 379 c 128,-1,188
 207 370 207 370 190 393 c 0,189,190
 175 414 175 414 173 407 c 0,191,192
 172 404 172 404 172 396 c 0,193,194
 172 375 172 375 186 366.5 c 128,-1,195
 200 358 200 358 224 366 c 0,196,197
 252 375 252 375 255.5 403 c 128,-1,198
 259 431 259 431 236 460 c 0,199,200
 210 492 210 492 176 489.5 c 128,-1,201
 142 487 142 487 115 450 c 0,202,203
 98 427 98 427 96 414 c 128,-1,204
 94 401 94 401 104 375 c 0,205,206
 119 340 119 340 163 316 c 0,207,208
 204 293 204 293 211 313 c 0,209,210
 212 316 212 316 212 320 c 0,175,176
779 529 m 0,211,212
 774 534 774 534 706 502.5 c 128,-1,213
 638 471 638 471 638 463 c 0,214,215
 638 453 638 453 711 489 c 0,216,217
 723 494 723 494 733.5 500 c 128,-1,218
 744 506 744 506 753 510.5 c 128,-1,219
 762 515 762 515 768 519 c 128,-1,220
 774 523 774 523 777 525.5 c 128,-1,221
 780 528 780 528 779 529 c 0,211,212
727 568 m 0,222,223
 721 574 721 574 680.5 553.5 c 128,-1,224
 640 533 640 533 631 518 c 0,225,226
 628 515 628 515 633 515 c 0,227,228
 645 516 645 516 678 532 c 0,229,230
 693 540 693 540 705 547.5 c 128,-1,231
 717 555 717 555 723 560.5 c 128,-1,232
 729 566 729 566 727 568 c 0,222,223
292 585 m 0,233,234
 232 638 232 638 219 638 c 0,235,236
 207 638 207 638 258 592 c 0,237,238
 261 589 261 589 265 586 c 0,239,240
 325 533 325 533 338 533 c 0,241,242
 350 533 350 533 299 579 c 0,243,244
 296 582 296 582 292 585 c 0,233,234
325 625.5 m 128,-1,246
 304 647 304 647 287 661 c 128,-1,247
 270 675 270 675 267 672 c 128,-1,248
 264 669 264 669 277.5 651.5 c 128,-1,249
 291 634 291 634 312 612.5 c 128,-1,250
 333 591 333 591 350 577.5 c 128,-1,251
 367 564 367 564 370 566.5 c 128,-1,252
 373 569 373 569 359.5 586.5 c 128,-1,245
 346 604 346 604 325 625.5 c 128,-1,246
432 648 m 0,253,254
 432 688 432 688 438 703 c 128,-1,255
 444 718 444 718 466 730 c 0,256,257
 491 745 491 745 518.5 743.5 c 128,-1,258
 546 742 546 742 564 727.5 c 128,-1,259
 582 713 582 713 590.5 691 c 128,-1,260
 599 669 599 669 586 643 c 0,261,262
 576 622 576 622 558 615 c 128,-1,263
 540 608 540 608 525.5 619 c 128,-1,264
 511 630 511 630 511 652 c 0,265,266
 511 671 511 671 517 678 c 128,-1,267
 523 685 523 685 536 684 c 0,268,269
 561 681 561 681 548 695 c 0,270,271
 534 709 534 709 506 693 c 128,-1,272
 478 677 478 677 478 655 c 0,273,274
 478 628 478 628 502.5 611.5 c 128,-1,275
 527 595 527 595 556 598 c 128,-1,276
 585 601 585 601 598 625 c 0,277,278
 614 656 614 656 607.5 687.5 c 128,-1,279
 601 719 601 719 577.5 737 c 128,-1,280
 554 755 554 755 521 760.5 c 128,-1,281
 488 766 488 766 453 746 c 0,282,283
 425 731 425 731 412 692 c 128,-1,284
 399 653 399 653 411 621 c 0,285,286
 424 586 424 586 428.5 586 c 128,-1,287
 433 586 433 586 432 648 c 0,253,254
731 612.5 m 128,-1,289
 731 618 731 618 727 622 c 128,-1,290
 723 626 723 626 717.5 626 c 128,-1,291
 712 626 712 626 708 622 c 128,-1,292
 704 618 704 618 704 612.5 c 128,-1,293
 704 607 704 607 708 603 c 128,-1,294
 712 599 712 599 717.5 599 c 128,-1,295
 723 599 723 599 727 603 c 128,-1,288
 731 607 731 607 731 612.5 c 128,-1,289
EndSplineSet
Validated: 33
EndChar

StartChar: D
Encoding: 68 68 6
Width: 971
GlyphClass: 2
Flags: W
LayerCount: 2
Fore
SplineSet
168 -197 m 2,0,-1
 104 -193 l 1,1,-1
 104 170 l 2,2,3
 104 435 104 435 100 485 c 128,-1,4
 96 535 96 535 76 540 c 0,5,6
 66 543 66 543 61.5 547.5 c 128,-1,7
 57 552 57 552 53.5 565.5 c 128,-1,8
 50 579 50 579 51 604 c 128,-1,9
 52 629 52 629 52 674 c 2,10,-1
 56 800 l 1,11,-1
 307 800 l 2,12,13
 478 799 478 799 528 794.5 c 128,-1,14
 578 790 578 790 622 769 c 0,15,16
 824 678 824 678 896 457 c 0,17,18
 918 386 918 386 912.5 283.5 c 128,-1,19
 907 181 907 181 876 100 c 0,20,21
 838 0 838 0 744.5 -86 c 128,-1,22
 651 -172 651 -172 563 -188 c 0,23,24
 523 -195 523 -195 382 -198.5 c 128,-1,25
 241 -202 241 -202 168 -197 c 2,0,-1
299 -86 m 2,26,-1
 349 8 l 1,27,-1
 256 8 l 2,28,29
 162 8 162 8 154 0 c 0,30,31
 147 -7 147 -7 188.5 -94 c 128,-1,32
 230 -181 230 -181 240 -181 c 0,33,34
 249 -181 249 -181 299 -86 c 2,26,-1
234 -145 m 0,35,36
 227 -138 227 -138 199 -78.5 c 128,-1,37
 171 -19 171 -19 171 -11 c 0,38,39
 171 -7 171 -7 198 -9 c 0,40,41
 215 -10 215 -10 220.5 -20.5 c 128,-1,42
 226 -31 226 -31 226 -61 c 0,43,44
 226 -82 226 -82 230.5 -100 c 128,-1,45
 235 -118 235 -118 241 -122 c 0,46,47
 251 -128 251 -128 252 -112 c 0,48,49
 252 -100 252 -100 248 -77 c 0,50,51
 242 -38 242 -38 246 -29 c 128,-1,52
 250 -20 250 -20 276 -15 c 0,53,54
 313 -8 313 -8 316.5 -11 c 128,-1,55
 320 -14 320 -14 282 -84 c 0,56,57
 272 -103 272 -103 261.5 -118 c 128,-1,58
 251 -133 251 -133 244 -140 c 128,-1,59
 237 -147 237 -147 234 -145 c 0,35,36
384 -22 m 0,60,61
 381 5 381 5 380 -25 c 0,62,63
 379 -42 379 -42 379 -73 c 0,64,65
 379 -139 379 -139 382 -135 c 0,66,67
 383 -134 383 -134 384 -124 c 0,68,69
 390 -73 390 -73 384 -22 c 0,60,61
441 -65 m 0,70,71
 424 25 424 25 418 20 c 0,72,73
 413 18 413 18 421 -39 c 0,74,75
 438 -161 438 -161 450 -151 c 0,76,77
 456 -145 456 -145 441 -65 c 0,70,71
519 -135 m 0,78,79
 512 -116 512 -116 495 -57.5 c 128,-1,80
 478 1 478 1 465 15 c 0,81,82
 456 24 456 24 456 17 c 0,83,84
 456 14 456 14 458 8 c 0,85,86
 465 -12 465 -12 483 -83 c 0,87,88
 491 -112 491 -112 500 -133 c 128,-1,89
 509 -154 509 -154 514 -154 c 128,-1,90
 519 -154 519 -154 520.5 -148.5 c 128,-1,91
 522 -143 522 -143 519 -135 c 0,78,79
625 -104 m 0,92,93
 593 -96 593 -96 571.5 -73 c 128,-1,94
 550 -50 550 -50 550 -23 c 0,95,96
 550 3 550 3 576 32.5 c 128,-1,97
 602 62 602 62 625 62 c 0,98,99
 641 62 641 62 670 36.5 c 128,-1,100
 699 11 699 11 699 -4 c 0,101,102
 699 -29 699 -29 685.5 -44 c 128,-1,103
 672 -59 672 -59 650 -59 c 0,104,105
 633 -59 633 -59 625.5 -53 c 128,-1,106
 618 -47 618 -47 618 -32 c 0,107,108
 618 -21 618 -21 622 -13 c 128,-1,109
 626 -5 626 -5 631.5 -5 c 128,-1,110
 637 -5 637 -5 641 -1.5 c 128,-1,111
 645 2 645 2 645 8 c 0,112,113
 645 23 645 23 625 13 c 256,114,115
 605 3 605 3 598 -16 c 0,116,117
 595 -25 595 -25 600 -38.5 c 128,-1,118
 605 -52 605 -52 617 -64 c 0,119,120
 636 -83 636 -83 644.5 -83.5 c 128,-1,121
 653 -84 653 -84 678 -68 c 0,122,123
 710 -47 710 -47 712 -13.5 c 128,-1,124
 714 20 714 20 686 49 c 0,125,126
 665 70 665 70 638.5 73.5 c 128,-1,127
 612 77 612 77 590 67 c 128,-1,128
 568 57 568 57 552.5 33 c 128,-1,129
 537 9 537 9 537 -21 c 0,130,131
 537 -62 537 -62 559.5 -88 c 128,-1,132
 582 -114 582 -114 617 -112 c 0,133,134
 638 -111 638 -111 639 -109 c 1,135,-1
 631 -105 l 2,136,137
 628 -105 628 -105 625 -104 c 0,92,93
758 96 m 0,138,139
 692 156 692 156 679 156 c 0,140,141
 667 156 667 156 722 104 c 0,142,143
 727 100 727 100 731 96 c 0,144,145
 797 35 797 35 810 35 c 0,146,147
 822 35 822 35 767 88 c 0,148,149
 762 92 762 92 758 96 c 0,138,139
303 59 m 0,150,151
 253 64 253 64 202 59 c 0,152,153
 175 56 175 56 205 54 c 0,154,155
 222 53 222 53 253 53 c 0,156,157
 319 53 319 53 315 57 c 0,158,159
 314 58 314 58 303 59 c 0,150,151
565 99 m 0,160,161
 636 159 636 159 652 247.5 c 128,-1,162
 668 336 668 336 624 424 c 0,163,164
 598 476 598 476 575 499.5 c 128,-1,165
 552 523 552 523 517.5 531 c 128,-1,166
 483 539 483 539 418 538 c 2,167,-1
 361 536 l 1,168,-1
 361 308 l 2,169,170
 361 80 361 80 370 71 c 128,-1,171
 379 62 379 62 450 62 c 0,172,173
 493 62 493 62 515.5 69.5 c 128,-1,174
 538 77 538 77 565 99 c 0,160,161
192 108 m 0,175,176
 221 153 221 153 221.5 201.5 c 128,-1,177
 222 250 222 250 193 313 c 0,178,179
 165 375 165 375 160 406.5 c 128,-1,180
 155 438 155 438 171 448 c 0,181,182
 185 456 185 456 185 470.5 c 128,-1,183
 185 485 185 485 165 468 c 0,184,185
 120 431 120 431 179 301 c 0,186,187
 208 237 208 237 206 195.5 c 128,-1,188
 204 154 204 154 169 110 c 0,189,190
 146 79 146 79 157 76 c 0,191,192
 162 76 162 76 172.5 85.5 c 128,-1,193
 183 95 183 95 192 108 c 0,175,176
338 140 m 128,-1,195
 341 155 341 155 335 195.5 c 128,-1,196
 329 236 329 236 318 277 c 0,197,198
 300 348 300 348 299 380.5 c 128,-1,199
 298 413 298 413 315 464 c 0,200,201
 320 481 320 481 318 481 c 128,-1,202
 316 481 316 481 301 462 c 0,203,204
 281 438 281 438 280.5 386.5 c 128,-1,205
 280 335 280 335 300 279 c 0,206,207
 318 227 318 227 319.5 178 c 128,-1,208
 321 129 321 129 305 99 c 0,209,210
 293 77 293 77 296 77 c 0,211,212
 298 77 298 77 310 86 c 0,213,214
 318 94 318 94 326.5 109.5 c 128,-1,194
 335 125 335 125 338 140 c 128,-1,195
276 182 m 0,215,216
 283 238 283 238 253 308 c 128,-1,217
 223 378 223 378 230 424 c 0,218,219
 235 463 235 463 225 461 c 0,220,221
 209 451 209 451 213.5 401 c 128,-1,222
 218 351 218 351 239 304 c 0,223,224
 263 251 263 251 264.5 214 c 128,-1,225
 266 177 266 177 246 139 c 0,226,227
 221 91 221 91 228 91 c 0,228,229
 233 91 233 91 247 105 c 0,230,231
 256 114 256 114 264.5 136.5 c 128,-1,232
 273 159 273 159 276 182 c 0,215,216
848 95 m 0,233,234
 848 103 848 103 778.5 150.5 c 128,-1,235
 709 198 709 198 704 194 c 0,236,237
 702 192 702 192 709.5 184 c 128,-1,238
 717 176 717 176 731 164 c 128,-1,239
 745 152 745 152 763 139 c 0,240,241
 848 76 848 76 848 95 c 0,233,234
824 303 m 2,242,-1
 782 355 l 1,243,-1
 816 398 l 2,244,245
 847 438 847 438 837 441 c 0,246,247
 832 441 832 441 821.5 431 c 128,-1,248
 811 421 811 421 801 406 c 0,249,250
 785 381 785 381 778 379.5 c 128,-1,251
 771 378 771 378 752 395 c 0,252,253
 729 414 729 414 726 404 c 0,254,255
 726 391 726 391 747 373 c 0,256,257
 761 362 761 362 760.5 354.5 c 128,-1,258
 760 347 760 347 743 328 c 0,259,260
 696 273 696 273 700 269 c 0,261,262
 703 267 703 267 728 294 c 2,263,-1
 774 344 l 1,264,-1
 813 290 l 2,265,266
 823 276 823 276 833 264.5 c 128,-1,267
 843 253 843 253 849.5 247.5 c 128,-1,268
 856 242 856 242 858 244 c 0,269,270
 861 247 861 247 851 264 c 128,-1,271
 841 281 841 281 824 303 c 2,242,-1
774 501 m 0,272,273
 809 532 809 532 801 535 c 0,274,275
 787 536 787 536 733 488 c 0,276,277
 693 452 693 452 705 454 c 0,278,279
 719 456 719 456 774 501 c 0,272,273
775 559 m 0,280,281
 770 565 770 565 714.5 524 c 128,-1,282
 659 483 659 483 659 473 c 0,283,284
 659 467 659 467 720 510 c 0,285,286
 737 521 737 521 750.5 532 c 128,-1,287
 764 543 764 543 770.5 550 c 128,-1,288
 777 557 777 557 775 559 c 0,280,281
270 519 m 0,289,290
 226 524 226 524 182 519 c 0,291,292
 158 516 158 516 185 514 c 0,293,294
 200 513 200 513 226 513 c 0,295,296
 284 513 284 513 280 517 c 0,297,298
 278 518 278 518 270 519 c 0,289,290
686 556 m 0,299,300
 700 572 700 572 698 591 c 128,-1,301
 696 610 696 610 687 625.5 c 128,-1,302
 678 641 678 641 660.5 648.5 c 128,-1,303
 643 656 643 656 625 649 c 0,304,305
 615 645 615 645 609 630.5 c 128,-1,306
 603 616 603 616 605 603 c 128,-1,307
 607 590 607 590 617 590 c 0,308,309
 621 590 621 590 624 597 c 128,-1,310
 627 604 627 604 627 614 c 0,311,312
 626 628 626 628 634.5 634 c 128,-1,313
 643 640 643 640 655.5 634.5 c 128,-1,314
 668 629 668 629 677 615 c 0,315,316
 691 592 691 592 676 572 c 128,-1,317
 661 552 661 552 635 552 c 128,-1,318
 609 552 609 552 585 571 c 0,319,320
 563 593 563 593 565 620 c 128,-1,321
 567 647 567 647 591 671 c 0,322,323
 615 696 615 696 608.5 698 c 128,-1,324
 602 700 602 700 575 676 c 0,325,326
 552 655 552 655 551.5 620 c 128,-1,327
 551 585 551 585 573 561 c 0,328,329
 593 538 593 538 630.5 536.5 c 128,-1,330
 668 535 668 535 686 556 c 0,299,300
290 575 m 0,331,332
 300 581 300 581 297.5 597 c 128,-1,333
 295 613 295 613 276 652 c 0,334,335
 228 754 228 754 218 764 c 0,336,337
 207 775 207 775 195 751 c 0,338,339
 192 744 192 744 177 710 c 0,340,341
 146 636 146 636 137 600 c 0,342,343
 130 572 130 572 138 567.5 c 128,-1,344
 146 563 146 563 200 563 c 0,345,346
 273 564 273 564 290 575 c 0,331,332
151 599 m 0,347,348
 161 624 161 624 175 665 c 0,349,350
 195 725 195 725 211 725 c 128,-1,351
 227 725 227 725 256 665 c 2,352,-1
 293 590 l 1,353,-1
 259 590 l 2,354,355
 238 590 238 590 231.5 598 c 128,-1,356
 225 606 225 606 225 634 c 0,357,358
 225 678 225 678 211 698 c 0,359,360
 201 713 201 713 200 689 c 0,361,362
 200 676 200 676 201 651 c 0,363,364
 203 605 203 605 198.5 593.5 c 128,-1,365
 194 582 194 582 172 579 c 0,366,367
 153 576 153 576 148.5 580 c 128,-1,368
 144 584 144 584 151 599 c 0,347,348
376 698 m 2,369,-1
 364 786 l 1,370,-1
 363 719 l 2,371,372
 361 651 361 651 370 618 c 0,373,374
 378 587 378 587 382 594 c 0,375,376
 388 606 388 606 376 698 c 2,369,-1
441 704 m 0,377,378
 442 765 442 765 438 763 c 0,379,380
 432 761 432 761 424 671 c 0,381,382
 416 588 416 588 427 608 c 0,383,384
 427 609 427 609 428 611 c 0,385,386
 440 638 440 638 441 704 c 0,377,378
515 732 m 0,387,388
 523 764 523 764 516 762 c 0,389,390
 515 762 515 762 513 759 c 0,391,392
 502 748 502 748 485.5 685.5 c 128,-1,393
 469 623 469 623 470 601 c 0,394,395
 471 593 471 593 478 608 c 0,396,397
 495 647 495 647 515 732 c 0,387,388
EndSplineSet
Validated: 33
EndChar

StartChar: E
Encoding: 69 69 7
Width: 798
GlyphClass: 2
Flags: W
LayerCount: 2
Fore
SplineSet
121 -191 m 0,0,1
 114 -179 114 -179 112 141 c 0,2,3
 111 395 111 395 105.5 458.5 c 128,-1,4
 100 522 100 522 77 522 c 0,5,6
 63 522 63 522 59 549 c 128,-1,7
 55 576 55 576 50 711 c 0,8,9
 48 769 48 769 58.5 775.5 c 128,-1,10
 69 782 69 782 405 791 c 2,11,-1
 742 800 l 1,12,-1
 742 669 l 1,13,-1
 742 539 l 1,14,-1
 556 529 l 1,15,-1
 371 519 l 1,16,-1
 375 462 l 1,17,-1
 379 406 l 1,18,-1
 506 402 l 1,19,-1
 632 398 l 1,20,-1
 632 269 l 1,21,-1
 632 139 l 1,22,-1
 502 139 l 2,23,24
 406 139 406 139 389 135 c 128,-1,25
 372 131 372 131 372 106.5 c 128,-1,26
 372 82 372 82 393 77 c 128,-1,27
 414 72 414 72 535 69 c 0,28,29
 698 64 698 64 705.5 57 c 128,-1,30
 713 50 713 50 715 -73 c 2,31,-1
 718 -196 l 1,32,-1
 423 -199 l 2,33,34
 302 -201 302 -201 213 -198.5 c 128,-1,35
 124 -196 124 -196 121 -191 c 0,0,1
648 -121 m 0,36,37
 672 -96 672 -96 677.5 -83 c 128,-1,38
 683 -70 683 -70 674 -54 c 0,39,40
 660 -27 660 -27 610 -5.5 c 128,-1,41
 560 16 560 16 511 16 c 0,42,43
 479 16 479 16 444 -1 c 128,-1,44
 409 -18 409 -18 389 -42 c 128,-1,45
 369 -66 369 -66 377 -84 c 0,46,47
 388 -114 388 -114 438 -137.5 c 128,-1,48
 488 -161 488 -161 541 -162 c 0,49,50
 582 -162 582 -162 602 -154 c 128,-1,51
 622 -146 622 -146 648 -121 c 0,36,37
504 -127 m 0,52,53
 494 -117 494 -117 488 -96 c 128,-1,54
 482 -75 482 -75 482 -51 c 0,55,56
 482 -13 482 -13 488 -5 c 128,-1,57
 494 3 494 3 523 3 c 0,58,59
 565 3 565 3 582 -30.5 c 128,-1,60
 599 -64 599 -64 577 -104 c 0,61,62
 558 -137 558 -137 541.5 -142.5 c 128,-1,63
 525 -148 525 -148 504 -127 c 0,52,53
584 -121 m 0,64,65
 608 -94 608 -94 602 -54 c 0,66,67
 598 -26 598 -26 601.5 -21.5 c 128,-1,68
 605 -17 605 -17 622 -27 c 0,69,70
 689 -63 689 -63 627 -116 c 0,71,72
 586 -151 586 -151 572 -147 c 0,73,74
 563 -144 563 -144 584 -121 c 0,64,65
412 -108 m 2,75,-1
 379 -82 l 1,76,-1
 412 -46 l 2,77,78
 467 11 467 11 463 -28 c 0,79,80
 463 -35 463 -35 460 -44 c 0,81,82
 457 -58 457 -58 459 -76 c 128,-1,83
 461 -94 461 -94 468 -106 c 0,84,85
 483 -135 483 -135 463 -135 c 0,86,87
 444 -135 444 -135 412 -108 c 2,75,-1
210 -99 m 2,88,-1
 228 -51 l 1,89,-1
 274 -103 l 2,90,91
 312 -146 312 -146 308 -133 c 0,92,93
 305 -122 305 -122 267 -70 c 0,94,95
 247 -44 247 -44 243.5 -30 c 128,-1,96
 240 -16 240 -16 248 1 c 0,97,98
 288 74 288 74 282 95 c 0,99,100
 281 98 281 98 278 98 c 0,101,102
 273 98 273 98 263.5 81.5 c 128,-1,103
 254 65 254 65 246 41 c 2,104,-1
 227 -16 l 1,105,-1
 196 34 l 2,106,107
 183 55 183 55 170 70 c 128,-1,108
 157 85 157 85 152 85 c 0,109,110
 129 85 129 85 193 4 c 0,111,112
 212 -21 212 -21 212 -33 c 128,-1,113
 212 -45 212 -45 194 -89 c 0,114,115
 170 -145 170 -145 181 -148 c 0,116,117
 186 -148 186 -148 194.5 -133.5 c 128,-1,118
 203 -119 203 -119 210 -99 c 2,88,-1
318 -25 m 0,119,120
 318 -11 318 -11 312 -11 c 128,-1,121
 306 -11 306 -11 297 -25 c 0,122,123
 294 -30 294 -30 295.5 -34 c 128,-1,124
 297 -38 297 -38 303 -38 c 128,-1,125
 309 -38 309 -38 313.5 -34 c 128,-1,126
 318 -30 318 -30 318 -25 c 0,119,120
660 31 m 0,127,128
 660 37 660 37 656 38.5 c 128,-1,129
 652 40 652 40 646 37 c 0,130,131
 632 28 632 28 632 15 c 0,132,133
 632 9 632 9 636 7.5 c 128,-1,134
 640 6 640 6 646 9 c 0,135,136
 660 18 660 18 660 31 c 0,127,128
550 44 m 0,137,138
 550 57 550 57 544 57 c 128,-1,139
 538 57 538 57 530 44 c 0,140,141
 526 38 526 38 528 34 c 128,-1,142
 530 30 530 30 536 30 c 128,-1,143
 542 30 542 30 546 34 c 128,-1,144
 550 38 550 38 550 44 c 0,137,138
280 149 m 0,145,146
 236 155 236 155 191 149 c 0,147,148
 167 146 167 146 195 145 c 0,149,150
 210 144 210 144 236 144 c 0,151,152
 295 144 295 144 290 147 c 0,153,154
 289 148 289 148 280 149 c 0,145,146
502.5 213 m 128,-1,156
 493 256 493 256 491 314 c 128,-1,157
 489 372 489 372 485 372 c 128,-1,158
 481 372 481 372 468 337 c 128,-1,159
 455 302 455 302 476.5 260 c 128,-1,160
 498 218 498 218 489 185 c 0,161,162
 482 157 482 157 491 158 c 0,163,164
 493 158 493 158 496 160 c 0,165,155
 512 170 512 170 502.5 213 c 128,-1,156
441 205 m 0,166,167
 441 220 441 220 434.5 240.5 c 128,-1,168
 428 261 428 261 419 274 c 0,169,170
 397 305 397 305 405 346 c 0,171,172
 412 382 412 382 402 379 c 0,173,174
 401 379 401 379 400 378 c 0,175,176
 384 369 384 369 387 322.5 c 128,-1,177
 390 276 390 276 409 250 c 0,178,179
 422 231 422 231 423.5 219 c 128,-1,180
 425 207 425 207 415 192 c 0,181,182
 406 177 406 177 407 172 c 128,-1,183
 408 167 408 167 420 167 c 0,184,185
 441 167 441 167 441 205 c 0,166,167
584 281 m 0,186,187
 584 370 584 370 576 370 c 0,188,189
 573 370 573 370 567 363 c 0,190,191
 553 343 553 343 552 308 c 128,-1,192
 551 273 551 273 563 242 c 0,193,194
 568 231 568 231 567 215.5 c 128,-1,195
 566 200 566 200 561 189 c 0,196,197
 550 168 550 168 558 168 c 0,198,199
 561 168 561 168 566 170 c 0,200,201
 584 176 584 176 584 281 c 0,186,187
202 221 m 0,202,203
 210 248 210 248 223 247.5 c 128,-1,204
 236 247 236 247 250 220 c 0,205,206
 256 208 256 208 262.5 202 c 128,-1,207
 269 196 269 196 272 198 c 0,208,209
 279 205 279 205 256 240 c 0,210,211
 241 263 241 263 241 275 c 128,-1,212
 241 287 241 287 256 316 c 0,213,214
 275 355 275 355 264 358 c 0,215,216
 259 358 259 358 252.5 350 c 128,-1,217
 246 342 246 342 243 331 c 0,218,219
 235 306 235 306 221.5 304 c 128,-1,220
 208 302 208 302 200 324 c 0,221,222
 196 332 196 332 190 338 c 128,-1,223
 184 344 184 344 179 344 c 0,224,225
 168 344 168 344 187 314 c 0,226,227
 188 312 188 312 190 309 c 0,228,229
 206 284 206 284 206 273 c 128,-1,230
 206 262 206 262 189 234 c 0,231,232
 169 197 169 197 179 194 c 0,233,234
 185 194 185 194 191.5 202 c 128,-1,235
 198 210 198 210 202 221 c 0,202,203
311 276 m 0,236,237
 314 282 314 282 310 286 c 128,-1,238
 306 290 306 290 297 290 c 128,-1,239
 288 290 288 290 284 286 c 128,-1,240
 280 282 280 282 284 276 c 0,241,242
 292 262 292 262 297 262 c 128,-1,243
 302 262 302 262 311 276 c 0,236,237
270 399 m 0,244,245
 292 405 292 405 292 407 c 0,246,247
 291 410 291 410 239 411 c 0,248,249
 209 412 209 412 188 408.5 c 128,-1,250
 167 405 167 405 167 399 c 0,251,252
 167 391 167 391 180 388.5 c 128,-1,253
 193 386 193 386 216.5 388.5 c 128,-1,254
 240 391 240 391 270 399 c 0,244,245
201.5 508.5 m 128,-1,256
 205 525 205 525 211 537.5 c 128,-1,257
 217 550 217 550 221.5 550 c 128,-1,258
 226 550 226 550 234 537.5 c 128,-1,259
 242 525 242 525 249 508.5 c 128,-1,260
 256 492 256 492 265 479.5 c 128,-1,261
 274 467 274 467 279 467 c 0,262,263
 291 467 291 467 265 516 c 0,264,265
 263 519 263 519 261 522 c 2,266,-1
 230 577 l 1,267,-1
 260 648 l 2,268,269
 290 718 290 718 284 725 c 0,270,271
 282 727 282 727 276.5 719.5 c 128,-1,272
 271 712 271 712 263 697.5 c 128,-1,273
 255 683 255 683 247 665 c 2,274,-1
 218 597 l 1,275,-1
 193 656 l 2,276,277
 168 714 168 714 161 714 c 0,278,279
 159 713 159 713 160 706.5 c 128,-1,280
 161 700 161 700 165.5 688 c 128,-1,281
 170 676 170 676 176 662 c 0,282,283
 202 601 202 601 204 579.5 c 128,-1,284
 206 558 206 558 189 524 c 0,285,286
 163 474 163 474 171 469 c 0,287,288
 174 467 174 467 180 467 c 0,289,290
 185 467 185 467 191.5 479.5 c 128,-1,255
 198 492 198 492 201.5 508.5 c 128,-1,256
328 585 m 0,291,292
 319 593 319 593 302 586 c 0,293,294
 286 580 286 580 305 578 c 0,295,296
 307 578 307 578 310 578 c 0,297,298
 330 577 330 577 329 583 c 0,299,300
 329 584 329 584 328 585 c 0,291,292
637 592 m 0,301,302
 666 608 666 608 697 635 c 0,303,304
 715 652 715 652 718 661.5 c 128,-1,305
 721 671 721 671 712 683 c 0,306,307
 675 726 675 726 598.5 737 c 128,-1,308
 522 748 522 748 459.5 718.5 c 128,-1,309
 397 689 397 689 393.5 651 c 128,-1,310
 390 613 390 613 447 590 c 0,311,312
 478 577 478 577 544.5 578 c 128,-1,313
 611 579 611 579 637 592 c 0,301,302
437.5 614.5 m 128,-1,315
 400 638 400 638 400 646 c 128,-1,316
 400 654 400 654 437 682 c 2,317,-1
 475 709 l 1,318,-1
 475 650 l 2,319,320
 476 634 476 634 476 620.5 c 128,-1,321
 476 607 476 607 476 599 c 128,-1,322
 476 591 476 591 475 591 c 2,323,314
 475 591 475 591 437.5 614.5 c 128,-1,315
498 607 m 0,324,325
 482 624 482 624 482.5 661 c 128,-1,326
 483 698 483 698 501 712 c 0,327,328
 517 725 517 725 569 725 c 128,-1,329
 621 725 621 725 646 712 c 0,330,331
 692 687 692 687 696 677 c 128,-1,332
 700 667 700 667 674 639 c 0,333,334
 642 605 642 605 633.5 607 c 128,-1,335
 625 609 625 609 630 650 c 0,336,337
 635 697 635 697 618 707 c 0,338,339
 607 714 607 714 607 704 c 0,340,341
 608 699 608 699 611 689 c 0,342,343
 620 661 620 661 611 626 c 0,344,345
 605 604 605 604 595 597.5 c 128,-1,346
 585 591 585 591 558 591 c 0,347,348
 540 591 540 591 522.5 595.5 c 128,-1,349
 505 600 505 600 498 607 c 0,324,325
448 755 m 0,350,351
 439 768 439 768 426 768 c 0,352,353
 420 768 420 768 418.5 764 c 128,-1,354
 417 760 417 760 420 755 c 0,355,356
 429 741 429 741 442 741 c 0,357,358
 448 741 448 741 449.5 745 c 128,-1,359
 451 749 451 749 448 755 c 0,350,351
701 763 m 128,-1,361
 701 768 701 768 680 768 c 0,362,363
 672 768 672 768 666 764.5 c 128,-1,364
 660 761 660 761 660 755.5 c 128,-1,365
 660 750 660 750 666 748 c 128,-1,366
 672 746 672 746 680 750 c 0,367,360
 701 758 701 758 701 763 c 128,-1,361
EndSplineSet
Validated: 33
EndChar

StartChar: F
Encoding: 70 70 8
Width: 798
GlyphClass: 2
Flags: W
LayerCount: 2
Fore
SplineSet
123 -191 m 128,-1,1
 114 -182 114 -182 114 171 c 2,2,-1
 114 524 l 1,3,-1
 83 528 l 2,4,5
 61 531 61 531 56.5 550 c 128,-1,6
 52 569 52 569 52 663 c 2,7,-1
 52 793 l 1,8,-1
 398 796 l 1,9,-1
 743 800 l 1,10,-1
 743 670 l 1,11,-1
 743 540 l 1,12,-1
 562 536 l 1,13,-1
 381 533 l 1,14,-1
 377 419 l 1,15,-1
 373 306 l 1,16,-1
 514 310 l 1,17,-1
 654 313 l 1,18,-1
 665 198 l 2,19,20
 675 82 675 82 664.5 72 c 128,-1,21
 654 62 654 62 558.5 53.5 c 128,-1,22
 463 45 463 45 418 38 c 2,23,-1
 374 32 l 1,24,-1
 374 -84 l 1,25,-1
 374 -200 l 1,26,-1
 253 -200 l 2,27,0
 132 -200 132 -200 123 -191 c 128,-1,1
251 -145 m 0,28,29
 251 -140 251 -140 246.5 -136 c 128,-1,30
 242 -132 242 -132 236 -132 c 128,-1,31
 230 -132 230 -132 228.5 -136 c 128,-1,32
 227 -140 227 -140 230 -145 c 0,33,34
 238 -159 238 -159 244.5 -159 c 128,-1,35
 251 -159 251 -159 251 -145 c 0,28,29
244 -63 m 0,36,37
 305 12 305 12 305 26 c 0,38,39
 305 38 305 38 277 5 c 0,40,41
 275 2 275 2 272 -1 c 0,42,43
 249 -31 249 -31 240.5 -33.5 c 128,-1,44
 232 -36 232 -36 213 -19 c 0,45,46
 178 13 178 13 175 3 c 0,47,48
 172 -4 172 -4 195 -28 c 0,49,50
 224 -59 224 -59 217 -77 c 0,51,52
 210 -93 210 -93 180 -70 c 0,53,54
 179 -69 179 -69 177 -67 c 0,55,56
 156 -49 156 -49 154.5 -49 c 128,-1,57
 153 -49 153 -49 172 -71 c 0,58,59
 188 -91 188 -91 188 -98.5 c 128,-1,60
 188 -106 188 -106 172 -124 c 0,61,62
 151 -145 151 -145 162 -144 c 0,63,64
 163 -144 163 -144 165 -143 c 0,65,66
 172 -141 172 -141 195 -117.5 c 128,-1,67
 218 -94 218 -94 244 -63 c 0,36,37
299 -104 m 0,68,69
 282 -87 282 -87 268.5 -77.5 c 128,-1,70
 255 -68 255 -68 252 -71 c 128,-1,71
 249 -74 249 -74 266 -92 c 128,-1,72
 283 -110 283 -110 304 -127 c 128,-1,73
 325 -144 325 -144 332 -145 c 0,74,75
 338 -145 338 -145 299 -104 c 0,68,69
340 -25 m 0,76,77
 333 -18 333 -18 312.5 -36 c 128,-1,78
 292 -54 292 -54 292 -67 c 0,79,80
 292 -79 292 -79 314 -60 c 0,81,82
 317 -58 317 -58 319 -56 c 0,83,84
 347 -31 347 -31 340 -25 c 0,76,77
246 87 m 0,85,86
 279 74 279 74 312.5 74 c 128,-1,87
 346 74 346 74 346 87 c 0,88,89
 346 93 346 93 340.5 94.5 c 128,-1,90
 335 96 335 96 326 93 c 0,91,92
 306 85 306 85 256 102 c 0,93,94
 227 111 227 111 210 111 c 128,-1,95
 193 111 193 111 174 100 c 0,96,97
 160 93 160 93 150.5 85 c 128,-1,98
 141 77 141 77 141 72 c 0,99,100
 143 63 143 63 177 80 c 0,101,102
 213 99 213 99 246 87 c 0,85,86
633 83 m 0,103,104
 637 86 637 86 615 87 c 0,105,106
 547 89 547 89 492 76 c 0,107,108
 487 74 487 74 483 73 c 0,109,110
 463 67 463 67 490 67 c 0,111,112
 506 67 506 67 538 70 c 0,113,114
 627 77 627 77 633 83 c 0,103,104
437 109 m 0,115,116
 429 131 429 131 429 178 c 0,117,118
 429 197 429 197 426 210.5 c 128,-1,119
 423 224 423 224 418.5 224 c 128,-1,120
 414 224 414 224 412.5 204 c 128,-1,121
 411 184 411 184 413 156 c 128,-1,122
 415 128 415 128 420.5 108 c 128,-1,123
 426 88 426 88 431.5 88 c 128,-1,124
 437 88 437 88 438.5 94 c 128,-1,125
 440 100 440 100 437 109 c 0,115,116
502 146 m 0,126,127
 493 190 493 190 480 211 c 0,128,129
 473 223 473 223 472 218 c 0,130,131
 472 213 472 213 475 197 c 0,132,133
 483 163 483 163 483 132 c 0,134,135
 483 119 483 119 487 110 c 128,-1,136
 491 101 491 101 497 101 c 0,137,138
 502 101 502 101 503.5 114 c 128,-1,139
 505 127 505 127 502 146 c 0,126,127
570 159 m 0,140,141
 562 204 562 204 548 218 c 0,142,143
 536 229 536 229 540 214 c 0,144,145
 541 211 541 211 543 206 c 0,146,147
 552 181 552 181 552 148 c 0,148,149
 552 134 552 134 556 124.5 c 128,-1,150
 560 115 560 115 565 115 c 0,151,152
 571 115 571 115 572.5 127.5 c 128,-1,153
 574 140 574 140 570 159 c 0,140,141
632 179 m 0,154,155
 619 248 619 248 610 251 c 0,156,157
 604 252 604 252 611 204 c 0,158,159
 620 149 620 149 620 132 c 0,160,161
 620 125 620 125 623.5 120 c 128,-1,162
 627 115 627 115 632 115 c 0,163,164
 635 115 635 115 636.5 123.5 c 128,-1,165
 638 132 638 132 636.5 146.5 c 128,-1,166
 635 161 635 161 632 179 c 0,154,155
346 141 m 0,167,168
 346 146 346 146 333 152 c 128,-1,169
 320 158 320 158 302 162 c 0,170,171
 215 180 215 180 192 180 c 128,-1,172
 169 180 169 180 155 163 c 0,173,174
 142 147 142 147 146 147 c 0,175,176
 149 147 149 147 172 157 c 0,177,178
 194 167 194 167 211 166 c 128,-1,179
 228 165 228 165 260 152 c 0,180,181
 346 116 346 116 346 141 c 0,167,168
360 209 m 0,182,183
 360 215 360 215 352 216.5 c 128,-1,184
 344 218 344 218 333.5 215 c 128,-1,185
 323 212 323 212 306 216.5 c 128,-1,186
 289 221 289 221 276 230 c 0,187,188
 247 250 247 250 209.5 251 c 128,-1,189
 172 252 172 252 155 232 c 0,190,191
 144 218 144 218 150 218 c 0,192,193
 156 219 156 219 178 227 c 0,194,195
 201 236 201 236 217.5 234.5 c 128,-1,196
 234 233 234 233 258 220 c 0,197,198
 280 208 280 208 304 202 c 128,-1,199
 328 196 328 196 344 198 c 128,-1,200
 360 200 360 200 360 209 c 0,182,183
559 279 m 2,201,-1
 627 289 l 1,202,-1
 552 290 l 2,203,204
 476 290 476 290 442 279 c 0,205,206
 419 272 419 272 418 270 c 1,207,-1
 436 268 l 2,208,209
 441 268 441 268 449 268 c 0,210,211
 490 268 490 268 559 279 c 2,201,-1
183 319 m 0,212,213
 167 348 167 348 169.5 363.5 c 128,-1,214
 172 379 172 379 195 402 c 256,215,216
 218 425 218 425 240.5 420.5 c 128,-1,217
 263 416 263 416 279 386 c 0,218,219
 294 360 294 360 277 340 c 0,220,221
 259 318 259 318 241 321 c 128,-1,222
 223 324 223 324 223 348 c 0,223,224
 223 362 223 362 227 367 c 128,-1,225
 231 372 231 372 239 367 c 128,-1,226
 247 362 247 362 248 364 c 128,-1,227
 249 366 249 366 244 374 c 0,228,229
 238 384 238 384 231.5 383.5 c 128,-1,230
 225 383 225 383 212 370 c 256,231,232
 199 357 199 357 198.5 349 c 128,-1,233
 198 341 198 341 209 328 c 0,234,235
 223 311 223 311 242 308 c 128,-1,236
 261 305 261 305 275.5 313.5 c 128,-1,237
 290 322 290 322 297.5 340.5 c 128,-1,238
 305 359 305 359 300 381 c 0,239,240
 290 420 290 420 261.5 432 c 128,-1,241
 233 444 233 444 201 423 c 0,242,243
 187 414 187 414 174.5 401.5 c 128,-1,244
 162 389 162 389 159 381 c 0,245,246
 152 361 152 361 161 327 c 128,-1,247
 170 293 170 293 183 293 c 0,248,249
 197 293 197 293 183 319 c 0,212,213
302 522 m 0,250,251
 265 527 265 527 220 522 c 0,252,253
 195 519 195 519 221 517 c 0,254,255
 234 516 234 516 257 516 c 0,256,257
 314 516 314 516 310 520 c 0,258,259
 309 521 309 521 302 522 c 0,250,251
168 659 m 0,260,261
 215 738 215 738 219 744 c 0,262,263
 221 746 221 746 224.5 743.5 c 128,-1,264
 228 741 228 741 233 735.5 c 128,-1,265
 238 730 238 730 243 722 c 0,266,267
 294 649 294 649 344 602 c 0,268,269
 360 586 360 586 360 592 c 0,270,271
 360 605 360 605 290 690 c 2,272,-1
 219 774 l 1,273,-1
 169 694 l 2,274,275
 119 615 119 615 109 598 c 0,276,277
 104 591 104 591 104.5 585.5 c 128,-1,278
 105 580 105 580 110 580 c 128,-1,279
 115 580 115 580 132 603.5 c 128,-1,280
 149 627 149 627 168 659 c 0,260,261
257 614 m 0,281,282
 276 590 276 590 277 601 c 0,283,284
 277 615 277 615 259 639 c 0,285,286
 246 655 246 655 240 655 c 128,-1,287
 234 655 234 655 218 637 c 0,288,289
 196 613 196 613 196 600 c 0,290,291
 197 589 197 589 214 610 c 0,292,293
 215 612 215 612 217 614 c 0,294,295
 232 634 232 634 237 634 c 128,-1,296
 242 634 242 634 257 614 c 0,281,282
593 623 m 2,297,298
 617 596 617 596 620 604 c 0,299,300
 620 617 620 617 588 647 c 2,301,-1
 556 677 l 1,302,-1
 533 643 l 2,303,304
 504 599 504 599 513 598 c 0,305,306
 518 596 518 596 539 622 c 2,307,-1
 566 656 l 1,308,-1
 593 623 l 2,297,298
650.5 659 m 128,-1,310
 609 711 609 711 576 741 c 2,311,-1
 543 772 l 1,312,-1
 496 708 l 2,313,314
 423 608 423 608 433 608 c 0,315,316
 439 608 439 608 491.5 676.5 c 128,-1,317
 544 745 544 745 551.5 745 c 128,-1,318
 559 745 559 745 619 669 c 0,319,320
 635 649 635 649 650 632.5 c 128,-1,321
 665 616 665 616 674.5 607.5 c 128,-1,322
 684 599 684 599 686 600 c 0,323,309
 692 607 692 607 650.5 659 c 128,-1,310
142.5 720 m 128,-1,325
 156 745 156 745 142 745 c 0,326,327
 136 745 136 745 125 732 c 128,-1,328
 114 719 114 719 105 700 c 0,329,330
 87 665 87 665 89 664 c 0,331,332
 92 664 92 664 105 675 c 0,333,324
 129 695 129 695 142.5 720 c 128,-1,325
442 750 m 0,334,335
 441 764 441 764 421 738.5 c 128,-1,336
 401 713 401 713 401 698 c 0,337,338
 401 686 401 686 374 717 c 0,339,340
 371 720 371 720 367 724 c 0,341,342
 337 761 337 761 333 752 c 1,343,344
 333 740 333 740 363 707 c 2,345,-1
 394 674 l 1,346,-1
 418 704 l 2,347,348
 442 734 442 734 442 750 c 0,334,335
716 694 m 256,349,350
 716 699 716 699 680 732 c 0,351,352
 654 756 654 756 654 746 c 0,353,354
 655 738 655 738 679 707 c 0,355,356
 692 689 692 689 709 689 c 0,357,358
 716 689 716 689 716 694 c 256,349,350
EndSplineSet
Validated: 33
EndChar

StartChar: G
Encoding: 71 71 9
Width: 952
GlyphClass: 2
Flags: W
LayerCount: 2
Fore
SplineSet
385 -190 m 0,0,1
 333 -174 333 -174 293 -146.5 c 128,-1,2
 253 -119 253 -119 207 -69 c 0,3,4
 120 23 120 23 81 145 c 128,-1,5
 42 267 42 267 63 380 c 0,6,7
 95 555 95 555 209.5 672 c 128,-1,8
 324 789 324 789 472 799 c 0,9,10
 547 804 547 804 604.5 789 c 128,-1,11
 662 774 662 774 721 735 c 0,12,13
 766 705 766 705 807 649 c 128,-1,14
 848 593 848 593 860 547 c 0,15,16
 861 542 861 542 861.5 538.5 c 128,-1,17
 862 535 862 535 862 531 c 128,-1,18
 862 527 862 527 861 524.5 c 128,-1,19
 860 522 860 522 857 518.5 c 128,-1,20
 854 515 854 515 851 512.5 c 128,-1,21
 848 510 848 510 841 506 c 128,-1,22
 834 502 834 502 827 499 c 128,-1,23
 820 496 820 496 808.5 491.5 c 128,-1,24
 797 487 797 487 786 482.5 c 128,-1,25
 775 478 775 478 757 471 c 0,26,27
 683 443 683 443 662.5 439.5 c 128,-1,28
 642 436 642 436 633 451 c 0,29,30
 586 527 586 527 527.5 543 c 128,-1,31
 469 559 469 559 412 512 c 0,32,33
 352 461 352 461 329.5 380.5 c 128,-1,34
 307 300 307 300 329 219.5 c 128,-1,35
 351 139 351 139 411 88 c 0,36,37
 456 51 456 51 491 53.5 c 128,-1,38
 526 56 526 56 567 101 c 0,39,40
 613 151 613 151 613 161 c 128,-1,41
 613 171 613 171 557 175 c 2,42,-1
 501 179 l 1,43,-1
 501 279 l 1,44,-1
 501 380 l 1,45,-1
 544 379 l 2,46,47
 593 378 593 378 741 376 c 2,48,-1
 897 373 l 1,49,-1
 891 262 l 2,50,51
 884 127 884 127 821 14.5 c 128,-1,52
 758 -98 758 -98 657 -158 c 0,53,54
 609 -186 609 -186 522 -196.5 c 128,-1,55
 435 -207 435 -207 385 -190 c 0,0,1
472 -117 m 0,56,57
 498 -98 498 -98 495.5 -53 c 128,-1,58
 493 -8 493 -8 465 15 c 0,59,60
 438 37 438 37 414 37.5 c 128,-1,61
 390 38 390 38 361 18 c 0,62,63
 344 5 344 5 338.5 -10.5 c 128,-1,64
 333 -26 333 -26 334 -59 c 2,65,-1
 336 -115 l 1,66,-1
 342 -65 l 2,67,68
 347 -14 347 -14 379 7 c 0,69,70
 402 22 402 22 412 22 c 128,-1,71
 422 22 422 22 445 6 c 0,72,73
 501 -30 501 -30 465 -96 c 0,74,75
 453 -119 453 -119 422 -122 c 0,76,77
 399 -124 399 -124 399 -109 c 0,78,79
 399 -92 399 -92 403 -84 c 128,-1,80
 407 -76 407 -76 415 -78 c 0,81,82
 420 -80 420 -80 422.5 -77 c 128,-1,83
 425 -74 425 -74 425 -68 c 0,84,85
 425 -58 425 -58 415 -55.5 c 128,-1,86
 405 -53 405 -53 393 -59 c 128,-1,87
 381 -65 381 -65 377 -75 c 0,88,89
 369 -94 369 -94 385.5 -114.5 c 128,-1,90
 402 -135 402 -135 424.5 -135 c 128,-1,91
 447 -135 447 -135 472 -117 c 0,56,57
615 -45 m 0,92,93
 578 8 578 8 554 21 c 0,94,95
 546 25 546 25 546 19 c 0,96,97
 546 11 546 11 567 -17 c 128,-1,98
 588 -45 588 -45 610 -69 c 128,-1,99
 632 -93 632 -93 636 -90 c 0,100,101
 642 -83 642 -83 615 -45 c 0,92,93
666 8 m 0,102,103
 608 72 608 72 604 78 c 0,104,105
 600 82 600 82 600 74 c 0,106,107
 599 72 599 72 599 71 c 0,108,109
 599 62 599 62 626.5 27.5 c 128,-1,110
 654 -7 654 -7 683.5 -37 c 128,-1,111
 713 -67 713 -67 717 -63 c 0,112,113
 720 -60 720 -60 705 -39 c 128,-1,114
 690 -18 690 -18 666 8 c 0,102,103
319 32 m 0,115,116
 383 74 383 74 378 78 c 0,117,118
 364 79 364 79 291 32 c 0,119,120
 227 -10 227 -10 232 -15 c 1,121,122
 246 -15 246 -15 319 32 c 0,115,116
760 16 m 0,123,124
 760 20 760 20 710 66 c 0,125,126
 675 99 675 99 679 88 c 0,127,128
 682 79 682 79 718 35 c 0,129,130
 738 11 738 11 754 11 c 0,131,132
 760 11 760 11 760 16 c 0,123,124
271 87 m 0,133,134
 291 96 291 96 308 105 c 128,-1,135
 325 114 325 114 334 120 c 128,-1,136
 343 126 343 126 341 128 c 0,137,138
 336 133 336 133 260.5 100 c 128,-1,139
 185 67 185 67 185 59 c 256,140,141
 185 51 185 51 195 54 c 0,142,143
 207 58 207 58 271 87 c 0,133,134
794 92 m 0,144,145
 788 101 788 101 766.5 118 c 128,-1,146
 745 135 745 135 725.5 145.5 c 128,-1,147
 706 156 706 156 707 150 c 0,148,149
 707 145 707 145 719.5 133 c 128,-1,150
 732 121 732 121 750 109 c 0,151,152
 798 75 798 75 799 81 c 0,153,154
 799 83 799 83 794 92 c 0,144,145
222 158 m 0,155,156
 279 169 279 169 287 177 c 0,157,158
 293 183 293 183 236.5 278 c 128,-1,159
 180 373 180 373 170 373 c 0,160,161
 163 373 163 373 138 276 c 128,-1,162
 113 179 113 179 107 162 c 0,163,164
 102 148 102 148 130 147 c 0,165,166
 157 146 157 146 222 158 c 0,155,156
132 169 m 0,167,168
 133 200 133 200 152.5 263 c 128,-1,169
 172 326 172 326 180 329 c 0,170,171
 185 331 185 331 196.5 316.5 c 128,-1,172
 208 302 208 302 218 280 c 0,173,174
 242 226 242 226 261 210 c 0,175,176
 272 201 272 201 272.5 196 c 128,-1,177
 273 191 273 191 262 184 c 0,178,179
 235 167 235 167 222 180 c 128,-1,180
 209 193 209 193 197 249 c 0,181,182
 182 316 182 316 175 311 c 1,183,184
 170 297 170 297 183 238.5 c 128,-1,185
 196 180 196 180 180 170 c 0,186,187
 170 163 170 163 158.5 160.5 c 128,-1,188
 147 158 147 158 139 160.5 c 128,-1,189
 131 163 131 163 132 169 c 0,167,168
669 242 m 2,190,-1
 640 272 l 1,191,-1
 669 302 l 2,192,193
 693 330 693 330 684 333 c 0,194,195
 670 333 670 333 647 307 c 0,196,197
 629 287 629 287 622.5 288 c 128,-1,198
 616 289 616 289 597 313 c 0,199,200
 586 327 586 327 574 336.5 c 128,-1,201
 562 346 562 346 556 346 c 0,202,203
 543 346 543 346 571 316 c 0,204,205
 573 312 573 312 577 309 c 2,206,-1
 612 272 l 1,207,-1
 582 239 l 1,208,-1
 553 207 l 1,209,-1
 587 236 l 1,210,-1
 621 266 l 1,211,-1
 653 233 l 2,212,213
 666 219 666 219 677 211 c 128,-1,214
 688 203 688 203 691 206 c 128,-1,215
 694 209 694 209 687.5 219.5 c 128,-1,216
 681 230 681 230 669 242 c 2,190,-1
776 221 m 0,217,218
 793 237 793 237 801 236.5 c 128,-1,219
 809 236 809 236 829 218 c 2,220,-1
 858 193 l 1,221,-1
 836 225 l 2,222,223
 821 248 821 248 821 257 c 128,-1,224
 821 266 821 266 837 285 c 2,225,-1
 853 306 l 1,226,227
 851 306 851 306 834 290 c 0,228,229
 815 273 815 273 806.5 274 c 128,-1,230
 798 275 798 275 775 296 c 2,231,-1
 741 326 l 1,232,-1
 763 292 l 2,233,234
 778 267 778 267 777 257.5 c 128,-1,235
 776 248 776 248 756 228 c 0,236,237
 731 203 731 203 739 200 c 0,238,239
 748 196 748 196 776 221 c 0,217,218
802.5 336 m 128,-1,241
 787 352 787 352 787 338 c 128,-1,242
 787 324 787 324 795.5 315 c 128,-1,243
 804 306 804 306 811 313 c 128,-1,240
 818 320 818 320 802.5 336 c 128,-1,241
615 349 m 128,-1,245
 599 365 599 365 599 351 c 128,-1,246
 599 337 599 337 608 328.5 c 128,-1,247
 617 320 617 320 624 326.5 c 128,-1,244
 631 333 631 333 615 349 c 128,-1,245
290 391 m 0,248,249
 275 403 275 403 177 424 c 0,250,251
 135 432 135 432 139 427 c 0,252,253
 150 417 150 417 217 396.5 c 128,-1,254
 284 376 284 376 290 381 c 0,255,256
 296 387 296 387 290 391 c 0,248,249
278 425 m 0,257,258
 278 429 278 429 262 437 c 128,-1,259
 246 445 246 445 223 452 c 0,260,261
 168 469 168 469 146 477 c 0,262,263
 132 482 132 482 133 477 c 0,264,265
 133 475 133 475 135 472 c 0,266,267
 142 465 142 465 188 446 c 128,-1,268
 234 427 234 427 275 414 c 0,269,270
 276 414 276 414 276.5 415.5 c 128,-1,271
 277 417 277 417 277.5 419.5 c 128,-1,272
 278 422 278 422 278 425 c 0,257,258
292 494 m 0,273,274
 308 504 308 504 295 506 c 0,275,276
 289 507 289 507 278 507 c 0,277,278
 225 507 225 507 214.5 544 c 128,-1,279
 204 581 204 581 244 621 c 0,280,281
 306 683 306 683 334 620 c 0,282,283
 344 599 344 599 343 588.5 c 128,-1,284
 342 578 342 578 329 565 c 0,285,286
 320 556 320 556 309.5 552.5 c 128,-1,287
 299 549 299 549 293 553 c 0,288,289
 277 563 277 563 279.5 574.5 c 128,-1,290
 282 586 282 586 302 591 c 0,291,292
 323 597 323 597 302 599 c 0,293,294
 299 599 299 599 294 599 c 0,295,296
 275 600 275 600 270 594.5 c 128,-1,297
 265 589 265 589 267 570 c 0,298,299
 270 554 270 554 278 547 c 128,-1,300
 286 540 286 540 304 540 c 0,301,302
 324 540 324 540 338 552 c 128,-1,303
 352 564 352 564 355.5 581.5 c 128,-1,304
 359 599 359 599 355 617 c 128,-1,305
 351 635 351 635 337 649 c 128,-1,306
 323 663 323 663 302 665 c 0,307,308
 272 668 272 668 246.5 649.5 c 128,-1,309
 221 631 221 631 209 604 c 128,-1,310
 197 577 197 577 200.5 547.5 c 128,-1,311
 204 518 204 518 228 501 c 0,312,313
 254 483 254 483 263 482 c 128,-1,314
 272 481 272 481 292 494 c 0,273,274
728 534 m 0,315,316
 761 534 761 534 787.5 552 c 128,-1,317
 814 570 814 570 813 592 c 0,318,319
 813 604 813 604 802 589 c 0,320,321
 801 587 801 587 799 584 c 0,322,323
 785 560 785 560 745 560 c 0,324,325
 710 560 710 560 681.5 547 c 128,-1,326
 653 534 653 534 653 517 c 0,327,328
 653 502 653 502 667 516 c 0,329,330
 668 517 668 517 669 518 c 0,331,332
 676 524 676 524 693 529 c 128,-1,333
 710 534 710 534 728 534 c 0,315,316
692.5 601 m 128,-1,335
 708 601 708 601 724 607.5 c 128,-1,336
 740 614 740 614 748 624 c 0,337,338
 760 640 760 640 759 640 c 0,339,340
 757 640 757 640 747 631 c 0,341,342
 739 624 739 624 721 619 c 128,-1,343
 703 614 703 614 686 614 c 0,344,345
 656 614 656 614 634.5 601 c 128,-1,346
 613 588 613 588 613 570 c 0,347,348
 614 561 614 561 634 580 c 0,349,350
 642 588 642 588 659.5 594.5 c 128,-1,334
 677 601 677 601 692.5 601 c 128,-1,335
573 669 m 2,351,-1
 633 723 l 1,352,-1
 562 674 l 1,353,-1
 490 624 l 1,354,-1
 431 682 l 2,355,356
 375 736 375 736 372 728 c 0,357,358
 372 712 372 712 423.5 663 c 128,-1,359
 475 614 475 614 492 614 c 0,360,361
 500 614 500 614 524 630 c 128,-1,362
 548 646 548 646 573 669 c 2,351,-1
700 667 m 0,363,364
 703 673 703 673 701.5 677 c 128,-1,365
 700 681 700 681 694 681 c 128,-1,366
 688 681 688 681 684 677 c 128,-1,367
 680 673 680 673 680 667 c 0,368,369
 680 654 680 654 685.5 654 c 128,-1,370
 691 654 691 654 700 667 c 0,363,364
526 734 m 0,371,372
 548 760 548 760 539 761 c 0,373,374
 529 761 529 761 511 738 c 0,375,376
 499 721 499 721 493.5 721.5 c 128,-1,377
 488 722 488 722 472 741 c 0,378,379
 458 759 458 759 456 760 c 1,380,-1
 461 748 l 2,381,382
 462 744 462 744 465 738 c 0,383,384
 479 710 479 710 490.5 709.5 c 128,-1,385
 502 709 502 709 526 734 c 0,371,372
EndSplineSet
Validated: 33
EndChar

StartChar: H
Encoding: 72 72 10
Width: 876
GlyphClass: 2
Flags: W
LayerCount: 2
Fore
SplineSet
549 -93 m 1,0,-1
 549 13 l 1,1,-1
 506 13 l 2,2,3
 462 13 462 13 413 5 c 2,4,-1
 363 -3 l 1,5,-1
 363 -81 l 2,6,7
 363 -102 363 -102 362.5 -112.5 c 128,-1,8
 362 -123 362 -123 359 -135 c 128,-1,9
 356 -147 356 -147 353 -152 c 128,-1,10
 350 -157 350 -157 340 -162.5 c 128,-1,11
 330 -168 330 -168 321.5 -169.5 c 128,-1,12
 313 -171 313 -171 292.5 -172 c 128,-1,13
 272 -173 272 -173 254 -172.5 c 128,-1,14
 236 -172 236 -172 203 -171 c 2,15,-1
 103 -167 l 1,16,-1
 99 -89 l 2,17,18
 95 -12 95 -12 75 -5 c 0,19,20
 64 0 64 0 60 27.5 c 128,-1,21
 56 55 56 55 56 128 c 0,22,23
 56 209 56 209 60 231 c 128,-1,24
 64 253 64 253 78 253 c 0,25,26
 93 253 93 253 95 296.5 c 128,-1,27
 97 340 97 340 91 527 c 2,28,-1
 83 800 l 1,29,-1
 216 800 l 1,30,-1
 349 800 l 1,31,-1
 352 531 l 2,32,33
 355 334 355 334 360 304 c 0,34,35
 367 262 367 262 392 256 c 0,36,37
 405 253 405 253 475 262 c 0,38,39
 478 262 478 262 481 263 c 2,40,-1
 553 271 l 1,41,-1
 548 532 l 1,42,-1
 543 793 l 1,43,-1
 664 797 l 2,44,45
 709 797 709 797 733 798.5 c 128,-1,46
 757 800 757 800 770 796 c 128,-1,47
 783 792 783 792 787 787.5 c 128,-1,48
 791 783 791 783 794 770 c 0,49,50
 802 740 802 740 802 270 c 2,51,-1
 803 -200 l 1,52,-1
 676 -200 l 1,53,-1
 549 -200 l 1,54,-1
 549 -93 l 1,0,-1
290 -103 m 0,55,56
 316 -75 316 -75 315 -74.5 c 128,-1,57
 314 -74 314 -74 295 -90 c 0,58,59
 264 -117 264 -117 250.5 -118 c 128,-1,60
 237 -119 237 -119 213 -98 c 0,61,62
 196 -82 196 -82 188 -83 c 128,-1,63
 180 -84 180 -84 159 -107 c 2,64,-1
 129 -139 l 1,65,-1
 160 -114 l 2,66,67
 182 -95 182 -95 190 -95.5 c 128,-1,68
 198 -96 198 -96 219 -118 c 0,69,70
 249 -147 249 -147 250 -147 c 128,-1,71
 251 -147 251 -147 290 -103 c 0,55,56
676 -114 m 2,72,73
 716 -147 716 -147 724 -147 c 0,74,75
 733 -147 733 -147 747.5 -111 c 128,-1,76
 762 -75 762 -75 756 -69 c 0,77,78
 751 -64 751 -64 744 -81 c 0,79,80
 742 -85 742 -85 741 -91 c 0,81,82
 733 -118 733 -118 719.5 -118 c 128,-1,83
 706 -118 706 -118 669 -91 c 2,84,-1
 630 -62 l 1,85,-1
 604 -95 l 2,86,87
 577 -127 577 -127 577 -140 c 0,88,89
 577 -151 577 -151 602 -123 c 0,90,91
 604 -121 604 -121 606 -118 c 2,92,-1
 636 -82 l 1,93,-1
 676 -114 l 2,72,73
336 -41 m 256,94,95
 336 -36 336 -36 289 -35.5 c 128,-1,96
 242 -35 242 -35 192.5 -39 c 128,-1,97
 143 -43 143 -43 137 -48 c 0,98,99
 132 -53 132 -53 234 -53 c 0,100,101
 276 -53 276 -53 306 -49.5 c 128,-1,102
 336 -46 336 -46 336 -41 c 256,94,95
733 -17 m 0,103,104
 683 -12 683 -12 633 -17 c 0,105,106
 605 -20 605 -20 637 -21 c 0,107,108
 653 -22 653 -22 683 -22 c 0,109,110
 750 -22 750 -22 744 -19 c 0,111,112
 742 -18 742 -18 733 -17 c 0,103,104
166 163 m 2,113,-1
 217 242 l 1,114,-1
 293 148 l 2,115,116
 369 55 369 55 378.5 54 c 128,-1,117
 388 53 388 53 424 120 c 128,-1,118
 460 187 460 187 468 186.5 c 128,-1,119
 476 186 476 186 514 117 c 2,120,-1
 552 49 l 1,121,-1
 597 121 l 2,122,123
 642 193 642 193 642 203 c 0,124,125
 643 241 643 241 723 141 c 0,126,127
 739 121 739 121 753 105 c 128,-1,128
 767 89 767 89 776 80.5 c 128,-1,129
 785 72 785 72 787 73 c 0,130,131
 792 79 792 79 728.5 159.5 c 128,-1,132
 665 240 665 240 655 240 c 0,133,134
 651 240 651 240 634.5 216 c 128,-1,135
 618 192 618 192 599 158 c 2,136,-1
 553 76 l 1,137,-1
 516 145 l 2,138,139
 490 192 490 192 480.5 199.5 c 128,-1,140
 471 207 471 207 456 193 c 0,141,142
 433 173 433 173 408 126.5 c 128,-1,143
 383 80 383 80 375 80 c 128,-1,144
 367 80 367 80 297 167 c 0,145,146
 268 202 268 202 244 227.5 c 128,-1,147
 220 253 220 253 216 253 c 0,148,149
 204 253 204 253 176 211.5 c 128,-1,150
 148 170 148 170 118 107 c 0,151,152
 93 56 93 56 96 56 c 256,153,154
 99 56 99 56 166 163 c 2,113,-1
216.5 119 m 128,-1,156
 217 140 217 140 256 93 c 0,157,158
 292 51 292 51 295 60 c 0,159,160
 295 78 295 78 262 113 c 128,-1,161
 229 148 229 148 219 142 c 0,162,163
 205 133 205 133 191 90 c 0,164,165
 180 58 180 58 182 57 c 0,166,167
 183 56 183 56 192 67 c 0,168,169
 194 69 194 69 196 73 c 0,170,155
 216 98 216 98 216.5 119 c 128,-1,156
243 67 m 0,171,172
 243 72 243 72 238.5 76 c 128,-1,173
 234 80 234 80 228.5 80 c 128,-1,174
 223 80 223 80 221 76 c 128,-1,175
 219 72 219 72 223 67 c 0,176,177
 231 53 231 53 237 53 c 128,-1,178
 243 53 243 53 243 67 c 0,171,172
473.5 107 m 128,-1,180
 481 107 481 107 487 86 c 2,181,-1
 492 75 l 1,182,183
 492 77 492 77 491 89 c 0,184,185
 489 115 489 115 472 115.5 c 128,-1,186
 455 116 455 116 443 91 c 0,187,188
 433 71 433 71 433 69 c 128,-1,189
 433 67 433 67 443 79 c 0,190,191
 445 81 445 81 447 83 c 0,192,179
 466 107 466 107 473.5 107 c 128,-1,180
671 120 m 0,193,194
 688 120 688 120 680 101 c 0,195,196
 676 92 676 92 666.5 82.5 c 128,-1,197
 657 73 657 73 657 70 c 128,-1,198
 657 67 657 67 667 67 c 0,199,200
 673 67 673 67 678 71 c 128,-1,201
 683 75 683 75 683 82 c 0,202,203
 683 97 683 97 703 80 c 0,204,205
 730 57 730 57 729 70 c 256,206,207
 728 83 728 83 703 106 c 0,208,209
 683 126 683 126 672.5 128.5 c 128,-1,210
 662 131 662 131 650 120 c 0,211,212
 641 113 641 113 635.5 102 c 128,-1,213
 630 91 630 91 630 82 c 0,214,215
 631 60 631 60 646 90 c 0,216,217
 652 102 652 102 659.5 111 c 128,-1,218
 667 120 667 120 671 120 c 0,193,194
396 203 m 0,219,220
 412 236 412 236 411.5 237.5 c 128,-1,221
 411 239 411 239 395 222 c 0,222,223
 394 220 394 220 392 217 c 0,224,225
 378 201 378 201 369 198 c 128,-1,226
 360 195 360 195 351 203 c 0,227,228
 336 219 336 219 336 205 c 0,229,230
 336 196 336 196 350.5 178 c 128,-1,231
 365 160 365 160 372 160 c 0,232,233
 375 160 375 160 396 203 c 0,219,220
589 199 m 0,234,235
 608 235 608 235 601 236 c 0,236,237
 596 237 596 237 583 219 c 0,238,239
 569 200 569 200 564 200 c 128,-1,240
 559 200 559 200 544 220 c 0,241,242
 525 244 525 244 523 236 c 0,243,244
 523 221 523 221 538 197 c 128,-1,245
 553 173 553 173 563 173 c 0,246,247
 568 173 568 173 575.5 180.5 c 128,-1,248
 583 188 583 188 589 199 c 0,234,235
323 309 m 128,-1,250
 323 314 323 314 316 317 c 128,-1,251
 309 320 309 320 299 320 c 0,252,253
 276 320 276 320 229 328 c 0,254,255
 183 335 183 335 159 318 c 0,256,257
 143 305 143 305 159 302 c 0,258,259
 173 300 173 300 229 299 c 0,260,261
 268 299 268 299 295.5 301.5 c 128,-1,249
 323 304 323 304 323 309 c 128,-1,250
770 310 m 0,262,263
 776 316 776 316 762 319 c 0,264,265
 756 320 756 320 747 320 c 0,266,267
 713 320 713 320 674.5 327.5 c 128,-1,268
 636 335 636 335 613 318 c 0,269,270
 596 305 596 305 612 302 c 0,271,272
 624 300 624 300 675 300 c 0,273,274
 760 300 760 300 770 310 c 0,262,263
317 381 m 0,275,276
 335 396 335 396 336 398 c 1,277,-1
 323 395 l 2,278,279
 321 394 321 394 316 393 c 0,280,281
 293 384 293 384 271.5 384 c 128,-1,282
 250 384 250 384 194 394 c 0,283,284
 139 403 139 403 130 388 c 0,285,286
 122 376 122 376 139 378 c 0,287,288
 144 378 144 378 152 380 c 0,289,290
 183 388 183 388 216 375 c 0,291,292
 252 361 252 361 273.5 362 c 128,-1,293
 295 363 295 363 317 381 c 0,275,276
746 368 m 0,294,295
 758 372 758 372 767 377.5 c 128,-1,296
 776 383 776 383 776 387.5 c 128,-1,297
 776 392 776 392 767.5 392.5 c 128,-1,298
 759 393 759 393 747.5 388.5 c 128,-1,299
 736 384 736 384 710 385 c 128,-1,300
 684 386 684 386 660 391 c 0,301,302
 602 405 602 405 588 391 c 0,303,304
 578 380 578 380 590 381 c 0,305,306
 595 381 595 381 605 383 c 0,307,308
 636 388 636 388 669 375 c 0,309,310
 700 363 700 363 709.5 362 c 128,-1,311
 719 361 719 361 746 368 c 0,294,295
323 438 m 0,312,313
 323 447 323 447 279.5 447.5 c 128,-1,314
 236 448 236 448 202.5 458 c 128,-1,315
 169 468 169 468 143 447 c 0,316,317
 125 433 125 433 124.5 431 c 128,-1,318
 124 429 124 429 140 435 c 0,319,320
 143 436 143 436 149 438 c 0,321,322
 183 450 183 450 229 434 c 0,323,324
 263 422 263 422 293 423.5 c 128,-1,325
 323 425 323 425 323 438 c 0,312,313
776 442 m 0,326,327
 776 447 776 447 766 448 c 128,-1,328
 756 449 756 449 742.5 445.5 c 128,-1,329
 729 442 729 442 707.5 444 c 128,-1,330
 686 446 686 446 670 453 c 0,331,332
 642 465 642 465 609 461 c 128,-1,333
 576 457 576 457 576 441 c 0,334,335
 576 437 576 437 587 435.5 c 128,-1,336
 598 434 598 434 613 437 c 0,337,338
 649 442 649 442 681 430 c 0,339,340
 709 420 709 420 742.5 424 c 128,-1,341
 776 428 776 428 776 442 c 0,326,327
292 512.5 m 128,-1,343
 295 515 295 515 251 618 c 2,344,-1
 206 721 l 1,345,-1
 172 630 l 2,346,347
 138 540 138 540 130 519 c 0,348,349
 129 512 129 512 128.5 508 c 128,-1,350
 128 504 128 504 138 502.5 c 128,-1,351
 148 501 148 501 162.5 501.5 c 128,-1,352
 177 502 177 502 206 504 c 0,353,342
 289 510 289 510 292 512.5 c 128,-1,343
149 524 m 0,354,355
 149 543 149 543 195 634 c 0,356,357
 213 668 213 668 215 666 c 0,358,359
 216 645 216 645 248 582 c 2,360,-1
 279 520 l 1,361,-1
 214 520 l 2,362,363
 149 520 149 520 149 524 c 0,354,355
704 608 m 2,364,365
 663 706 663 706 655 706 c 0,366,367
 649 707 649 707 612.5 617 c 128,-1,368
 576 527 576 527 576 512 c 0,369,370
 576 507 576 507 601 505 c 128,-1,371
 626 503 626 503 661 504 c 2,372,-1
 746 509 l 1,373,-1
 704 608 l 2,364,365
615 577 m 2,374,375
 640 633 640 633 646 653 c 0,376,377
 650 669 650 669 674 626 c 0,378,379
 678 617 678 617 683 607 c 0,380,381
 715 540 715 540 719.5 532 c 128,-1,382
 724 524 724 524 657 522 c 2,383,-1
 591 521 l 1,384,-1
 615 577 l 2,374,375
149 605 m 256,385,386
 149 610 149 610 129 618 c 0,387,388
 114 624 114 624 114 618 c 0,389,390
 114 616 114 616 116 613 c 0,391,392
 124 600 124 600 141 600 c 0,393,394
 149 600 149 600 149 605 c 256,385,386
323 658 m 0,395,396
 323 670 323 670 306 650 c 0,397,398
 305 648 305 648 303 646 c 0,399,400
 284 620 284 620 284 607 c 0,401,402
 284 595 284 595 300 615 c 0,403,404
 301 617 301 617 303 619 c 0,405,406
 323 645 323 645 323 658 c 0,395,396
589 606 m 128,-1,408
 589 612 589 612 576 620 c 0,409,410
 571 623 571 623 567 621.5 c 128,-1,411
 563 620 563 620 563 614 c 128,-1,412
 563 608 563 608 567 604 c 128,-1,413
 571 600 571 600 576 600 c 0,414,407
 589 600 589 600 589 606 c 128,-1,408
163 658 m 0,415,416
 163 663 163 663 139 682 c 0,417,418
 123 694 123 694 122.5 693.5 c 128,-1,419
 122 693 122 693 134 677 c 0,420,421
 163 641 163 641 163 658 c 0,415,416
592 683 m 128,-1,423
 576 699 576 699 576 685 c 0,424,425
 576 676 576 676 580.5 668.5 c 128,-1,426
 585 661 585 661 590.5 659 c 128,-1,427
 596 657 596 657 601 660 c 0,428,422
 608 667 608 667 592 683 c 128,-1,423
296 695 m 0,429,430
 296 700 296 700 292 701.5 c 128,-1,431
 288 703 288 703 283 700 c 0,432,433
 269 692 269 692 269 678 c 0,434,435
 269 673 269 673 273 671.5 c 128,-1,436
 277 670 277 670 283 673 c 0,437,438
 296 682 296 682 296 695 c 0,429,430
741 686 m 0,439,440
 748 705 748 705 729 698 c 0,441,442
 721 695 721 695 715 689 c 128,-1,443
 709 683 709 683 709 679 c 0,444,445
 709 663 709 663 723 667 c 0,446,447
 735 671 735 671 741 686 c 0,439,440
266 770 m 0,448,449
 216 775 216 775 166 770 c 0,450,451
 139 767 139 767 170 765 c 0,452,453
 187 764 187 764 216 764 c 0,454,455
 283 764 283 764 277 768 c 0,456,457
 276 769 276 769 266 770 c 0,448,449
706 770 m 0,458,459
 655 775 655 775 612 770 c 0,460,461
 591 767 591 767 616 765 c 0,462,463
 632 764 632 764 663 764 c 0,464,465
 721 764 721 764 718 767 c 0,466,467
 717 769 717 769 706 770 c 0,458,459
EndSplineSet
Validated: 33
EndChar

StartChar: I
Encoding: 73 73 11
Width: 418
GlyphClass: 1
Flags: W
LayerCount: 2
Fore
SplineSet
74 300 m 1,0,-1
 74 800 l 1,1,-1
 208 800 l 1,2,-1
 342 800 l 1,3,-1
 342 300 l 1,4,-1
 342 -200 l 1,5,-1
 208 -200 l 1,6,-1
 74 -200 l 1,7,-1
 74 300 l 1,0,-1
259 -90 m 2,8,9
 308 -144 308 -144 312 -137 c 1,10,11
 312 -123 312 -123 263 -67 c 2,12,-1
 215 -12 l 1,13,-1
 171 -53 l 2,14,15
 128 -94 128 -94 114 -123 c 0,16,17
 111 -130 111 -130 115 -128 c 0,18,19
 123 -125 123 -125 153 -90 c 2,20,-1
 206 -29 l 1,21,-1
 259 -90 l 2,8,9
251 72 m 2,22,23
 270 50 270 50 285.5 36 c 128,-1,24
 301 22 301 22 304 25 c 128,-1,25
 307 28 307 28 294.5 46.5 c 128,-1,26
 282 65 282 65 263 88 c 2,27,-1
 215 143 l 1,28,-1
 171 102 l 2,29,30
 128 61 128 61 114 32 c 0,31,32
 111 25 111 25 115 27 c 0,33,34
 124 30 124 30 154 65 c 2,35,-1
 206 126 l 1,36,-1
 251 72 l 2,22,23
251 227 m 2,37,38
 270 205 270 205 285.5 191 c 128,-1,39
 301 177 301 177 304 180 c 128,-1,40
 307 183 307 183 294.5 201.5 c 128,-1,41
 282 220 282 220 263 243 c 2,42,-1
 215 298 l 1,43,-1
 171 257 l 2,44,45
 128 215 128 215 114 187 c 0,46,47
 111 180 111 180 115 181 c 0,48,49
 124 185 124 185 154 220 c 2,50,-1
 206 281 l 1,51,-1
 251 227 l 2,37,38
259 375 m 2,52,53
 308 320 308 320 312 328 c 1,54,55
 312 342 312 342 263 398 c 2,56,-1
 215 453 l 1,57,-1
 171 412 l 2,58,59
 128 370 128 370 114 342 c 0,60,61
 111 335 111 335 115 336 c 0,62,63
 123 340 123 340 153 375 c 2,64,-1
 206 435 l 1,65,-1
 259 375 l 2,52,53
251 537 m 2,66,67
 270 515 270 515 285.5 501 c 128,-1,68
 301 487 301 487 304 490 c 128,-1,69
 307 493 307 493 294.5 511.5 c 128,-1,70
 282 530 282 530 263 553 c 2,71,-1
 215 608 l 1,72,-1
 171 567 l 2,73,74
 128 525 128 525 114 497 c 0,75,76
 111 490 111 490 115 491 c 0,77,78
 124 495 124 495 154 530 c 2,79,-1
 206 591 l 1,80,-1
 251 537 l 2,66,67
251 692 m 2,81,82
 270 670 270 670 285.5 656 c 128,-1,83
 301 642 301 642 304 645 c 128,-1,84
 307 648 307 648 294.5 666.5 c 128,-1,85
 282 685 282 685 263 707 c 2,86,-1
 215 763 l 1,87,-1
 171 722 l 2,88,89
 128 680 128 680 114 652 c 0,90,91
 111 644 111 644 115 646 c 0,92,93
 124 650 124 650 154 685 c 2,94,-1
 206 746 l 1,95,-1
 251 692 l 2,81,82
EndSplineSet
Validated: 33
EndChar

StartChar: J
Encoding: 74 74 12
Width: 894
GlyphClass: 1
Flags: W
LayerCount: 2
Fore
SplineSet
131 -186 m 0,0,1
 63 -167 63 -167 49 -153.5 c 128,-1,2
 35 -140 35 -140 79 -25 c 2,3,-1
 123 90 l 1,4,-1
 182 68 l 2,5,6
 239 50 239 50 289 56.5 c 128,-1,7
 339 63 339 63 381 97 c 128,-1,8
 423 131 423 131 453.5 183 c 128,-1,9
 484 235 484 235 501 308.5 c 128,-1,10
 518 382 518 382 518 467 c 2,11,-1
 518 545 l 1,12,-1
 319 545 l 1,13,-1
 121 545 l 1,14,-1
 121 672 l 1,15,-1
 121 800 l 1,16,-1
 479 796 l 1,17,-1
 836 792 l 1,18,-1
 840 669 l 2,19,20
 843 582 843 582 839.5 563.5 c 128,-1,21
 836 545 836 545 816 545 c 2,22,23
 816 545 816 545 815 545 c 0,24,25
 793 545 793 545 786 518 c 128,-1,26
 779 491 779 491 760 331 c 0,27,28
 760 328 760 328 760 327 c 0,29,30
 740 160 740 160 653 24.5 c 128,-1,31
 566 -111 566 -111 446 -162 c 0,32,33
 378 -191 378 -191 288 -198 c 128,-1,34
 198 -205 198 -205 131 -186 c 0,0,1
180 -16 m 2,35,-1
 204 14 l 1,36,-1
 251 -30 l 2,37,38
 290 -67 290 -67 328.5 -94 c 128,-1,39
 367 -121 367 -121 379 -121 c 0,40,41
 383 -121 383 -121 389 -105 c 128,-1,42
 395 -89 395 -89 399 -66 c 0,43,44
 409 -2 409 -2 422.5 6.5 c 128,-1,45
 436 15 436 15 487 -10 c 0,46,47
 547 -39 547 -39 552 -34 c 0,48,49
 557 -28 557 -28 561 17 c 128,-1,50
 565 62 565 62 564.5 103 c 128,-1,51
 564 144 564 144 558.5 140.5 c 128,-1,52
 553 137 553 137 549.5 119.5 c 128,-1,53
 546 102 546 102 546 80 c 0,54,55
 545 16 545 16 529.5 4 c 128,-1,56
 514 -8 514 -8 468 19 c 0,57,58
 415 50 415 50 408.5 43.5 c 128,-1,59
 402 37 402 37 385 -35 c 2,60,-1
 369 -108 l 1,61,-1
 281 -37 l 1,62,-1
 194 34 l 1,63,-1
 143 -37 l 2,64,65
 90 -111 90 -111 94 -120 c 0,66,67
 96 -125 96 -125 119 -96 c 0,68,69
 122 -92 122 -92 125 -87 c 0,70,71
 157 -46 157 -46 180 -16 c 2,35,-1
475 -64 m 128,-1,73
 475 -58 475 -58 471 -54 c 128,-1,74
 467 -50 467 -50 461 -50 c 128,-1,75
 455 -50 455 -50 451 -54 c 128,-1,76
 447 -58 447 -58 447 -64 c 128,-1,77
 447 -70 447 -70 451 -74 c 128,-1,78
 455 -78 455 -78 461 -78 c 128,-1,79
 467 -78 467 -78 471 -74 c 128,-1,72
 475 -70 475 -70 475 -64 c 128,-1,73
348 -7.5 m 128,-1,81
 348 -2 348 -2 343.5 2.5 c 128,-1,82
 339 7 339 7 333.5 7 c 128,-1,83
 328 7 328 7 323.5 2.5 c 128,-1,84
 319 -2 319 -2 319 -7.5 c 128,-1,85
 319 -13 319 -13 323.5 -17.5 c 128,-1,86
 328 -22 328 -22 333.5 -22 c 128,-1,87
 339 -22 339 -22 343.5 -17.5 c 128,-1,80
 348 -13 348 -13 348 -7.5 c 128,-1,81
631 77.5 m 128,-1,89
 631 83 631 83 627 87.5 c 128,-1,90
 623 92 623 92 617 92 c 128,-1,91
 611 92 611 92 607 87.5 c 128,-1,92
 603 83 603 83 603 77.5 c 128,-1,93
 603 72 603 72 607 67.5 c 128,-1,94
 611 63 611 63 617 63 c 128,-1,95
 623 63 623 63 627 67.5 c 128,-1,88
 631 72 631 72 631 77.5 c 128,-1,89
688 147 m 0,96,97
 688 152 688 152 679.5 153.5 c 128,-1,98
 671 155 671 155 660 152 c 0,99,100
 648 149 648 149 628 156 c 128,-1,101
 608 163 608 163 590 175 c 0,102,103
 557 199 557 199 532 203.5 c 128,-1,104
 507 208 507 208 497 192 c 0,105,106
 493 186 493 186 507 182 c 0,107,108
 514 180 514 180 524 180 c 0,109,110
 537 180 537 180 557 173.5 c 128,-1,111
 577 167 577 167 590 157 c 0,112,113
 607 145 607 145 630.5 138.5 c 128,-1,114
 654 132 654 132 671 134.5 c 128,-1,115
 688 137 688 137 688 147 c 0,96,97
716 220 m 0,116,117
 730 230 730 230 719 230 c 0,118,119
 711 230 711 230 690 226 c 0,120,121
 644 216 644 216 610 239 c 0,122,123
 591 251 591 251 569.5 257 c 128,-1,124
 548 263 548 263 533 261 c 128,-1,125
 518 259 518 259 518 249 c 0,126,127
 518 243 518 243 525 241.5 c 128,-1,128
 532 240 532 240 542.5 242.5 c 128,-1,129
 553 245 553 245 568.5 240.5 c 128,-1,130
 584 236 584 236 595 227 c 0,131,132
 620 208 620 208 656.5 206 c 128,-1,133
 693 204 693 204 716 220 c 0,116,117
709 290 m 0,134,135
 712 296 712 296 710.5 300 c 128,-1,136
 709 304 709 304 702.5 304 c 128,-1,137
 696 304 696 304 692 300 c 128,-1,138
 688 296 688 296 688 290 c 0,139,140
 688 276 688 276 694 276 c 128,-1,141
 700 276 700 276 709 290 c 0,134,135
617 304 m 0,142,143
 617 318 617 318 610.5 318 c 128,-1,144
 604 318 604 318 595 304 c 0,145,146
 592 298 592 298 594 294 c 128,-1,147
 596 290 596 290 602 290 c 128,-1,148
 608 290 608 290 612.5 294 c 128,-1,149
 617 298 617 298 617 304 c 0,142,143
546 318 m 0,150,151
 546 332 546 332 539.5 332 c 128,-1,152
 533 332 533 332 525 318 c 0,153,154
 521 312 521 312 523 308 c 128,-1,155
 525 304 525 304 531 304 c 128,-1,156
 537 304 537 304 541.5 308 c 128,-1,157
 546 312 546 312 546 318 c 0,150,151
652 375 m 0,158,159
 656 381 656 381 654 385 c 128,-1,160
 652 389 652 389 646 389 c 128,-1,161
 640 389 640 389 635.5 385 c 128,-1,162
 631 381 631 381 631 375 c 0,163,164
 631 361 631 361 637 361 c 128,-1,165
 643 361 643 361 652 375 c 0,158,159
738 440 m 0,166,167
 757 455 757 455 758 457 c 256,168,169
 759 459 759 459 755 458 c 256,170,171
 751 457 751 457 737 452 c 0,172,173
 689 435 689 435 670.5 435 c 128,-1,174
 652 435 652 435 628 451 c 0,175,176
 605 466 605 466 595 466.5 c 128,-1,177
 585 467 585 467 566 452 c 0,178,179
 543 433 543 433 549 433 c 0,180,181
 552 433 552 433 570 439 c 0,182,183
 583 442 583 442 600 440.5 c 128,-1,184
 617 439 617 439 627 433 c 0,185,186
 654 417 654 417 684 418.5 c 128,-1,187
 714 420 714 420 738 440 c 0,166,167
744 495 m 0,188,189
 762 517 762 517 750 516 c 0,190,191
 741 514 741 514 718 500 c 0,192,193
 704 491 704 491 689 492.5 c 128,-1,194
 674 494 674 494 648 508 c 0,195,196
 622 521 622 521 606 523 c 128,-1,197
 590 525 590 525 574 516 c 0,198,199
 546 501 546 501 546 494 c 128,-1,200
 546 487 546 487 574 502 c 0,201,202
 591 511 591 511 603.5 509.5 c 128,-1,203
 616 508 616 508 634 496 c 0,204,205
 664 475 664 475 695.5 475 c 128,-1,206
 727 475 727 475 744 495 c 0,188,189
627 711 m 0,207,208
 624 739 624 739 622 711 c 0,209,210
 621 695 621 695 621 665 c 0,211,212
 621 597 621 597 625 602 c 0,213,214
 626 603 626 603 627 612 c 0,215,216
 633 657 633 657 627 711 c 0,207,208
160 725 m 0,217,218
 157 753 157 753 155 725 c 0,219,220
 154 709 154 709 154 679 c 0,221,222
 154 611 154 611 158 616 c 0,223,224
 159 617 159 617 160 626 c 0,225,226
 165 671 165 671 160 725 c 0,217,218
206 674 m 0,227,228
 206 757 206 757 200 754 c 256,229,230
 194 751 194 751 191 679 c 0,231,232
 189 619 189 619 190 603 c 128,-1,233
 191 587 191 587 199 587 c 0,234,235
 206 587 206 587 206 674 c 0,227,228
305 601 m 0,236,237
 305 607 305 607 299.5 611 c 128,-1,238
 294 615 294 615 286 615 c 0,239,240
 263 615 263 615 248.5 638.5 c 128,-1,241
 234 662 234 662 241 686 c 0,242,243
 250 715 250 715 286 715 c 0,244,245
 307 715 307 715 313.5 708.5 c 128,-1,246
 320 702 320 702 317 684 c 0,247,248
 315 671 315 671 308 660 c 128,-1,249
 301 649 301 649 292 647 c 0,250,251
 282 643 282 643 279 648.5 c 128,-1,252
 276 654 276 654 281 670 c 0,253,254
 284 683 284 683 282.5 691.5 c 128,-1,255
 281 700 281 700 276 700 c 0,256,257
 265 700 265 700 263 685.5 c 128,-1,258
 261 671 261 671 267.5 655 c 128,-1,259
 274 639 274 639 285 634 c 0,260,261
 310 625 310 625 331.5 649.5 c 128,-1,262
 353 674 353 674 339 696 c 0,263,264
 296 765 296 765 249 722 c 0,265,266
 219 695 219 695 223.5 659 c 128,-1,267
 228 623 228 623 263 605 c 0,268,269
 301 586 301 586 304 590 c 0,270,271
 305 592 305 592 305 601 c 0,236,237
396 684 m 0,272,273
 405 766 405 766 394 766 c 0,274,275
 393 766 393 766 391 765 c 0,276,277
 385 761 385 761 380.5 733 c 128,-1,278
 376 705 376 705 376 669 c 0,279,280
 376 587 376 587 381.5 592 c 128,-1,281
 387 597 387 597 396 684 c 0,272,273
429 718 m 0,282,283
 426 744 426 744 424 713 c 0,284,285
 423 698 423 698 423 672 c 0,286,287
 423 612 423 612 426 615 c 0,288,289
 428 616 428 616 429 626 c 0,290,291
 434 672 434 672 429 718 c 0,282,283
672 676 m 0,292,293
 670 745 670 745 666 742 c 0,294,295
 662 738 662 738 656 654 c 0,296,297
 654 627 654 627 656 607 c 128,-1,298
 658 587 658 587 662.5 587 c 128,-1,299
 667 587 667 587 669.5 613 c 128,-1,300
 672 639 672 639 672 676 c 0,292,293
748 604 m 0,301,302
 715 620 715 620 707.5 649 c 128,-1,303
 700 678 700 678 724 696 c 0,304,305
 750 715 750 715 765 710 c 256,306,307
 780 705 780 705 779 673 c 0,308,309
 778 646 778 646 765 647 c 0,310,311
 760 649 760 649 756 655 c 128,-1,312
 752 661 752 661 753 668.5 c 128,-1,313
 754 676 754 676 751 681 c 128,-1,314
 748 686 748 686 743 686 c 0,315,316
 733 686 733 686 730.5 672.5 c 128,-1,317
 728 659 728 659 734 644 c 128,-1,318
 740 629 740 629 751 625 c 0,319,320
 766 619 766 619 790.5 637 c 128,-1,321
 815 655 815 655 815 672 c 0,322,323
 815 686 815 686 791 707.5 c 128,-1,324
 767 729 767 729 751 729 c 0,325,326
 730 729 730 729 709 705 c 128,-1,327
 688 681 688 681 688 658 c 0,328,329
 688 633 688 633 710 610 c 128,-1,330
 732 587 732 587 756 588 c 0,331,332
 775 589 775 589 762 597 c 0,333,334
 757 600 757 600 748 604 c 0,301,302
513 618 m 0,335,336
 489 627 489 627 482 637 c 128,-1,337
 475 647 475 647 478 670 c 0,338,339
 480 691 480 691 496 704 c 128,-1,340
 512 717 512 717 530 714.5 c 128,-1,341
 548 712 548 712 555 693 c 0,342,343
 564 669 564 669 547.5 653.5 c 128,-1,344
 531 638 531 638 514 656 c 0,345,346
 504 666 504 666 504.5 672.5 c 128,-1,347
 505 679 505 679 517.5 688 c 128,-1,348
 530 697 530 697 531 699 c 0,349,350
 533 700 533 700 528 699 c 0,351,352
 525 699 525 699 518 697 c 0,353,354
 495 691 495 691 492 667 c 128,-1,355
 489 643 489 643 510 635 c 0,356,357
 536 625 536 625 555 643 c 128,-1,358
 574 661 574 661 572.5 688.5 c 128,-1,359
 571 716 571 716 546 729 c 0,360,361
 519 743 519 743 491.5 730 c 128,-1,362
 464 717 464 717 454 685 c 0,363,364
 445 658 445 658 468.5 629.5 c 128,-1,365
 492 601 492 601 523 602 c 0,366,367
 539 603 539 603 540 605 c 128,-1,368
 541 607 541 607 529 612 c 0,369,370
 523 614 523 614 513 618 c 0,335,336
EndSplineSet
Validated: 33
EndChar

StartChar: K
Encoding: 75 75 13
Width: 956
GlyphClass: 1
Flags: W
LayerCount: 2
Fore
SplineSet
145 -190 m 0,0,1
 135 -181 135 -181 135 174 c 2,2,-1
 135 528 l 1,3,-1
 96 532 l 2,4,5
 67 536 67 536 61.5 551 c 128,-1,6
 56 566 56 566 52 649 c 0,7,8
 51 683 51 683 50.5 700.5 c 128,-1,9
 50 718 50 718 52.5 738 c 128,-1,10
 55 758 55 758 57.5 766.5 c 128,-1,11
 60 775 60 775 70.5 784 c 128,-1,12
 81 793 81 793 89.5 795 c 128,-1,13
 98 797 98 797 119.5 799 c 128,-1,14
 141 801 141 801 159.5 800 c 128,-1,15
 178 799 178 799 213 797 c 0,16,17
 343 789 343 789 368 788 c 0,18,19
 377 788 377 788 381.5 783 c 128,-1,20
 386 778 386 778 389 754.5 c 128,-1,21
 392 731 392 731 392.5 695.5 c 128,-1,22
 393 660 393 660 393 587 c 0,23,24
 393 504 393 504 396.5 445.5 c 128,-1,25
 400 387 400 387 404 387 c 0,26,27
 428 387 428 387 484.5 458 c 128,-1,28
 541 529 541 529 588.5 614 c 128,-1,29
 636 699 636 699 636 735 c 0,30,31
 637 756 637 756 640 767 c 128,-1,32
 643 778 643 778 650.5 786.5 c 128,-1,33
 658 795 658 795 676.5 797 c 128,-1,34
 695 799 695 799 719 798.5 c 128,-1,35
 743 798 743 798 786 794 c 2,36,-1
 911 784 l 1,37,-1
 901 718 l 2,38,39
 885 613 885 613 821 492 c 128,-1,40
 757 371 757 371 659 263 c 0,41,42
 622 222 622 222 611.5 203 c 128,-1,43
 601 184 601 184 611 176 c 0,44,45
 629 162 629 162 754 87.5 c 128,-1,46
 879 13 879 13 879 5.5 c 128,-1,47
 879 -2 879 -2 843 -64 c 0,48,49
 823 -98 823 -98 809 -110 c 128,-1,50
 795 -122 795 -122 780 -118 c 0,51,52
 769 -116 769 -116 753.5 -118.5 c 128,-1,53
 738 -121 738 -121 727 -128 c 0,54,55
 708 -140 708 -140 717 -140 c 0,56,57
 724 -140 724 -140 747 -135 c 0,58,59
 794 -126 794 -126 794 -135 c 0,60,61
 794 -151 794 -151 776.5 -175.5 c 128,-1,62
 759 -200 759 -200 748 -200 c 0,63,64
 732 -200 732 -200 577 -107 c 128,-1,65
 422 -14 422 -14 407 -14 c 0,66,67
 401 -14 401 -14 397 -38.5 c 128,-1,68
 393 -63 393 -63 393 -98 c 2,69,-1
 393 -182 l 1,70,-1
 339 -191 l 2,71,72
 286 -200 286 -200 220 -199.5 c 128,-1,73
 154 -199 154 -199 145 -190 c 0,0,1
298 -127 m 2,74,75
 330 -157 330 -157 344 -157 c 0,76,77
 355 -156 355 -156 320 -126 c 0,78,79
 317 -123 317 -123 314 -121 c 2,80,-1
 271 -86 l 1,81,-1
 314 -50 l 2,82,83
 352 -18 352 -18 344 -14 c 1,84,85
 330 -14 330 -14 297 -45 c 0,86,87
 273 -68 273 -68 264.5 -68.5 c 128,-1,88
 256 -69 256 -69 232 -49 c 2,89,-1
 200 -21 l 1,90,-1
 226 -52 l 2,91,92
 245 -75 245 -75 242.5 -83.5 c 128,-1,93
 240 -92 240 -92 208 -116 c 0,94,95
 190 -129 190 -129 177 -142.5 c 128,-1,96
 164 -156 164 -156 164 -161 c 0,97,98
 164 -173 164 -173 209 -141 c 0,99,100
 212 -138 212 -138 215 -136 c 2,101,-1
 266 -97 l 1,102,-1
 298 -127 l 2,74,75
278 -143 m 128,-1,104
 278 -137 278 -137 274 -132.5 c 128,-1,105
 270 -128 270 -128 264 -128 c 128,-1,106
 258 -128 258 -128 254 -132.5 c 128,-1,107
 250 -137 250 -137 250 -143 c 128,-1,108
 250 -149 250 -149 254 -153 c 128,-1,109
 258 -157 258 -157 264 -157 c 128,-1,110
 270 -157 270 -157 274 -153 c 128,-1,103
 278 -149 278 -149 278 -143 c 128,-1,104
200 -86 m 0,111,112
 203 -80 203 -80 199 -75.5 c 128,-1,113
 195 -71 195 -71 185.5 -71 c 128,-1,114
 176 -71 176 -71 171.5 -75.5 c 128,-1,115
 167 -80 167 -80 171 -86 c 0,116,117
 180 -100 180 -100 185.5 -100 c 128,-1,118
 191 -100 191 -100 200 -86 c 0,111,112
758 -63 m 0,119,120
 796 -47 796 -47 823.5 -32.5 c 128,-1,121
 851 -18 851 -18 851 -13 c 0,122,123
 850 -11 850 -11 839 -12.5 c 128,-1,124
 828 -14 828 -14 807.5 -21 c 128,-1,125
 787 -28 787 -28 763 -37 c 0,126,127
 744 -45 744 -45 735 -48.5 c 128,-1,128
 726 -52 726 -52 713 -56 c 128,-1,129
 700 -60 700 -60 695 -61.5 c 128,-1,130
 690 -63 690 -63 681.5 -61.5 c 128,-1,131
 673 -60 673 -60 670.5 -58.5 c 128,-1,132
 668 -57 668 -57 662 -49 c 128,-1,133
 656 -41 656 -41 654.5 -35.5 c 128,-1,134
 653 -30 653 -30 648 -15.5 c 128,-1,135
 643 -1 643 -1 641 10 c 128,-1,136
 639 21 639 21 634 43 c 0,137,138
 617 122 617 122 612.5 128 c 128,-1,139
 608 134 608 134 528 79 c 0,140,141
 507 65 507 65 489.5 51.5 c 128,-1,142
 472 38 472 38 463 29 c 128,-1,143
 454 20 454 20 456 18 c 0,144,145
 462 12 462 12 527 56 c 0,146,147
 592 101 592 101 602 98 c 0,148,149
 608 96 608 96 608 77 c 128,-1,150
 608 58 608 58 631 -21 c 128,-1,151
 654 -100 654 -100 660 -100 c 0,152,153
 664 -100 664 -100 758 -63 c 0,119,120
588 7 m 0,154,155
 582 23 582 23 553 19.5 c 128,-1,156
 524 16 524 16 513 -2 c 0,157,158
 509 -8 509 -8 519 -9 c 0,159,160
 528 -9 528 -9 542 -6 c 0,161,162
 566 0 566 0 573 -4.5 c 128,-1,163
 580 -9 580 -9 581 -30 c 0,164,165
 582 -50 582 -50 584 -51 c 0,166,167
 585 -52 585 -52 588 -42 c 0,168,169
 588 -40 588 -40 589 -38 c 0,170,171
 596 -12 596 -12 588 7 c 0,154,155
759 7 m 0,172,173
 782 25 782 25 772 28 c 0,174,175
 771 28 771 28 769 29 c 0,176,177
 752 29 752 29 743 15 c 0,178,179
 732 -4 732 -4 720.5 2.5 c 128,-1,180
 709 9 709 9 701 38 c 0,181,182
 692 69 692 69 685 68 c 1,183,184
 675 58 675 58 688 22 c 128,-1,185
 701 -14 701 -14 714 -14 c 0,186,187
 731 -14 731 -14 759 7 c 0,172,173
392 24 m 0,188,189
 397 28 397 28 371 29 c 0,190,191
 295 33 295 33 217 21 c 0,192,193
 197 17 197 17 193 14 c 0,194,195
 182 7 182 7 201 5 c 0,196,197
 221 4 221 4 278 9 c 0,198,199
 386 18 386 18 392 24 c 0,188,189
279 100 m 0,200,201
 245 164 245 164 293 258 c 0,202,203
 339 348 339 348 307 423 c 0,204,205
 298 444 298 444 295 411 c 0,206,207
 294 397 294 397 293 372 c 0,208,209
 293 340 293 340 286.5 306.5 c 128,-1,210
 280 273 280 273 271 258 c 0,211,212
 253 226 253 226 251 177.5 c 128,-1,213
 249 129 249 129 265 100 c 0,214,215
 279 72 279 72 286.5 72 c 128,-1,216
 294 72 294 72 279 100 c 0,200,201
207 100.5 m 128,-1,218
 207 106 207 106 202.5 110.5 c 128,-1,219
 198 115 198 115 192.5 115 c 128,-1,220
 187 115 187 115 182.5 110.5 c 128,-1,221
 178 106 178 106 178 100.5 c 128,-1,222
 178 95 178 95 182.5 90.5 c 128,-1,223
 187 86 187 86 192.5 86 c 128,-1,224
 198 86 198 86 202.5 90.5 c 128,-1,217
 207 95 207 95 207 100.5 c 128,-1,218
375 109 m 0,225,226
 366 118 366 118 347 110 c 0,227,228
 331 104 331 104 351 102 c 0,229,230
 353 102 353 102 356 102 c 0,231,232
 377 101 377 101 376 107 c 0,233,234
 376 108 376 108 375 109 c 0,225,226
542 190 m 0,235,236
 622 279 622 279 622 290 c 0,237,238
 622 295 622 295 592 298 c 128,-1,239
 562 301 562 301 520 301 c 2,240,-1
 418 301 l 1,241,-1
 427 234 l 2,242,243
 436 168 436 168 436 134 c 0,244,245
 436 120 436 120 440 110.5 c 128,-1,246
 444 101 444 101 449 101 c 128,-1,247
 454 101 454 101 481.5 127 c 128,-1,248
 509 153 509 153 542 190 c 0,235,236
454 153 m 0,249,250
 455 179 455 179 445 219 c 0,251,252
 436 256 436 256 443 255.5 c 128,-1,253
 450 255 450 255 477 217 c 0,254,255
 499 187 499 187 499 178 c 128,-1,256
 499 169 499 169 479 151 c 0,257,258
 456 130 456 130 454 135 c 0,259,260
 453 138 453 138 454 153 c 0,249,250
481 244 m 2,261,-1
 449 287 l 1,262,-1
 522 287 l 1,263,-1
 594 287 l 1,264,-1
 562 244 l 2,265,266
 531 201 531 201 522 201 c 128,-1,267
 513 201 513 201 481 244 c 2,261,-1
536 244 m 0,268,269
 536 250 536 250 531.5 254 c 128,-1,270
 527 258 527 258 521 258 c 128,-1,271
 515 258 515 258 513 254 c 128,-1,272
 511 250 511 250 515 244 c 0,273,274
 523 229 523 229 529.5 229 c 128,-1,275
 536 229 536 229 536 244 c 0,268,269
350 186 m 128,-1,277
 350 192 350 192 346 196.5 c 128,-1,278
 342 201 342 201 336 201 c 128,-1,279
 330 201 330 201 325.5 196.5 c 128,-1,280
 321 192 321 192 321 186 c 128,-1,281
 321 180 321 180 325.5 176 c 128,-1,282
 330 172 330 172 336 172 c 128,-1,283
 342 172 342 172 346 176 c 128,-1,276
 350 180 350 180 350 186 c 128,-1,277
207 358 m 128,-1,285
 207 364 207 364 202.5 368 c 128,-1,286
 198 372 198 372 192.5 372 c 128,-1,287
 187 372 187 372 182.5 368 c 128,-1,288
 178 364 178 364 178 358 c 128,-1,289
 178 352 178 352 182.5 348 c 128,-1,290
 187 344 187 344 192.5 344 c 128,-1,291
 198 344 198 344 202.5 348 c 128,-1,284
 207 352 207 352 207 358 c 128,-1,285
379 364.5 m 128,-1,293
 379 371 379 371 364 380 c 0,294,295
 358 383 358 383 354 381.5 c 128,-1,296
 350 380 350 380 350 373.5 c 128,-1,297
 350 367 350 367 354 362.5 c 128,-1,298
 358 358 358 358 364 358 c 0,299,292
 379 358 379 358 379 364.5 c 128,-1,293
705.5 380 m 128,-1,301
 710 384 710 384 695 439 c 0,302,303
 681 493 681 493 665 555 c 0,304,305
 659 580 659 580 651 598 c 128,-1,306
 643 616 643 616 638.5 616 c 128,-1,307
 634 616 634 616 621.5 598 c 128,-1,308
 609 580 609 580 597 555 c 0,309,310
 566 494 566 494 512 424 c 2,311,-1
 459 355 l 1,312,-1
 580 365 l 2,313,300
 701 376 701 376 705.5 380 c 128,-1,301
528 420 m 2,314,315
 568 473 568 473 575 473 c 128,-1,316
 582 473 582 473 618 444 c 0,317,318
 654 416 654 416 660 422 c 0,319,320
 668 429 668 429 630 461 c 0,321,322
 602 485 602 485 599.5 496.5 c 128,-1,323
 597 508 597 508 613 544 c 0,324,325
 627 578 627 578 633 579 c 0,326,327
 639 579 639 579 646 557 c 0,328,329
 652 541 652 541 663 494 c 0,330,331
 670 462 670 462 672.5 445 c 128,-1,332
 675 428 675 428 675 414.5 c 128,-1,333
 675 401 675 401 667 396 c 128,-1,334
 659 391 659 391 648 389 c 128,-1,335
 637 387 637 387 616 387 c 0,336,337
 557 386 557 386 523 377 c 2,338,-1
 488 368 l 1,339,-1
 528 420 l 2,314,315
589 424 m 0,340,341
 581 433 581 433 562 425 c 0,342,343
 546 419 546 419 565 417 c 0,344,345
 568 417 568 417 571 416 c 0,346,347
 592 416 592 416 591 422 c 0,348,349
 590 423 590 423 589 424 c 0,340,341
364 497.5 m 128,-1,351
 364 502 364 502 335 505 c 128,-1,352
 306 508 306 508 265 508 c 0,353,354
 172 508 172 508 173 498 c 1,355,356
 180 487 180 487 272 487 c 0,357,358
 310 487 310 487 337 490 c 128,-1,350
 364 493 364 493 364 497.5 c 128,-1,351
817 608 m 0,359,360
 839 653 839 653 852.5 686.5 c 128,-1,361
 866 720 866 720 863 723 c 0,362,363
 856 730 856 730 805 735.5 c 128,-1,364
 754 741 754 741 713 741.5 c 128,-1,365
 672 742 672 742 665 736 c 0,366,367
 665 731 665 731 686 713 c 128,-1,368
 707 695 707 695 736 675 c 2,369,-1
 807 627 l 1,370,-1
 784 582 l 1,371,-1
 760 537 l 1,372,-1
 727 612 l 2,373,374
 694 688 694 688 683 688 c 0,375,376
 677 687 677 687 687 655 c 0,377,378
 699 615 699 615 725 558 c 128,-1,379
 751 501 751 501 757 501 c 0,380,381
 764 501 764 501 817 608 c 0,359,360
753 687 m 2,382,-1
 704 728 l 1,383,-1
 767 720 l 2,384,385
 773 719 773 719 783 718 c 0,386,387
 823 713 823 713 829 708.5 c 128,-1,388
 835 704 835 704 829 684 c 0,389,390
 828 679 828 679 827 676 c 0,391,392
 823 659 823 659 819.5 653 c 128,-1,393
 816 647 816 647 807.5 648 c 128,-1,394
 799 649 799 649 788 657.5 c 128,-1,395
 777 666 777 666 753 687 c 2,382,-1
815 687 m 0,396,397
 819 693 819 693 817 697.5 c 128,-1,398
 815 702 815 702 808.5 702 c 128,-1,399
 802 702 802 702 798 697.5 c 128,-1,400
 794 693 794 693 794 687 c 0,401,402
 794 673 794 673 800 673 c 128,-1,403
 806 673 806 673 815 687 c 0,396,397
171 609 m 2,404,-1
 219 646 l 1,405,-1
 277 609 l 2,406,407
 335 573 335 573 352 573 c 0,408,409
 364 573 364 573 325 600 c 0,410,411
 314 608 314 608 301 616 c 2,412,-1
 233 660 l 1,413,-1
 286 702 l 2,414,415
 328 738 328 738 321 744 c 1,416,417
 313 744 313 744 296 733.5 c 128,-1,418
 279 723 279 723 262 707 c 2,419,-1
 223 670 l 1,420,-1
 169 709 l 1,421,-1
 114 748 l 1,422,-1
 160 704 l 1,423,-1
 205 660 l 1,424,-1
 153 617 l 2,425,426
 103 576 103 576 113 574 c 0,427,428
 122 572 122 572 171 609 c 2,404,-1
232 581 m 0,429,430
 223 590 223 590 204 583 c 0,431,432
 188 576 188 576 208 574 c 0,433,434
 210 574 210 574 213 574 c 0,435,436
 234 573 234 573 233 579 c 0,437,438
 233 580 233 580 232 581 c 0,429,430
EndSplineSet
Validated: 33
EndChar

StartChar: L
Encoding: 76 76 14
Width: 787
GlyphClass: 2
Flags: W
LayerCount: 2
Fore
SplineSet
54 -71 m 2,0,1
 54 5 54 5 58.5 33 c 128,-1,2
 63 61 63 61 76 66 c 0,3,4
 90 71 90 71 93.5 138 c 128,-1,5
 97 205 97 205 97 437 c 2,6,-1
 97 800 l 1,7,-1
 224 796 l 1,8,-1
 351 792 l 1,9,-1
 358 430 l 1,10,-1
 365 68 l 1,11,-1
 546 68 l 1,12,-1
 727 68 l 1,13,-1
 731 -57 l 1,14,-1
 735 -181 l 1,15,-1
 615 -190 l 2,16,17
 496 -200 496 -200 275 -200 c 2,18,-1
 54 -200 l 1,19,-1
 54 -71 l 2,0,1
235 -99 m 2,20,-1
 178 -41 l 1,21,-1
 131 -87 l 2,22,23
 111 -106 111 -106 99.5 -122 c 128,-1,24
 88 -138 88 -138 91.5 -141 c 128,-1,25
 95 -144 95 -144 108 -134.5 c 128,-1,26
 121 -125 121 -125 136 -107 c 2,27,-1
 172 -65 l 1,28,-1
 218 -111 l 2,29,30
 263 -157 263 -157 277 -157 c 0,31,32
 290 -157 290 -157 243 -107 c 0,33,34
 239 -103 239 -103 235 -99 c 2,20,-1
372 -112 m 0,35,36
 365 -100 365 -100 341 -77.5 c 128,-1,37
 317 -55 317 -55 290 -36 c 0,38,39
 224 10 224 10 201 27 c 0,40,41
 186 38 186 38 193.5 53 c 128,-1,42
 201 68 201 68 246 116 c 0,43,44
 324 200 324 200 325 251.5 c 128,-1,45
 326 303 326 303 251 349 c 0,46,47
 228 363 228 363 216.5 371.5 c 128,-1,48
 205 380 205 380 197 392 c 128,-1,49
 189 404 189 404 189.5 413 c 128,-1,50
 190 422 190 422 197.5 439.5 c 128,-1,51
 205 457 205 457 217 474 c 128,-1,52
 229 491 229 491 252 521 c 0,53,54
 295 578 295 578 297.5 608 c 128,-1,55
 300 638 300 638 264 681 c 0,56,57
 232 718 232 718 178 741 c 0,58,59
 141 757 141 757 141 742 c 0,60,61
 141 737 141 737 151.5 730.5 c 128,-1,62
 162 724 162 724 177 720 c 0,63,64
 254 701 254 701 266.5 640 c 128,-1,65
 279 579 279 579 220 509 c 0,66,67
 200 484 200 484 185 459.5 c 128,-1,68
 170 435 170 435 170 425 c 128,-1,69
 170 415 170 415 191.5 388 c 128,-1,70
 213 361 213 361 243 333 c 0,71,72
 267 311 267 311 280 297.5 c 128,-1,73
 293 284 293 284 300.5 268 c 128,-1,74
 308 252 308 252 307.5 240.5 c 128,-1,75
 307 229 307 229 297.5 211 c 128,-1,76
 288 193 288 193 273.5 175.5 c 128,-1,77
 259 158 259 158 233 130 c 256,78,79
 207 102 207 102 188.5 76 c 128,-1,80
 170 50 170 50 170 41 c 128,-1,81
 170 32 170 32 188.5 15 c 128,-1,82
 207 -2 207 -2 233.5 -17.5 c 128,-1,83
 260 -33 260 -33 289 -56.5 c 128,-1,84
 318 -80 318 -80 332 -98 c 0,85,86
 369 -145 369 -145 379 -140 c 0,87,88
 386 -137 386 -137 372 -112 c 0,35,36
658 -107 m 2,89,-1
 698 -72 l 1,90,-1
 666 -38 l 2,91,92
 643 -13 643 -13 642 -4.5 c 128,-1,93
 641 4 641 4 658 22 c 0,94,95
 683 46 683 46 665 46 c 0,96,97
 657 46 657 46 649.5 39.5 c 128,-1,98
 642 33 642 33 638 24 c 0,99,100
 633 12 633 12 621 9 c 128,-1,101
 609 6 609 6 582 11 c 0,102,103
 542 18 542 18 495.5 -1.5 c 128,-1,104
 449 -21 449 -21 432 -53 c 0,105,106
 409 -95 409 -95 462 -123 c 0,107,108
 517 -152 517 -152 588 -139 c 0,109,110
 630 -130 630 -130 658 -107 c 2,89,-1
470 -112 m 0,111,112
 420 -82 420 -82 476 -32 c 0,113,114
 502 -9 502 -9 503 -14 c 0,115,116
 503 -17 503 -17 497 -34 c 0,117,118
 494 -47 494 -47 496.5 -63 c 128,-1,119
 499 -79 499 -79 507 -90 c 0,120,121
 521 -109 521 -109 523 -101 c 0,122,123
 524 -94 524 -94 520 -64 c 0,124,125
 515 -17 515 -17 537.5 -1.5 c 128,-1,126
 560 14 560 14 584 -19 c 0,127,128
 603 -44 603 -44 603 -55 c 128,-1,129
 603 -66 603 -66 586 -88 c 0,130,131
 568 -111 568 -111 531 -119 c 128,-1,132
 494 -127 494 -127 470 -112 c 0,111,112
605 -97 m 0,133,134
 612 -85 612 -85 614.5 -67.5 c 128,-1,135
 617 -50 617 -50 614 -38 c 0,136,137
 608 -17 608 -17 611 -17 c 128,-1,138
 614 -17 614 -17 634 -34 c 0,139,140
 662 -60 662 -60 660 -78 c 128,-1,141
 658 -96 658 -96 625 -111 c 0,142,143
 599 -122 599 -122 596 -120 c 128,-1,144
 593 -118 593 -118 605 -97 c 0,133,134
310 33 m 0,145,146
 284 48 284 48 294 78 c 0,147,148
 301 105 301 105 287 98 c 0,149,150
 274 90 274 90 271.5 64 c 128,-1,151
 269 38 269 38 281 27 c 0,152,153
 290 17 290 17 313 18 c 0,154,155
 327 18 327 18 327 21 c 128,-1,156
 327 24 327 24 310 33 c 0,145,146
452 32 m 0,157,158
 443 46 443 46 429 46 c 0,159,160
 423 46 423 46 421 42 c 128,-1,161
 419 38 419 38 423 32 c 0,162,163
 432 17 432 17 447 17 c 0,164,165
 453 17 453 17 454.5 21.5 c 128,-1,166
 456 26 456 26 452 32 c 0,157,158
195 190 m 2,167,-1
 226 230 l 1,168,-1
 184 271 l 2,169,170
 166 288 166 288 151 297.5 c 128,-1,171
 136 307 136 307 133 303.5 c 128,-1,172
 130 300 130 300 140.5 288 c 128,-1,173
 151 276 151 276 170 263 c 2,174,-1
 215 231 l 1,175,-1
 175 189 l 2,176,177
 139 151 139 151 149 148 c 0,178,179
 155 149 155 149 168 161 c 128,-1,180
 181 173 181 173 195 190 c 2,167,-1
329 378 m 0,181,182
 329 384 329 384 320.5 390.5 c 128,-1,183
 312 397 312 397 300 401 c 0,184,185
 280 407 280 407 279 415 c 128,-1,186
 278 423 278 423 293 452 c 0,187,188
 313 492 313 492 302 495 c 0,189,190
 292 495 292 495 271.5 452 c 128,-1,191
 251 409 251 409 258 402 c 0,192,193
 264 398 264 398 293 381.5 c 128,-1,194
 322 365 322 365 325.5 365 c 128,-1,195
 329 365 329 365 329 378 c 0,181,182
329 437 m 0,196,197
 329 451 329 451 322.5 451 c 128,-1,198
 316 451 316 451 307 437 c 0,199,200
 304 431 304 431 305.5 426.5 c 128,-1,201
 307 422 307 422 313.5 422 c 128,-1,202
 320 422 320 422 324.5 426.5 c 128,-1,203
 329 431 329 431 329 437 c 0,196,197
190 572 m 2,204,-1
 231 605 l 1,205,-1
 185 644 l 2,206,207
 139 683 139 683 122 683 c 0,208,209
 108 683 108 683 143 653 c 0,210,211
 148 649 148 649 153 645 c 2,212,-1
 201 607 l 1,213,-1
 160 573 l 2,214,215
 126 543 126 543 134 539 c 0,216,217
 148 538 148 538 190 572 c 2,204,-1
155 611 m 0,218,219
 155 625 155 625 149 625 c 128,-1,220
 143 625 143 625 134 611 c 0,221,222
 130 605 130 605 132 600.5 c 128,-1,223
 134 596 134 596 140 596 c 128,-1,224
 146 596 146 596 150.5 600.5 c 128,-1,225
 155 605 155 605 155 611 c 0,218,219
329 717 m 0,226,227
 329 722 329 722 296 750 c 2,228,-1
 264 777 l 1,229,-1
 291 745 l 2,230,231
 329 700 329 700 329 717 c 0,226,227
EndSplineSet
Validated: 33
EndChar

StartChar: M
Encoding: 77 77 15
Width: 1126
GlyphClass: 2
Flags: W
LayerCount: 2
Fore
SplineSet
118 -165 m 0,0,1
 109 -132 109 -132 109 192 c 0,2,3
 109 466 109 466 101 497 c 0,4,5
 94 515 94 515 79 516 c 0,6,7
 58 516 58 516 54.5 534.5 c 128,-1,8
 51 553 51 553 54 643 c 2,9,-1
 58 771 l 1,10,-1
 219 775 l 1,11,-1
 381 779 l 1,12,-1
 473 640 l 2,13,14
 565 500 565 500 575 494 c 0,15,16
 579 491 579 491 611 532 c 128,-1,17
 643 573 643 573 685 633 c 2,18,-1
 784 779 l 1,19,-1
 916 775 l 1,20,-1
 1048 771 l 1,21,-1
 1051 363 l 2,22,23
 1055 -44 1055 -44 1047 -122 c 2,24,-1
 1038 -199 l 1,25,-1
 912 -194 l 1,26,-1
 786 -190 l 1,27,-1
 782 59 l 2,28,29
 779 209 779 209 774 262.5 c 128,-1,30
 769 316 769 316 756 327 c 0,31,32
 735 345 735 345 735 330 c 0,33,34
 735 323 735 323 739.5 317 c 128,-1,35
 744 311 744 311 750 309 c 0,36,37
 758 307 758 307 733.5 255 c 128,-1,38
 709 203 709 203 677 148.5 c 128,-1,39
 645 94 645 94 632 86 c 256,40,41
 619 78 619 78 568 87 c 0,42,43
 535 93 535 93 516 113.5 c 128,-1,44
 497 134 497 134 455 206 c 2,45,-1
 393 316 l 1,46,-1
 385 63 l 1,47,-1
 378 -190 l 1,48,-1
 253 -194 l 2,49,50
 195 -198 195 -198 166 -195.5 c 128,-1,51
 137 -193 137 -193 130 -187.5 c 128,-1,52
 123 -182 123 -182 118 -165 c 0,0,1
864 -125 m 0,53,54
 843 -97 843 -97 840.5 -82.5 c 128,-1,55
 838 -68 838 -68 848 -45 c 0,56,57
 864 -10 864 -10 907 -7 c 128,-1,58
 950 -4 950 -4 967 -36 c 0,59,60
 982 -64 982 -64 981 -72.5 c 128,-1,61
 980 -81 980 -81 959 -102 c 0,62,63
 940 -121 940 -121 924.5 -116 c 128,-1,64
 909 -111 909 -111 909 -86 c 0,65,66
 909 -63 909 -63 935 -73 c 0,67,68
 950 -79 950 -79 951.5 -77 c 128,-1,69
 953 -75 953 -75 943 -65 c 0,70,71
 927 -49 927 -49 903.5 -57 c 128,-1,72
 880 -65 880 -65 880 -86 c 0,73,74
 880 -110 880 -110 903.5 -125 c 128,-1,75
 927 -140 927 -140 952 -132 c 0,76,77
 981 -123 981 -123 990.5 -94 c 128,-1,78
 1000 -65 1000 -65 987 -34.5 c 128,-1,79
 974 -4 974 -4 945 7 c 0,80,81
 896 25 896 25 859 -1 c 128,-1,82
 822 -27 822 -27 822 -79 c 0,83,84
 822 -101 822 -101 844.5 -134.5 c 128,-1,85
 867 -168 867 -168 882 -168 c 0,86,87
 894 -168 894 -168 868 -131 c 0,88,89
 866 -128 866 -128 864 -125 c 0,53,54
329 -118 m 0,90,91
 343 -89 343 -89 338.5 -59 c 128,-1,92
 334 -29 334 -29 316.5 -10.5 c 128,-1,93
 299 8 299 8 273 15.5 c 128,-1,94
 247 23 247 23 218 9 c 0,95,96
 202 2 202 2 189 -9.5 c 128,-1,97
 176 -21 176 -21 172 -30 c 0,98,99
 162 -57 162 -57 174.5 -90 c 128,-1,100
 187 -123 187 -123 210 -129 c 0,101,102
 239 -136 239 -136 263.5 -117.5 c 128,-1,103
 288 -99 288 -99 279 -76 c 0,104,105
 274 -64 274 -64 257.5 -57 c 128,-1,106
 241 -50 241 -50 226 -52.5 c 128,-1,107
 211 -55 211 -55 211 -66 c 0,108,109
 211 -72 211 -72 217.5 -73.5 c 128,-1,110
 224 -75 224 -75 233 -72 c 0,111,112
 254 -63 254 -63 254 -87 c 0,113,114
 254 -101 254 -101 240.5 -107 c 128,-1,115
 227 -113 227 -113 211.5 -107.5 c 128,-1,116
 196 -102 196 -102 191 -88 c 0,117,118
 181 -63 181 -63 194.5 -38 c 128,-1,119
 208 -13 208 -13 232 -5 c 128,-1,120
 256 3 256 3 282 -7 c 0,121,122
 301 -18 301 -18 314 -39 c 128,-1,123
 327 -60 327 -60 327 -82 c 0,124,125
 327 -95 327 -95 298 -125 c 0,126,127
 272 -151 272 -151 284 -153 c 0,128,129
 286 -154 286 -154 291 -154 c 0,130,131
 300 -154 300 -154 311.5 -143.5 c 128,-1,132
 323 -133 323 -133 329 -118 c 0,90,91
294 46 m 0,133,134
 239 52 239 52 192 46 c 0,135,136
 168 43 168 43 196 41 c 0,137,138
 214 40 214 40 247 40 c 0,139,140
 311 40 311 40 308 44 c 0,141,142
 306 45 306 45 294 46 c 0,133,134
964 46 m 0,143,144
 909 52 909 52 862 46 c 0,145,146
 838 43 838 43 866 41 c 0,147,148
 883 40 883 40 917 40 c 0,149,150
 981 40 981 40 977 44 c 0,151,152
 976 45 976 45 964 46 c 0,143,144
330 87 m 0,153,154
 337 94 337 94 293 203 c 128,-1,155
 249 312 249 312 238 312 c 0,156,157
 231 312 231 312 191.5 219.5 c 128,-1,158
 152 127 152 127 152 109 c 0,159,160
 152 103 152 103 170.5 97.5 c 128,-1,161
 189 92 189 92 214 90 c 0,162,163
 276 84 276 84 299 81.5 c 128,-1,164
 322 79 322 79 330 87 c 0,153,154
238 108 m 2,165,-1
 170 116 l 1,166,-1
 201 192 l 2,167,168
 233 268 233 268 240 268 c 0,169,170
 243 268 243 268 261.5 227 c 128,-1,171
 280 186 280 186 296 144.5 c 128,-1,172
 312 103 312 103 309 102 c 0,173,174
 305 101 305 101 238 108 c 2,165,-1
235 185 m 0,175,176
 230 197 230 197 228 178 c 0,177,178
 228 173 228 173 228 167 c 0,179,180
 228 143 228 143 232 144 c 0,181,182
 233 144 233 144 235 148 c 0,183,184
 242 167 242 167 235 185 c 0,175,176
1004 94 m 0,185,186
 1012 106 1012 106 974 209 c 128,-1,187
 936 312 936 312 924 312 c 0,188,189
 916 312 916 312 876.5 215 c 128,-1,190
 837 118 837 118 837 97 c 0,191,192
 837 86 837 86 876 81.5 c 128,-1,193
 915 77 915 77 956.5 80.5 c 128,-1,194
 998 84 998 84 1004 94 c 0,185,186
853 103 m 0,195,196
 858 116 858 116 886.5 192 c 128,-1,197
 915 268 915 268 923 268 c 128,-1,198
 931 268 931 268 963 188 c 2,199,-1
 994 108 l 1,200,-1
 955 108 l 2,201,202
 917 108 917 108 882 99 c 0,203,204
 851 92 851 92 853 103 c 0,195,196
939 169 m 0,205,206
 939 187 939 187 935 190.5 c 128,-1,207
 931 194 931 194 922 185 c 0,208,209
 916 179 916 179 914 169.5 c 128,-1,210
 912 160 912 160 916 153 c 0,211,212
 939 117 939 117 939 169 c 0,205,206
626 411 m 0,213,214
 615 423 615 423 613 399 c 0,215,216
 610 372 610 372 617 261 c 2,217,-1
 626 116 l 1,218,-1
 630 259 l 2,219,220
 634 403 634 403 626 411 c 0,213,214
550 272 m 0,221,222
 542 426 542 426 537 415 c 0,223,224
 533 406 533 406 532 287 c 0,225,226
 532 225 532 225 535 181 c 128,-1,227
 538 137 538 137 543.5 137 c 128,-1,228
 549 137 549 137 551 177 c 128,-1,229
 553 217 553 217 550 272 c 0,221,222
347 283 m 0,230,231
 343 286 343 286 335 278 c 128,-1,232
 327 270 327 270 320 256.5 c 128,-1,233
 313 243 313 243 313 233 c 0,234,235
 313 221 313 221 330 243 c 0,236,237
 332 245 332 245 333 247 c 0,238,239
 354 276 354 276 347 283 c 0,230,231
480 239 m 0,240,241
 484 245 484 245 482 249.5 c 128,-1,242
 480 254 480 254 473.5 254 c 128,-1,243
 467 254 467 254 462.5 249.5 c 128,-1,244
 458 245 458 245 458 239 c 0,245,246
 458 225 458 225 464.5 225 c 128,-1,247
 471 225 471 225 480 239 c 0,240,241
706 239 m 128,-1,249
 706 245 706 245 701.5 249.5 c 128,-1,250
 697 254 697 254 691 254 c 128,-1,251
 685 254 685 254 681 249.5 c 128,-1,252
 677 245 677 245 677 239 c 128,-1,253
 677 233 677 233 681 229 c 128,-1,254
 685 225 685 225 691 225 c 128,-1,255
 697 225 697 225 701.5 229 c 128,-1,248
 706 233 706 233 706 239 c 128,-1,249
830 265 m 0,256,257
 812 283 812 283 810.5 282 c 128,-1,258
 809 281 809 281 822 256 c 0,259,260
 829 242 829 242 836.5 234.5 c 128,-1,261
 844 227 844 227 848 231 c 128,-1,262
 852 235 852 235 846.5 245 c 128,-1,263
 841 255 841 255 830 265 c 0,256,257
1032 282 m 0,264,265
 1028 286 1028 286 1019.5 278 c 128,-1,266
 1011 270 1011 270 1004 256 c 128,-1,267
 997 242 997 242 998 232 c 0,268,269
 998 220 998 220 1014 240 c 0,270,271
 1017 242 1017 242 1019 246 c 0,272,273
 1040 274 1040 274 1032 282 c 0,264,265
157.5 261 m 128,-1,275
 154 270 154 270 148 276.5 c 128,-1,276
 142 283 142 283 137 283 c 128,-1,277
 132 283 132 283 130.5 276.5 c 128,-1,278
 129 270 129 270 132.5 261 c 128,-1,279
 136 252 136 252 142 245.5 c 128,-1,280
 148 239 148 239 153.5 239 c 128,-1,281
 159 239 159 239 160 245.5 c 128,-1,274
 161 252 161 252 157.5 261 c 128,-1,275
429 327 m 0,282,283
 429 333 429 333 424.5 337 c 128,-1,284
 420 341 420 341 413.5 341 c 128,-1,285
 407 341 407 341 405.5 337 c 128,-1,286
 404 333 404 333 407 327 c 0,287,288
 416 312 416 312 422.5 312 c 128,-1,289
 429 312 429 312 429 327 c 0,282,283
963 441 m 2,290,291
 1007 400 1007 400 1011 408 c 0,292,293
 1011 415 1011 415 998.5 431 c 128,-1,294
 986 447 986 447 968 464 c 2,295,-1
 925 506 l 1,296,-1
 962 569 l 2,297,298
 997 629 997 629 987 632 c 0,299,300
 982 632 982 632 969.5 616.5 c 128,-1,301
 957 601 957 601 944 579 c 2,302,-1
 914 526 l 1,303,-1
 875 582 l 2,304,305
 843 627 843 627 837 624 c 1,306,307
 837 610 837 610 871 560 c 2,308,-1
 905 510 l 1,309,-1
 864 445 l 2,310,311
 822 379 822 379 822 364 c 0,312,313
 822 354 822 354 849 390 c 0,314,315
 858 403 858 403 868 418 c 2,316,-1
 914 488 l 1,317,-1
 963 441 l 2,290,291
247 385 m 0,318,319
 251 391 251 391 249 395 c 128,-1,320
 247 399 247 399 240.5 399 c 128,-1,321
 234 399 234 399 229.5 395 c 128,-1,322
 225 391 225 391 225 385 c 0,323,324
 225 370 225 370 231.5 370 c 128,-1,325
 238 370 238 370 247 385 c 0,318,319
325.5 403 m 128,-1,327
 308 436 308 436 281 476 c 2,328,-1
 253 516 l 1,329,-1
 292 567 l 2,330,331
 308 588 308 588 317.5 605.5 c 128,-1,332
 327 623 327 623 324 626 c 0,333,334
 321 628 321 628 315 622.5 c 128,-1,335
 309 617 309 617 300.5 606 c 128,-1,336
 292 595 292 595 283 580 c 2,337,-1
 250 527 l 1,338,-1
 214 587 l 2,339,340
 204 604 204 604 195 617 c 128,-1,341
 186 630 186 630 179 636.5 c 128,-1,342
 172 643 172 643 170 641 c 0,343,344
 167 637 167 637 176 618.5 c 128,-1,345
 185 600 185 600 200 576 c 2,346,-1
 238 520 l 1,347,-1
 193 466 l 2,348,349
 175 444 175 444 164 426 c 128,-1,350
 153 408 153 408 156.5 405 c 128,-1,351
 160 402 160 402 173.5 415 c 128,-1,352
 187 428 187 428 204 450 c 2,353,-1
 243 501 l 1,354,-1
 285 436 l 2,355,356
 327 370 327 370 337 370 c 0,357,326
 343 370 343 370 325.5 403 c 128,-1,327
502 407 m 0,358,359
 502 432 502 432 474.5 452 c 128,-1,360
 447 472 447 472 413 472 c 0,361,362
 387 472 387 472 374 481.5 c 128,-1,363
 361 491 361 491 348.5 519.5 c 128,-1,364
 336 548 336 548 332 550 c 0,365,366
 329 551 329 551 328 544 c 0,367,368
 328 541 328 541 328 538 c 0,369,370
 328 503 328 503 346 485.5 c 128,-1,371
 364 468 364 468 415 453 c 0,372,373
 456 441 456 441 467.5 431 c 128,-1,374
 479 421 479 421 476 401 c 0,375,376
 473 374 473 374 484 376 c 0,377,378
 486 377 486 377 487 378 c 0,379,380
 502 387 502 387 502 407 c 0,358,359
685 402 m 0,381,382
 684 422 684 422 695.5 430.5 c 128,-1,383
 707 439 707 439 742 446 c 0,384,385
 837 466 837 466 836 537 c 0,386,387
 836 560 836 560 826 542 c 0,388,389
 822 535 822 535 815 520 c 0,390,391
 806 500 806 500 794.5 486 c 128,-1,392
 783 472 783 472 776 471 c 0,393,394
 722 468 722 468 692 448.5 c 128,-1,395
 662 429 662 429 662 398 c 0,396,397
 662 386 662 386 665.5 378 c 128,-1,398
 669 370 669 370 674 370 c 128,-1,399
 679 370 679 370 682 379.5 c 128,-1,400
 685 389 685 389 685 402 c 0,381,382
939 385 m 128,-1,402
 939 391 939 391 934.5 395 c 128,-1,403
 930 399 930 399 924 399 c 128,-1,404
 918 399 918 399 913.5 395 c 128,-1,405
 909 391 909 391 909 385 c 128,-1,406
 909 379 909 379 913.5 374.5 c 128,-1,407
 918 370 918 370 924 370 c 128,-1,408
 930 370 930 370 934.5 374.5 c 128,-1,401
 939 379 939 379 939 385 c 128,-1,402
516 487 m 0,409,410
 516 493 516 493 511.5 497 c 128,-1,411
 507 501 507 501 501 501 c 128,-1,412
 495 501 495 501 493 497 c 128,-1,413
 491 493 491 493 495 487 c 0,414,415
 504 472 504 472 510 472 c 128,-1,416
 516 472 516 472 516 487 c 0,409,410
182 516 m 128,-1,418
 182 522 182 522 177.5 526 c 128,-1,419
 173 530 173 530 167 530 c 128,-1,420
 161 530 161 530 156.5 526 c 128,-1,421
 152 522 152 522 152 516 c 128,-1,422
 152 510 152 510 156.5 505.5 c 128,-1,423
 161 501 161 501 167 501 c 128,-1,424
 173 501 173 501 177.5 505.5 c 128,-1,417
 182 510 182 510 182 516 c 128,-1,418
1011 516 m 128,-1,426
 1011 522 1011 522 1007 526 c 128,-1,427
 1003 530 1003 530 997 530 c 128,-1,428
 991 530 991 530 986.5 526 c 128,-1,429
 982 522 982 522 982 516 c 128,-1,430
 982 510 982 510 986.5 505.5 c 128,-1,431
 991 501 991 501 997 501 c 128,-1,432
 1003 501 1003 501 1007 505.5 c 128,-1,425
 1011 510 1011 510 1011 516 c 128,-1,426
713 545 m 0,433,434
 717 551 717 551 715 555.5 c 128,-1,435
 713 560 713 560 706.5 560 c 128,-1,436
 700 560 700 560 695.5 555.5 c 128,-1,437
 691 551 691 551 691 545 c 0,438,439
 691 530 691 530 697.5 530 c 128,-1,440
 704 530 704 530 713 545 c 0,433,434
105 702 m 0,441,442
 102 730 102 730 100 699 c 0,443,444
 99 681 99 681 99 647 c 0,445,446
 99 576 99 576 103 580 c 0,447,448
 104 581 104 581 105 592 c 0,449,450
 111 647 111 647 105 702 c 0,441,442
473 560 m 0,451,452
 473 574 473 574 466.5 574 c 128,-1,453
 460 574 460 574 451 560 c 0,454,455
 447 554 447 554 449 549.5 c 128,-1,456
 451 545 451 545 457.5 545 c 128,-1,457
 464 545 464 545 468.5 549.5 c 128,-1,458
 473 554 473 554 473 560 c 0,451,452
749 618 m 0,459,460
 749 632 749 632 742.5 632 c 128,-1,461
 736 632 736 632 727 618 c 0,462,463
 724 612 724 612 726 607.5 c 128,-1,464
 728 603 728 603 734 603 c 128,-1,465
 740 603 740 603 744.5 607.5 c 128,-1,466
 749 612 749 612 749 618 c 0,459,460
793 691 m 0,467,468
 793 697 793 697 788.5 701 c 128,-1,469
 784 705 784 705 777.5 705 c 128,-1,470
 771 705 771 705 769 701 c 128,-1,471
 767 697 767 697 771 691 c 0,472,473
 780 676 780 676 786.5 676 c 128,-1,474
 793 676 793 676 793 691 c 0,467,468
305 705 m 0,475,476
 310 713 310 713 285 716 c 0,477,478
 266 718 266 718 230 717 c 2,479,-1
 145 715 l 1,480,-1
 218 705 l 2,481,482
 291 695 291 695 294 693 c 0,483,484
 295 692 295 692 298.5 695.5 c 128,-1,485
 302 699 302 699 305 705 c 0,475,476
1011 708 m 0,486,487
 1011 716 1011 716 975 718.5 c 128,-1,488
 939 721 939 721 901 717 c 128,-1,489
 863 713 863 713 858 704 c 0,490,491
 849 689 849 689 930 692 c 0,492,493
 964 694 964 694 987.5 698.5 c 128,-1,494
 1011 703 1011 703 1011 708 c 0,486,487
EndSplineSet
Validated: 33
EndChar

StartChar: N
Encoding: 78 78 16
Width: 952
GlyphClass: 1
Flags: W
LayerCount: 2
Fore
SplineSet
112 114 m 2,0,1
 112 202 112 202 111.5 261.5 c 128,-1,2
 111 321 111 321 109 368.5 c 128,-1,3
 107 416 107 416 104.5 443.5 c 128,-1,4
 102 471 102 471 97.5 489.5 c 128,-1,5
 93 508 93 508 87.5 514.5 c 128,-1,6
 82 521 82 521 73 521 c 0,7,8
 62 521 62 521 57.5 548.5 c 128,-1,9
 53 576 53 576 53 651 c 0,10,11
 53 660 53 660 53 675 c 0,12,13
 53 703 53 703 52.5 715 c 128,-1,14
 52 727 52 727 55.5 744 c 128,-1,15
 59 761 59 761 60 766 c 128,-1,16
 61 771 61 771 72 780 c 128,-1,17
 83 789 83 789 89 790 c 128,-1,18
 95 791 95 791 116.5 794 c 128,-1,19
 138 797 138 797 153 797 c 128,-1,20
 168 797 168 797 204 798 c 0,21,22
 223 799 223 799 234 799 c 0,23,24
 330 801 330 801 348 796.5 c 128,-1,25
 366 792 366 792 378 761 c 0,26,27
 393 720 393 720 499 528 c 2,28,-1
 605 337 l 1,29,-1
 608 528 l 2,30,31
 612 703 612 703 617 732 c 0,32,33
 625 773 625 773 654 781 c 0,34,35
 668 785 668 785 752 785 c 2,36,-1
 877 785 l 1,37,-1
 877 326 l 2,38,39
 876 -134 876 -134 867 -167 c 0,40,41
 861 -190 861 -190 840.5 -195 c 128,-1,42
 820 -200 820 -200 724 -199 c 2,43,-1
 590 -199 l 1,44,-1
 494 -7 l 2,45,46
 399 185 399 185 388 192 c 0,47,48
 385 194 385 194 382.5 168.5 c 128,-1,49
 380 143 380 143 378.5 98 c 128,-1,50
 377 53 377 53 377 -1 c 2,51,-1
 377 -200 l 1,52,-1
 244 -200 l 1,53,-1
 112 -200 l 1,54,-1
 112 114 l 2,0,1
215 -89 m 0,55,56
 215 -70 215 -70 206 -35.5 c 128,-1,57
 197 -1 197 -1 184 27 c 0,58,59
 163 75 163 75 162 91 c 128,-1,60
 161 107 161 107 177 132 c 0,61,62
 196 163 196 163 186 168 c 0,63,64
 179 168 179 168 169.5 157 c 128,-1,65
 160 146 160 146 153 131 c 0,66,67
 143 108 143 108 145.5 86 c 128,-1,68
 148 64 148 64 168 16 c 0,69,70
 197 -52 197 -52 198.5 -79 c 128,-1,71
 200 -106 200 -106 179 -135 c 0,72,73
 148 -175 148 -175 160 -179 c 0,74,75
 166 -181 166 -181 185 -163 c 0,76,77
 215 -137 215 -137 215 -89 c 0,55,56
336 -93 m 1,78,79
 334 -43 334 -43 318 -3 c 0,80,81
 303 38 303 38 304 86 c 128,-1,82
 305 134 305 134 321 150 c 0,83,84
 331 160 331 160 331 164 c 128,-1,85
 331 168 331 168 320 168 c 0,86,87
 292 168 292 168 284 119.5 c 128,-1,88
 276 71 276 71 294 12 c 0,89,90
 315 -52 315 -52 317 -95.5 c 128,-1,91
 319 -139 319 -139 303 -149 c 0,92,93
 288 -158 288 -158 288 -175 c 0,94,95
 288 -190 288 -190 309 -170 c 0,96,97
 311 -169 311 -169 313 -167 c 0,98,99
 324 -156 324 -156 330 -135.5 c 128,-1,100
 336 -115 336 -115 335 -93 c 1,101,-1
 336 -93 l 1,78,79
260 -125 m 0,102,103
 272 -95 272 -95 270.5 -73 c 128,-1,104
 269 -51 269 -51 252 -1 c 0,105,106
 226 77 226 77 235 126 c 0,107,108
 242 163 242 163 238 164 c 0,109,110
 236 165 236 165 226 152 c 0,111,112
 225 150 225 150 222 146 c 0,113,114
 201 119 201 119 202.5 96 c 128,-1,115
 204 73 204 73 231 1 c 0,116,117
 253 -55 253 -55 254 -74.5 c 128,-1,118
 255 -94 255 -94 240 -125 c 0,119,120
 220 -168 220 -168 229 -171 c 0,121,122
 234 -171 234 -171 243 -157.5 c 128,-1,123
 252 -144 252 -144 260 -125 c 0,102,103
648 10 m 0,124,125
 644 78 644 78 637 131 c 128,-1,126
 630 184 630 184 624 190 c 0,127,128
 610 204 610 204 567 156.5 c 128,-1,129
 524 109 524 109 520 109 c 128,-1,130
 516 109 516 109 519 249 c 0,131,132
 520 306 520 306 517 347 c 128,-1,133
 514 388 514 388 508.5 388 c 128,-1,134
 503 388 503 388 484.5 369 c 128,-1,135
 466 350 466 350 445 323 c 2,136,-1
 395 257 l 1,137,-1
 386 321 l 2,138,139
 378 386 378 386 368 505 c 128,-1,140
 358 624 358 624 348 624 c 0,141,142
 346 624 346 624 345 604.5 c 128,-1,143
 344 585 344 585 345.5 552 c 128,-1,144
 347 519 347 519 350 480 c 0,145,146
 366 281 366 281 381 254 c 0,147,148
 394 231 394 231 422 266 c 0,149,150
 431 277 431 277 447 299 c 0,151,152
 487 358 487 358 494 358 c 0,153,154
 496 359 496 359 497 340 c 128,-1,155
 498 321 498 321 498 289 c 128,-1,156
 498 257 498 257 497 219 c 0,157,158
 495 162 495 162 497.5 120.5 c 128,-1,159
 500 79 500 79 505 79 c 0,160,161
 518 79 518 79 561 125 c 2,162,-1
 605 170 l 1,163,-1
 614 136 l 2,164,165
 624 101 624 101 625 19 c 0,166,167
 626 -45 626 -45 634.5 -100.5 c 128,-1,168
 643 -156 643 -156 651 -156 c 0,169,170
 653 -156 653 -156 653 -133.5 c 128,-1,171
 653 -111 653 -111 651.5 -73 c 128,-1,172
 650 -35 650 -35 648 10 c 0,124,125
790 -115 m 2,173,174
 764 -113 764 -113 741.5 -115 c 128,-1,175
 719 -117 719 -117 714 -122 c 0,176,177
 710 -125 710 -125 719 -127 c 0,178,179
 736 -131 736 -131 778 -127 c 2,180,-1
 855 -120 l 1,181,-1
 790 -115 l 2,173,174
822 -28 m 0,182,183
 789 -22 789 -22 748 -28 c 0,184,185
 725 -31 725 -31 750 -33 c 0,186,187
 761 -34 761 -34 781 -34 c 0,188,189
 832 -34 832 -34 829 -30 c 0,190,191
 828 -29 828 -29 822 -28 c 0,182,183
583 -9 m 128,-1,193
 583 -3 583 -3 578.5 1.5 c 128,-1,194
 574 6 574 6 568 6 c 128,-1,195
 562 6 562 6 557.5 1.5 c 128,-1,196
 553 -3 553 -3 553 -9 c 128,-1,197
 553 -15 553 -15 557.5 -19.5 c 128,-1,198
 562 -24 562 -24 568 -24 c 128,-1,199
 574 -24 574 -24 578.5 -19.5 c 128,-1,192
 583 -15 583 -15 583 -9 c 128,-1,193
814 31 m 0,200,201
 774 37 774 37 733 31 c 0,202,203
 711 28 711 28 738 26 c 0,204,205
 751 25 751 25 774 25 c 0,206,207
 828 25 828 25 824 29 c 0,208,209
 822 30 822 30 814 31 c 0,200,201
847 109 m 0,210,211
 847 127 847 127 806.5 228 c 128,-1,212
 766 329 766 329 759 329 c 128,-1,213
 752 329 752 329 719 231 c 128,-1,214
 686 133 686 133 686 111 c 0,215,216
 686 94 686 94 766 94 c 0,217,218
 800 94 800 94 823.5 98.5 c 128,-1,219
 847 103 847 103 847 109 c 0,210,211
707 136 m 0,220,221
 716 163 716 163 736 228 c 2,222,-1
 756 293 l 1,223,-1
 760 212 l 1,224,-1
 764 131 l 1,225,-1
 770 197 l 1,226,-1
 776 263 l 1,227,-1
 804 190 l 2,228,229
 833 116 833 116 833 112.5 c 128,-1,230
 833 109 833 109 765 109 c 0,231,232
 721 109 721 109 711 113.5 c 128,-1,233
 701 118 701 118 707 136 c 0,220,221
333 212 m 0,234,235
 323 218 323 218 293 222 c 128,-1,236
 263 226 263 226 230 225 c 0,237,238
 169 225 169 225 169 218 c 0,239,240
 169 216 169 216 178 212 c 0,241,242
 216 195 216 195 296 198 c 0,243,244
 339 200 339 200 336 208 c 0,245,246
 336 210 336 210 333 212 c 0,234,235
465 212 m 128,-1,248
 465 218 465 218 460.5 222.5 c 128,-1,249
 456 227 456 227 450 227 c 128,-1,250
 444 227 444 227 440 222.5 c 128,-1,251
 436 218 436 218 436 212 c 128,-1,252
 436 206 436 206 440 201.5 c 128,-1,253
 444 197 444 197 450 197 c 128,-1,254
 456 197 456 197 460.5 201.5 c 128,-1,247
 465 206 465 206 465 212 c 128,-1,248
575 227 m 0,255,256
 579 233 579 233 577 237 c 128,-1,257
 575 241 575 241 568.5 241 c 128,-1,258
 562 241 562 241 557.5 237 c 128,-1,259
 553 233 553 233 553 227 c 0,260,261
 553 212 553 212 559.5 212 c 128,-1,262
 566 212 566 212 575 227 c 0,255,256
339 318 m 0,263,264
 329 352 329 352 284 467 c 0,265,266
 247 562 247 562 237 564 c 0,267,268
 231 562 231 562 226 548 c 0,269,270
 216 521 216 521 193.5 419 c 128,-1,271
 171 317 171 317 171 299 c 0,272,273
 171 293 171 293 197 289 c 128,-1,274
 223 285 223 285 260 285 c 0,275,276
 324 285 324 285 335 290 c 128,-1,277
 346 295 346 295 339 318 c 0,263,264
201 337 m 0,278,279
 202 366 202 366 214 425 c 2,280,-1
 226 484 l 1,281,-1
 228 421 l 2,282,283
 231 366 231 366 243 365 c 0,284,285
 248 368 248 368 250 391 c 128,-1,286
 252 414 252 414 250 443 c 2,287,-1
 244 513 l 1,288,-1
 271 440 l 2,289,290
 274 432 274 432 280 418 c 0,291,292
 313 328 313 328 312 314 c 128,-1,293
 311 300 311 300 270 303 c 0,294,295
 264 303 264 303 260 303 c 0,296,297
 223 306 223 306 212 312.5 c 128,-1,298
 201 319 201 319 201 337 c 0,278,279
833 359 m 0,299,300
 833 386 833 386 708 360 c 0,301,302
 670 352 670 352 669 350 c 1,303,-1
 685 347 l 2,304,305
 699 347 699 347 741 346 c 0,306,307
 780 345 780 345 806.5 349 c 128,-1,308
 833 353 833 353 833 359 c 0,299,300
672 416 m 0,309,310
 663 432 663 432 667.5 459 c 128,-1,311
 672 486 672 486 693 541 c 0,312,313
 717 605 717 605 720 630.5 c 128,-1,314
 723 656 723 656 711 692 c 0,315,316
 704 714 704 714 692.5 732 c 128,-1,317
 681 750 681 750 673 753 c 0,318,319
 662 757 662 757 663 748 c 0,320,321
 664 740 664 740 677 714 c 0,322,323
 701 669 701 669 699 628.5 c 128,-1,324
 697 588 697 588 668 529 c 0,325,326
 648 488 648 488 645.5 468.5 c 128,-1,327
 643 449 643 449 653 426 c 0,328,329
 670 388 670 388 678.5 388 c 128,-1,330
 687 388 687 388 672 416 c 0,309,310
724.5 458 m 128,-1,332
 725 513 725 513 749 574 c 0,333,334
 767 622 767 622 760 678 c 128,-1,335
 753 734 753 734 727 750 c 0,336,337
 716 757 716 757 717 749 c 0,338,339
 717 744 717 744 722 733 c 0,340,341
 740 691 740 691 740.5 639 c 128,-1,342
 741 587 741 587 724 553 c 0,343,344
 709 525 709 525 703.5 489.5 c 128,-1,345
 698 454 698 454 703 428.5 c 128,-1,346
 708 403 708 403 722 403 c 0,347,331
 724 403 724 403 724.5 458 c 128,-1,332
795 438 m 0,348,349
 792 452 792 452 796.5 484.5 c 128,-1,350
 801 517 801 517 811 548 c 0,351,352
 829 602 829 602 829 623 c 128,-1,353
 829 644 829 644 811 690 c 0,354,355
 801 717 801 717 789.5 736.5 c 128,-1,356
 778 756 778 756 772 756 c 0,357,358
 760 756 760 756 778 719 c 0,359,360
 779 716 779 716 781 713 c 0,361,362
 802 672 802 672 802.5 619.5 c 128,-1,363
 803 567 803 567 783 519 c 0,364,365
 762 469 762 469 775 436 c 128,-1,366
 788 403 788 403 795.5 404 c 128,-1,367
 803 405 803 405 795 438 c 0,348,349
303 609 m 0,368,369
 303 615 303 615 284.5 618.5 c 128,-1,370
 266 622 266 622 241 622 c 2,371,-1
 178 619 l 1,372,-1
 237 609 l 2,373,374
 296 598 296 598 299 596 c 0,375,376
 301 596 301 596 302 598 c 0,377,378
 303 602 303 602 303 609 c 0,368,369
288 682 m 0,379,380
 288 691 288 691 266.5 694 c 128,-1,381
 245 697 245 697 213.5 694 c 128,-1,382
 182 691 182 691 156 682 c 0,383,384
 129 674 129 674 156 671 c 0,385,386
 171 670 171 670 204 669 c 0,387,388
 240 669 240 669 264 672.5 c 128,-1,389
 288 676 288 676 288 682 c 0,379,380
296 741 m 128,-1,391
 292 747 292 747 262.5 751 c 128,-1,392
 233 755 233 755 196 754 c 2,393,-1
 105 751 l 1,394,-1
 178 741 l 2,395,396
 293 725 293 725 298 733 c 0,397,390
 300 735 300 735 296 741 c 128,-1,391
EndSplineSet
Validated: 33
EndChar

StartChar: O
Encoding: 79 79 17
Width: 1023
GlyphClass: 2
Flags: W
LayerCount: 2
Fore
SplineSet
367 -180 m 0,0,1
 291 -155 291 -155 205.5 -68.5 c 128,-1,2
 120 18 120 18 89 104 c 0,3,4
 44 224 44 224 60.5 363 c 128,-1,5
 77 502 77 502 149 603 c 0,6,7
 248 743 248 743 401 785 c 128,-1,8
 554 827 554 827 699 755 c 0,9,10
 784 712 784 712 846.5 639 c 128,-1,11
 909 566 909 566 937 478.5 c 128,-1,12
 965 391 965 391 966 297.5 c 128,-1,13
 967 204 967 204 931.5 112 c 128,-1,14
 896 20 896 20 829 -52 c 0,15,16
 739 -150 739 -150 614 -184.5 c 128,-1,17
 489 -219 489 -219 367 -180 c 0,0,1
456 -68 m 2,18,-1
 452 -33 l 1,19,-1
 373 -67 l 2,20,21
 308 -97 308 -97 313 -102 c 1,22,23
 331 -102 331 -102 382.5 -80.5 c 128,-1,24
 434 -59 434 -59 437 -59 c 0,25,26
 438 -60 438 -60 438 -64.5 c 128,-1,27
 438 -69 438 -69 437 -77 c 128,-1,28
 436 -85 436 -85 434 -95 c 0,29,30
 427 -130 427 -130 438 -156 c 0,31,32
 447 -175 447 -175 451 -165 c 0,33,34
 453 -160 453 -160 455 -142 c 0,35,36
 461 -102 461 -102 456 -68 c 2,18,-1
529 -88 m 0,37,38
 529 -75 529 -75 527.5 -74 c 128,-1,39
 526 -73 526 -73 521 -81 c 0,40,41
 519 -83 519 -83 516 -88 c 0,42,43
 502 -109 502 -109 503 -138 c 2,44,-1
 504 -167 l 1,45,-1
 516 -138 l 2,46,47
 528 -109 528 -109 529 -88 c 0,37,38
593 -108 m 2,48,-1
 617 -56 l 1,49,-1
 650 -86 l 2,50,51
 682 -117 682 -117 693 -117 c 0,52,53
 702 -115 702 -115 659 -78 c 0,54,55
 644 -66 644 -66 638 -61 c 128,-1,56
 632 -56 632 -56 622.5 -53.5 c 128,-1,57
 613 -51 613 -51 610 -52 c 128,-1,58
 607 -53 607 -53 598 -64 c 128,-1,59
 589 -75 589 -75 584 -85 c 128,-1,60
 579 -95 579 -95 565 -120 c 0,61,62
 546 -156 546 -156 556 -159 c 0,63,64
 561 -159 561 -159 571.5 -144 c 128,-1,65
 582 -129 582 -129 593 -108 c 2,48,-1
409 -131 m 0,66,67
 400 -117 400 -117 386 -117 c 0,68,69
 380 -117 380 -117 378 -121 c 128,-1,70
 376 -125 376 -125 380 -131 c 0,71,72
 389 -145 389 -145 403 -145 c 0,73,74
 409 -145 409 -145 410.5 -141 c 128,-1,75
 412 -137 412 -137 409 -131 c 0,66,67
641 -137 m 0,76,77
 632 -128 632 -128 613 -135 c 0,78,79
 597 -142 597 -142 617 -144 c 0,80,81
 619 -144 619 -144 622 -144 c 0,82,83
 643 -145 643 -145 642 -139 c 0,84,85
 642 -138 642 -138 641 -137 c 0,76,77
770 -45 m 0,86,87
 752 -16 752 -16 741 -16 c 0,88,89
 731 -18 731 -18 745 -45 c 0,90,91
 751 -57 751 -57 759.5 -65.5 c 128,-1,92
 768 -74 768 -74 774 -74 c 0,93,94
 786 -74 786 -74 773 -50 c 0,95,96
 772 -48 772 -48 770 -45 c 0,86,87
287 -13 m 0,97,98
 287 -1 287 -1 269 -14 c 0,99,100
 267 -15 267 -15 266 -16 c 0,101,102
 244 -34 244 -34 244 -49 c 0,103,104
 244 -61 244 -61 262 -48 c 0,105,106
 264 -46 264 -46 266 -45 c 0,107,108
 287 -27 287 -27 287 -13 c 0,97,98
537 -16 m 0,109,110
 541 -11 541 -11 565.5 -6.5 c 128,-1,111
 590 -2 590 -2 621 -2 c 0,112,113
 688 -2 688 -2 709 15 c 128,-1,114
 730 32 730 32 730 86 c 0,115,116
 730 118 730 118 738.5 134.5 c 128,-1,117
 747 151 747 151 773 169 c 0,118,119
 825 206 825 206 832 232.5 c 128,-1,120
 839 259 839 259 809 304 c 0,121,122
 787 336 787 336 782 358 c 128,-1,123
 777 380 777 380 783 420 c 0,124,125
 789 466 789 466 784 477.5 c 128,-1,126
 779 489 779 489 745 503 c 0,127,128
 725 512 725 512 703.5 533 c 128,-1,129
 682 554 682 554 668 578 c 2,130,-1
 637 634 l 1,131,-1
 515 633 l 1,132,-1
 394 633 l 1,133,-1
 366 581 l 2,134,135
 355 559 355 559 332.5 537.5 c 128,-1,136
 310 516 310 516 289 506 c 0,137,138
 254 489 254 489 248.5 477 c 128,-1,139
 243 465 243 465 249 418 c 0,140,141
 255 378 255 378 251 358 c 128,-1,142
 247 338 247 338 230 316 c 0,143,144
 198 276 198 276 203 242.5 c 128,-1,145
 208 209 208 209 251 176 c 0,146,147
 282 152 282 152 291.5 134.5 c 128,-1,148
 301 117 301 117 301 85 c 0,149,150
 301 32 301 32 322.5 15 c 128,-1,151
 344 -2 344 -2 411 -2 c 0,152,153
 442 -2 442 -2 466.5 -6.5 c 128,-1,154
 491 -11 491 -11 494 -16 c 0,155,156
 503 -31 503 -31 516 -31 c 128,-1,157
 529 -31 529 -31 537 -16 c 0,109,110
494 -2 m 0,158,159
 491 4 491 4 468 8 c 128,-1,160
 445 12 445 12 417 12 c 0,161,162
 357 12 357 12 335.5 30 c 128,-1,163
 314 48 314 48 324 90 c 0,164,165
 330 113 330 113 320.5 130 c 128,-1,166
 311 147 311 147 274 181 c 0,167,168
 225 226 225 226 219 251.5 c 128,-1,169
 213 277 213 277 246 307 c 0,170,171
 265 324 265 324 269 341.5 c 128,-1,172
 273 359 273 359 268 402 c 0,173,174
 265 422 265 422 264 430.5 c 128,-1,175
 263 439 263 439 264.5 450.5 c 128,-1,176
 266 462 266 462 267.5 465 c 128,-1,177
 269 468 269 468 277 475.5 c 128,-1,178
 285 483 285 483 292 486.5 c 128,-1,179
 299 490 299 490 316 499 c 0,180,181
 340 511 340 511 356.5 525 c 128,-1,182
 373 539 373 539 373 547 c 0,183,184
 373 567 373 567 398 597 c 0,185,186
 415 618 415 618 427 620.5 c 128,-1,187
 439 623 439 623 469 612 c 0,188,189
 516 596 516 596 559 611 c 256,190,191
 602 626 602 626 621.5 616.5 c 128,-1,192
 641 607 641 607 656 565 c 0,193,194
 673 518 673 518 723 494 c 0,195,196
 760 477 760 477 765.5 465.5 c 128,-1,197
 771 454 771 454 764 412 c 0,198,199
 759 377 759 377 763 357 c 128,-1,200
 767 337 767 337 786 312 c 0,201,202
 817 269 817 269 812.5 248 c 128,-1,203
 808 227 808 227 757 181 c 0,204,205
 721 147 721 147 711.5 130 c 128,-1,206
 702 113 702 113 708 90 c 0,207,208
 718 48 718 48 696.5 30 c 128,-1,209
 675 12 675 12 615 12 c 0,210,211
 587 12 587 12 564 8 c 128,-1,212
 541 4 541 4 537 -2 c 0,213,214
 529 -16 529 -16 516 -16 c 128,-1,215
 503 -16 503 -16 494 -2 c 0,158,159
387 55 m 0,216,217
 387 69 387 69 381 69 c 128,-1,218
 375 69 375 69 366 55 c 0,219,220
 362 49 362 49 364 45 c 128,-1,221
 366 41 366 41 372 41 c 128,-1,222
 378 41 378 41 382.5 45 c 128,-1,223
 387 49 387 49 387 55 c 0,216,217
666 55 m 0,224,225
 670 61 670 61 665.5 65 c 128,-1,226
 661 69 661 69 651.5 69 c 128,-1,227
 642 69 642 69 638 65 c 128,-1,228
 634 61 634 61 637 55 c 0,229,230
 646 41 646 41 651.5 41 c 128,-1,231
 657 41 657 41 666 55 c 0,224,225
627 115 m 0,232,233
 702 184 702 184 702 313 c 0,234,235
 702 411 702 411 647 476 c 128,-1,236
 592 541 592 541 510 541 c 0,237,238
 455 541 455 541 412 510.5 c 128,-1,239
 369 480 369 480 346.5 433 c 128,-1,240
 324 386 324 386 319 329 c 128,-1,241
 314 272 314 272 327.5 220 c 128,-1,242
 341 168 341 168 377.5 127 c 128,-1,243
 414 86 414 86 468 71 c 0,244,245
 507 60 507 60 550 72 c 128,-1,246
 593 84 593 84 627 115 c 0,232,233
773 241 m 0,247,248
 773 247 773 247 768.5 251 c 128,-1,249
 764 255 764 255 758 255 c 128,-1,250
 752 255 752 255 750 251 c 128,-1,251
 748 247 748 247 752 241 c 0,252,253
 761 227 761 227 767 227 c 128,-1,254
 773 227 773 227 773 241 c 0,247,248
273 255 m 0,255,256
 273 270 273 270 266.5 270 c 128,-1,257
 260 270 260 270 251 255 c 0,258,259
 248 249 248 249 249.5 245 c 128,-1,260
 251 241 251 241 257.5 241 c 128,-1,261
 264 241 264 241 268.5 245 c 128,-1,262
 273 249 273 249 273 255 c 0,255,256
730 455.5 m 128,-1,264
 730 461 730 461 726 465.5 c 128,-1,265
 722 470 722 470 716 470 c 128,-1,266
 710 470 710 470 706 465.5 c 128,-1,267
 702 461 702 461 702 455.5 c 128,-1,268
 702 450 702 450 706 445.5 c 128,-1,269
 710 441 710 441 716 441 c 128,-1,270
 722 441 722 441 726 445.5 c 128,-1,263
 730 450 730 450 730 455.5 c 128,-1,264
459 570 m 128,-1,272
 459 576 459 576 454.5 580 c 128,-1,273
 450 584 450 584 444.5 584 c 128,-1,274
 439 584 439 584 434.5 580 c 128,-1,275
 430 576 430 576 430 570 c 128,-1,276
 430 564 430 564 434.5 560 c 128,-1,277
 439 556 439 556 444.5 556 c 128,-1,278
 450 556 450 556 454.5 560 c 128,-1,271
 459 564 459 564 459 570 c 128,-1,272
609 570 m 0,279,280
 613 576 613 576 611 580 c 128,-1,281
 609 584 609 584 602.5 584 c 128,-1,282
 596 584 596 584 591.5 580 c 128,-1,283
 587 576 587 576 587 570 c 0,284,285
 587 556 587 556 593.5 556 c 128,-1,286
 600 556 600 556 609 570 c 0,279,280
235 49 m 0,287,288
 253 77 253 77 261 99 c 128,-1,289
 269 121 269 121 264 127 c 0,290,291
 251 139 251 139 173 147 c 2,292,-1
 94 154 l 1,293,-1
 158 139 l 2,294,295
 223 124 223 124 241.5 118.5 c 128,-1,296
 260 113 260 113 216 48 c 0,297,298
 174 -13 174 -13 183 -16 c 0,299,300
 187 -16 187 -16 202.5 3 c 128,-1,301
 218 22 218 22 235 49 c 0,287,288
845 98 m 0,302,303
 866 84 866 84 895 85 c 0,304,305
 917 85 917 85 883 100 c 0,306,307
 876 103 876 103 867 106 c 0,308,309
 814 126 814 126 799 113 c 128,-1,310
 784 100 784 100 796 45 c 2,311,-1
 808 -9 l 1,312,-1
 815 51 l 2,313,314
 818 70 818 70 820.5 80.5 c 128,-1,315
 823 91 823 91 826 97 c 128,-1,316
 829 103 829 103 833.5 102 c 128,-1,317
 838 101 838 101 845 98 c 0,302,303
882 51 m 0,318,319
 874 59 874 59 859.5 48 c 128,-1,320
 845 37 845 37 845 24 c 0,321,322
 845 9 845 9 866.5 27 c 128,-1,323
 888 45 888 45 882 51 c 0,318,319
172.5 83.5 m 128,-1,325
 157 112 157 112 150 112 c 128,-1,326
 143 112 143 112 158.5 83.5 c 128,-1,327
 174 55 174 55 181 55 c 128,-1,324
 188 55 188 55 172.5 83.5 c 128,-1,325
923 184 m 0,328,329
 920 190 920 190 908 193.5 c 128,-1,330
 896 197 896 197 883 197 c 0,331,332
 861 196 861 196 860.5 194.5 c 128,-1,333
 860 193 860 193 881 184 c 0,334,335
 928 163 928 163 927 176 c 0,336,337
 926 179 926 179 923 184 c 0,328,329
169 222 m 0,338,339
 144 229 144 229 112 222 c 0,340,341
 92 219 92 219 115 217 c 0,342,343
 124 216 124 216 137 216 c 0,344,345
 177 216 177 216 174 220 c 0,346,347
 174 221 174 221 169 222 c 0,338,339
873 305 m 2,348,-1
 840 341 l 1,349,-1
 869 373 l 2,350,351
 898 405 898 405 908 427 c 0,352,353
 910 431 910 431 908 431 c 0,354,355
 901 430 901 430 867 392 c 2,356,-1
 816 336 l 1,357,-1
 847 303 l 2,358,359
 878 270 878 270 893 270 c 0,360,361
 905 270 905 270 879 299 c 0,362,363
 876 302 876 302 873 305 c 2,348,-1
162 339 m 0,364,365
 216 372 216 372 216 382 c 0,366,367
 215 396 215 396 167 469 c 0,368,369
 147 498 147 498 145 495 c 0,370,371
 144 485 144 485 169 432 c 0,372,373
 184 401 184 401 185.5 389 c 128,-1,374
 187 377 187 377 175 373 c 0,375,376
 156 367 156 367 118 331 c 0,377,378
 85 301 85 301 95.5 302.5 c 128,-1,379
 106 304 106 304 162 339 c 0,364,365
931 341 m 0,380,381
 931 370 931 370 925.5 370 c 128,-1,382
 920 370 920 370 912 341 c 0,383,384
 909 329 909 329 910.5 320.5 c 128,-1,385
 912 312 912 312 917.5 312 c 128,-1,386
 923 312 923 312 927 320.5 c 128,-1,387
 931 329 931 329 931 341 c 0,380,381
152 399 m 0,388,389
 165 420 165 420 153 421 c 0,390,391
 143 422 143 422 130 406 c 0,392,393
 112 384 112 384 127 384 c 128,-1,394
 142 384 142 384 152 399 c 0,388,389
895 484 m 0,395,396
 888 494 888 494 859.5 488 c 128,-1,397
 831 482 831 482 831 470 c 0,398,399
 831 466 831 466 841 464.5 c 128,-1,400
 851 463 851 463 866 466 c 128,-1,401
 881 469 881 469 889.5 474.5 c 128,-1,402
 898 480 898 480 895 484 c 0,395,396
230 509.5 m 128,-1,404
 230 514 230 514 220.5 523 c 128,-1,405
 211 532 211 532 198 540 c 0,406,407
 175 553 175 553 174 553 c 0,408,409
 171 553 171 553 193 529 c 0,410,411
 226 492 226 492 229 503 c 0,412,403
 230 505 230 505 230 509.5 c 128,-1,404
831 526 m 0,413,414
 831 532 831 532 815.5 539 c 128,-1,415
 800 546 800 546 779 550 c 0,416,417
 747 556 747 556 739 563 c 128,-1,418
 731 570 731 570 736 590 c 0,419,420
 756 663 756 663 751 664 c 0,421,422
 747 664 747 664 730 629 c 0,423,424
 718 603 718 603 712 582 c 128,-1,425
 706 561 706 561 710 557 c 0,426,427
 718 548 718 548 770.5 532 c 128,-1,428
 823 516 823 516 827 514 c 0,429,430
 828 514 828 514 829 515.5 c 128,-1,431
 830 517 830 517 830.5 520 c 128,-1,432
 831 523 831 523 831 526 c 0,413,414
814 591 m 0,433,434
 807 606 807 606 798.5 616.5 c 128,-1,435
 790 627 790 627 784 627 c 0,436,437
 764 627 764 627 806 573 c 0,438,439
 826 547 826 547 825 560 c 0,440,441
 824 569 824 569 814 591 c 0,433,434
314 595 m 0,442,443
 312 620 312 620 300 663 c 0,444,445
 293 687 293 687 292 688 c 1,446,-1
 292 668 l 2,447,448
 292 660 292 660 293 646 c 2,449,-1
 298 586 l 1,450,-1
 239 580 l 1,451,-1
 180 575 l 1,452,-1
 248 572 l 2,453,454
 290 571 290 571 302.5 575 c 128,-1,455
 315 579 315 579 314 595 c 0,442,443
266 628 m 0,456,457
 279 649 279 649 267 650 c 0,458,459
 258 651 258 651 245 635 c 0,460,461
 226 613 226 613 241.5 613 c 128,-1,462
 257 613 257 613 266 628 c 0,456,457
405 705 m 0,463,464
 398 742 398 742 392.5 740 c 128,-1,465
 387 738 387 738 387 698 c 0,466,467
 389 660 389 660 400 662 c 0,468,469
 405 665 405 665 406.5 677.5 c 128,-1,470
 408 690 408 690 405 705 c 0,463,464
702 702 m 0,471,472
 702 714 702 714 684 701 c 0,473,474
 682 700 682 700 680 699 c 0,475,476
 659 681 659 681 659 666 c 0,477,478
 659 654 659 654 677 667 c 0,479,480
 679 669 679 669 680 670 c 0,481,482
 702 688 702 688 702 702 c 0,471,472
560 709 m 2,483,-1
 595 749 l 1,484,-1
 555 714 l 1,485,-1
 516 679 l 1,486,-1
 478 714 l 2,487,488
 448 741 448 741 450 731 c 0,489,490
 450 730 450 730 451 727 c 0,491,492
 480 675 480 675 502 671.5 c 128,-1,493
 524 668 524 668 560 709 c 2,483,-1
534 751 m 0,494,495
 516 758 516 758 498 751 c 0,496,497
 486 746 486 746 505 744 c 0,498,499
 509 744 509 744 516 744 c 0,500,501
 538 744 538 744 538 748 c 0,502,503
 538 749 538 749 534 751 c 0,494,495
EndSplineSet
Validated: 33
EndChar

StartChar: P
Encoding: 80 80 18
Width: 954
GlyphClass: 2
Flags: W
LayerCount: 2
Fore
SplineSet
194 -190.5 m 128,-1,1
 184 -181 184 -181 184 116 c 2,2,-1
 184 414 l 1,3,-1
 129 493 l 2,4,5
 74 572 74 572 56 616 c 0,6,7
 49 631 49 631 47 640.5 c 128,-1,8
 45 650 45 650 49.5 660.5 c 128,-1,9
 54 671 54 671 62.5 678 c 128,-1,10
 71 685 71 685 91.5 696.5 c 128,-1,11
 112 708 112 708 137.5 718.5 c 128,-1,12
 163 729 163 729 206 746 c 0,13,14
 281 775 281 775 356 788.5 c 128,-1,15
 431 802 431 802 497 799.5 c 128,-1,16
 563 797 563 797 624.5 781.5 c 128,-1,17
 686 766 686 766 733.5 737.5 c 128,-1,18
 781 709 781 709 819 670 c 128,-1,19
 857 631 857 631 876 582 c 128,-1,20
 895 533 895 533 899.5 476.5 c 128,-1,21
 904 420 904 420 885 355 c 0,22,23
 858 259 858 259 755.5 157.5 c 128,-1,24
 653 56 653 56 533 7 c 0,25,26
 508 -3 508 -3 497.5 -7.5 c 128,-1,27
 487 -12 487 -12 474.5 -19.5 c 128,-1,28
 462 -27 462 -27 459 -30.5 c 128,-1,29
 456 -34 456 -34 452 -44.5 c 128,-1,30
 448 -55 448 -55 447.5 -62.5 c 128,-1,31
 447 -70 447 -70 447 -88 c 0,32,33
 444 -149 444 -149 443 -175 c 0,34,35
 443 -184 443 -184 439 -188.5 c 128,-1,36
 435 -193 435 -193 421 -195.5 c 128,-1,37
 407 -198 407 -198 385.5 -199 c 128,-1,38
 364 -200 364 -200 323 -200 c 0,39,0
 204 -200 204 -200 194 -190.5 c 128,-1,1
428 -149 m 128,-1,41
 428 -141 428 -141 379 -36 c 2,42,-1
 331 69 l 1,43,-1
 381 158 l 1,44,-1
 431 247 l 1,45,-1
 333 237 l 2,46,47
 235 226 235 226 230 221.5 c 128,-1,48
 225 217 225 217 265 146 c 2,49,-1
 304 75 l 1,50,-1
 259 -29 l 2,51,52
 213 -132 213 -132 213 -145 c 0,53,54
 213 -150 213 -150 244.5 -153.5 c 128,-1,55
 276 -157 276 -157 320 -157 c 0,56,40
 428 -157 428 -157 428 -149 c 128,-1,41
281 -130 m 2,57,-1
 242 -121 l 1,58,-1
 282 -37 l 1,59,-1
 321 48 l 1,60,-1
 360 -38 l 2,61,62
 399 -125 399 -125 399 -134 c 0,63,64
 399 -139 399 -139 381 -140.5 c 128,-1,65
 363 -142 363 -142 335 -139 c 128,-1,66
 307 -136 307 -136 281 -130 c 2,57,-1
332 -86 m 0,67,68
 335 -74 335 -74 333.5 -65.5 c 128,-1,69
 332 -57 332 -57 326.5 -57 c 128,-1,70
 321 -57 321 -57 317 -65.5 c 128,-1,71
 313 -74 313 -74 313 -86 c 0,72,73
 313 -114 313 -114 318.5 -114 c 128,-1,74
 324 -114 324 -114 332 -86 c 0,67,68
288 150 m 1,75,-1
 258 212 l 1,76,-1
 325 218 l 2,77,78
 392 224 392 224 394 223 c 0,79,80
 395 223 395 223 390 213.5 c 128,-1,81
 385 204 385 204 376.5 188.5 c 128,-1,82
 368 173 368 173 357 155 c 2,83,-1
 318 87 l 1,84,-1
 288 150 l 1,75,-1
413 57.5 m 128,-1,86
 413 63 413 63 409 67.5 c 128,-1,87
 405 72 405 72 399 72 c 128,-1,88
 393 72 393 72 389 67.5 c 128,-1,89
 385 63 385 63 385 57.5 c 128,-1,90
 385 52 385 52 389 47.5 c 128,-1,91
 393 43 393 43 399 43 c 128,-1,92
 405 43 405 43 409 47.5 c 128,-1,85
 413 52 413 52 413 57.5 c 128,-1,86
541 111 m 0,93,94
 556 165 556 165 556 183 c 0,95,96
 556 216 556 216 583 188 c 0,97,98
 593 177 593 177 606 159 c 0,99,100
 617 141 617 141 628 130.5 c 128,-1,101
 639 120 639 120 643 123 c 0,102,103
 653 128 653 128 660 200.5 c 128,-1,104
 667 273 667 273 674.5 280.5 c 128,-1,105
 682 288 682 288 736.5 273.5 c 128,-1,106
 791 259 791 259 797 265 c 128,-1,107
 803 271 803 271 758.5 325 c 128,-1,108
 714 379 714 379 714 395 c 0,109,110
 714 401 714 401 730.5 411 c 128,-1,111
 747 421 747 421 771 428 c 128,-1,112
 795 435 795 435 811.5 443.5 c 128,-1,113
 828 452 828 452 828 457 c 128,-1,114
 828 462 828 462 807 471 c 128,-1,115
 786 480 786 480 757 487 c 2,116,-1
 685 504 l 1,117,-1
 731 561 l 1,118,-1
 776 619 l 1,119,-1
 709 613 l 1,120,-1
 642 608 l 1,121,-1
 642 661 l 2,122,123
 642 700 642 700 637 705.5 c 128,-1,124
 632 711 632 711 607 701 c 0,125,126
 584 693 584 693 558 678.5 c 128,-1,127
 532 664 532 664 516.5 651 c 128,-1,128
 501 638 501 638 504 634 c 0,129,130
 510 628 510 628 558 658 c 0,131,132
 608 688 608 688 619 684 c 128,-1,133
 630 680 630 680 621 635 c 2,134,-1
 612 583 l 1,135,-1
 670 591 l 2,136,137
 718 597 718 597 724.5 588.5 c 128,-1,138
 731 580 731 580 699 551 c 256,139,140
 667 522 667 522 674 505 c 128,-1,141
 681 488 681 488 732 473 c 2,142,-1
 792 454 l 1,143,-1
 743 437 l 2,144,145
 695 421 695 421 691 402 c 128,-1,146
 687 383 687 383 722 337 c 0,147,148
 751 298 751 298 748 291 c 128,-1,149
 745 284 745 284 707 300 c 0,150,151
 675 313 675 313 658.5 294 c 128,-1,152
 642 275 642 275 642 227 c 256,153,154
 642 179 642 179 630 174.5 c 128,-1,155
 618 170 618 170 592 210 c 0,156,157
 565 251 565 251 551 220 c 0,158,159
 542 202 542 202 534 154 c 0,160,161
 529 121 529 121 521.5 109.5 c 128,-1,162
 514 98 514 98 503 106.5 c 128,-1,163
 492 115 492 115 477 145 c 0,164,165
 471 157 471 157 464.5 166 c 128,-1,166
 458 175 458 175 453.5 179 c 128,-1,167
 449 183 449 183 447 181 c 0,168,169
 439 174 439 174 471.5 115.5 c 128,-1,170
 504 57 504 57 515 57 c 0,171,172
 520 57 520 57 527.5 73 c 128,-1,173
 535 89 535 89 541 111 c 0,93,94
613 93.5 m 128,-1,175
 595 115 595 115 589 109 c 0,176,177
 581 101 581 101 592 86.5 c 128,-1,178
 603 72 603 72 616 72 c 0,179,174
 631 72 631 72 613 93.5 c 128,-1,175
728 222 m 0,180,181
 720 231 720 231 712.5 235.5 c 128,-1,182
 705 240 705 240 703 237 c 0,183,184
 695 230 695 230 714 208 c 0,185,186
 721 199 721 199 728.5 194.5 c 128,-1,187
 736 190 736 190 739 193 c 0,188,189
 746 200 746 200 728 222 c 0,180,181
523 299 m 0,190,191
 602 356 602 356 629 409 c 128,-1,192
 656 462 656 462 625.5 497.5 c 128,-1,193
 595 533 595 533 514 541 c 2,194,-1
 442 548 l 1,195,-1
 442 403 l 2,196,197
 442 343 442 343 445.5 300.5 c 128,-1,198
 449 258 449 258 454 258 c 0,199,200
 466 258 466 258 523 299 c 0,190,191
335 304 m 128,-1,202
 360 301 360 301 380 303 c 128,-1,203
 400 305 400 305 403 310 c 0,204,205
 405 314 405 314 393 317 c 0,206,207
 374 321 374 321 337 321 c 0,208,209
 261 319 261 319 244 316 c 128,-1,210
 227 313 227 313 227 300 c 0,211,212
 227 285 227 285 251 298 c 0,213,214
 260 303 260 303 285 305 c 128,-1,201
 310 307 310 307 335 304 c 128,-1,202
857 371 m 0,215,216
 857 376 857 376 846.5 381.5 c 128,-1,217
 836 387 836 387 821 390 c 128,-1,218
 806 393 806 393 795.5 391.5 c 128,-1,219
 785 390 785 390 785 385.5 c 128,-1,220
 785 381 785 381 794.5 376 c 128,-1,221
 804 371 804 371 817 368 c 0,222,223
 850 362 850 362 853 360 c 0,224,225
 855 359 855 359 856 362 c 256,226,227
 857 365 857 365 857 371 c 0,215,216
385 387 m 0,228,229
 397 393 397 393 405 401.5 c 128,-1,230
 413 410 413 410 413 416 c 0,231,232
 413 428 413 428 385 411 c 0,233,234
 382 410 382 410 379 407 c 0,235,236
 344 385 344 385 295 394 c 0,237,238
 274 398 274 398 257.5 397 c 128,-1,239
 241 396 241 396 238 391 c 0,240,241
 233 384 233 384 255 380 c 0,242,243
 305 370 305 370 362 380 c 0,244,245
 378 383 378 383 385 387 c 0,228,229
302 444 m 0,246,247
 327 444 327 444 356.5 456.5 c 128,-1,248
 386 469 386 469 401.5 485.5 c 128,-1,249
 417 502 417 502 407 512 c 0,250,251
 404 515 404 515 395.5 510 c 128,-1,252
 387 505 387 505 379 494 c 0,253,254
 360 467 360 467 291 459 c 128,-1,255
 222 451 222 451 216 429 c 0,256,257
 214 423 214 423 213.5 419.5 c 128,-1,258
 213 416 213 416 214.5 415.5 c 128,-1,259
 216 415 216 415 219 417.5 c 128,-1,260
 222 420 222 420 228 426 c 0,261,262
 236 433 236 433 257.5 438.5 c 128,-1,263
 279 444 279 444 302 444 c 0,246,247
301 530 m 0,264,265
 334 548 334 548 344.5 585.5 c 128,-1,266
 355 623 355 623 335 653 c 0,267,268
 317 680 317 680 289 684 c 128,-1,269
 261 688 261 688 242.5 669 c 128,-1,270
 224 650 224 650 230 620 c 0,271,272
 233 605 233 605 247.5 598 c 128,-1,273
 262 591 262 591 276.5 596 c 128,-1,274
 291 601 291 601 295 615 c 256,275,276
 299 629 299 629 297.5 629 c 128,-1,277
 296 629 296 629 287 617 c 0,278,279
 276 600 276 600 259 607.5 c 128,-1,280
 242 615 242 615 242 636 c 0,281,282
 242 656 242 656 266 663.5 c 128,-1,283
 290 671 290 671 308 657 c 0,284,285
 326 642 326 642 327 610 c 128,-1,286
 328 578 328 578 310 561 c 0,287,288
 295 546 295 546 271 544.5 c 128,-1,289
 247 543 247 543 225 552 c 128,-1,290
 203 561 203 561 186.5 579 c 128,-1,291
 170 597 170 597 170 618 c 0,292,293
 170 629 170 629 179 645.5 c 128,-1,294
 188 662 188 662 200 674 c 128,-1,295
 212 686 212 686 219 697 c 128,-1,296
 226 708 226 708 223 711 c 0,297,298
 215 718 215 718 199 702.5 c 128,-1,299
 183 687 183 687 169.5 662 c 128,-1,300
 156 637 156 637 156 619 c 0,301,302
 156 584 156 584 166.5 566.5 c 128,-1,303
 177 549 177 549 206 532 c 0,304,305
 233 517 233 517 253.5 516.5 c 128,-1,306
 274 516 274 516 301 530 c 0,264,265
642 530 m 0,307,308
 642 535 642 535 637.5 539.5 c 128,-1,309
 633 544 633 544 627 544 c 128,-1,310
 621 544 621 544 619 539.5 c 128,-1,311
 617 535 617 535 621 530 c 0,312,313
 630 515 630 515 636 515 c 128,-1,314
 642 515 642 515 642 530 c 0,307,308
814 544 m 0,315,316
 824 550 824 550 826 553 c 128,-1,317
 828 556 828 556 825 557 c 128,-1,318
 822 558 822 558 811 558 c 0,319,320
 787 558 787 558 778 544 c 128,-1,321
 769 530 769 530 782 530 c 0,322,323
 794 531 794 531 814 544 c 0,315,316
571 564.5 m 128,-1,325
 571 571 571 571 556 580 c 0,326,327
 550 583 550 583 546 581.5 c 128,-1,328
 542 580 542 580 542 573.5 c 128,-1,329
 542 567 542 567 546 562.5 c 128,-1,330
 550 558 550 558 556 558 c 0,331,324
 571 558 571 558 571 564.5 c 128,-1,325
391 680 m 2,332,-1
 371 751 l 1,333,-1
 378 688 l 2,334,335
 389 597 389 597 405 603 c 0,336,337
 406 603 406 603 407 604 c 0,338,339
 412 609 412 609 391 680 c 2,332,-1
430 703 m 2,340,-1
 416 751 l 1,341,-1
 415 708 l 2,342,343
 414 666 414 666 424 630 c 0,344,345
 431 603 431 603 434 604 c 0,346,347
 436 604 436 604 439 625 c 0,348,349
 444 655 444 655 430 703 c 2,340,-1
482 708 m 0,350,351
 482 739 482 739 481 740 c 1,352,-1
 477 735 l 2,353,354
 475 730 475 730 471 716 c 0,355,356
 459 680 459 680 459 637 c 0,357,358
 459 607 459 607 460 605 c 1,359,-1
 464 610 l 2,360,361
 466 615 466 615 471 630 c 0,362,363
 482 666 482 666 482 708 c 0,350,351
113 636 m 128,-1,365
 113 642 113 642 99 651 c 0,366,367
 93 655 93 655 88.5 653 c 128,-1,368
 84 651 84 651 84 645 c 128,-1,369
 84 639 84 639 88.5 634.5 c 128,-1,370
 93 630 93 630 99 630 c 0,371,364
 113 630 113 630 113 636 c 128,-1,365
714 689 m 0,372,373
 714 695 714 695 709.5 696.5 c 128,-1,374
 705 698 705 698 699 694 c 0,375,376
 685 685 685 685 685 671 c 0,377,378
 685 665 685 665 689.5 663.5 c 128,-1,379
 694 662 694 662 699 666 c 0,380,381
 714 674 714 674 714 689 c 0,372,373
549 744 m 0,382,383
 553 750 553 750 551 754 c 128,-1,384
 549 758 549 758 543 758 c 128,-1,385
 537 758 537 758 532.5 754 c 128,-1,386
 528 750 528 750 528 744 c 0,387,388
 528 730 528 730 534 730 c 128,-1,389
 540 730 540 730 549 744 c 0,382,383
EndSplineSet
Validated: 33
EndChar

StartChar: Q
Encoding: 81 81 19
Width: 967
GlyphClass: 2
Flags: W
LayerCount: 2
Fore
SplineSet
691.5 -134.5 m 128,-1,1
 622 -70 622 -70 601 -79.5 c 128,-1,2
 580 -89 580 -89 477 -94 c 0,3,4
 405 -98 405 -98 377.5 -92.5 c 128,-1,5
 350 -87 350 -87 292 -57 c 0,6,7
 207 -13 207 -13 150.5 61 c 128,-1,8
 94 135 94 135 72.5 218 c 128,-1,9
 51 301 51 301 59 391.5 c 128,-1,10
 67 482 67 482 103 559.5 c 128,-1,11
 139 637 139 637 207.5 698.5 c 128,-1,12
 276 760 276 760 366 786 c 0,13,14
 458 810 458 810 545 791 c 128,-1,15
 632 772 632 772 708 711 c 128,-1,16
 784 650 784 650 828 561 c 0,17,18
 851 512 851 512 857 478.5 c 128,-1,19
 863 445 863 445 863 359 c 0,20,21
 864 279 864 279 858 240.5 c 128,-1,22
 852 202 852 202 833 156 c 2,23,-1
 802 81 l 1,24,-1
 865 26 l 1,25,-1
 927 -29 l 1,26,-1
 852 -115 l 2,27,28
 777 -200 777 -200 769 -199.5 c 128,-1,0
 761 -199 761 -199 691.5 -134.5 c 128,-1,1
777 -85 m 0,29,30
 773 -59 773 -59 777.5 -54.5 c 128,-1,31
 782 -50 782 -50 808 -55 c 0,32,33
 844 -62 844 -62 844 -55 c 0,34,35
 844 -40 844 -40 820.5 2 c 128,-1,36
 797 44 797 44 789 44 c 0,37,38
 778 44 778 44 802 2 c 0,39,40
 803 1 803 1 804 -1 c 0,41,42
 824 -36 824 -36 818 -43 c 128,-1,43
 812 -50 812 -50 777 -32 c 0,44,45
 759 -22 759 -22 756 -26 c 128,-1,46
 753 -30 753 -30 757 -58 c 0,47,48
 762 -92 762 -92 757.5 -94.5 c 128,-1,49
 753 -97 753 -97 718 -77 c 2,50,-1
 683 -56 l 1,51,-1
 719 -90 l 2,52,53
 779 -145 779 -145 779 -102 c 0,54,55
 779 -95 779 -95 777 -85 c 0,29,30
831 -97.5 m 128,-1,57
 831 -92 831 -92 827.5 -88.5 c 128,-1,58
 824 -85 824 -85 818.5 -85 c 128,-1,59
 813 -85 813 -85 809.5 -88.5 c 128,-1,60
 806 -92 806 -92 806 -97.5 c 128,-1,61
 806 -103 806 -103 809.5 -106.5 c 128,-1,62
 813 -110 813 -110 818.5 -110 c 128,-1,63
 824 -110 824 -110 827.5 -106.5 c 128,-1,56
 831 -103 831 -103 831 -97.5 c 128,-1,57
547 101 m 0,64,65
 537 111 537 111 465.5 99.5 c 128,-1,66
 394 88 394 88 394 76 c 0,67,68
 394 60 394 60 427 -15 c 2,69,-1
 461 -91 l 1,70,-1
 507 2 l 2,71,72
 553 95 553 95 547 101 c 0,64,65
435 25 m 2,73,-1
 407 83 l 1,74,-1
 465 83 l 2,75,76
 522 83 522 83 522 76 c 128,-1,77
 522 69 522 69 496 18 c 128,-1,78
 470 -33 470 -33 466.5 -33 c 128,-1,79
 463 -33 463 -33 435 25 c 2,73,-1
484 37 m 128,-1,81
 484 43 484 43 471 50 c 0,82,83
 466 54 466 54 462 52 c 128,-1,84
 458 50 458 50 458 44.5 c 128,-1,85
 458 39 458 39 462 35 c 128,-1,86
 466 31 466 31 471 31 c 0,87,80
 484 31 484 31 484 37 c 128,-1,81
741 -46 m 0,88,89
 741 -33 741 -33 735.5 -33 c 128,-1,90
 730 -33 730 -33 722 -46 c 0,91,92
 719 -51 719 -51 720.5 -55 c 128,-1,93
 722 -59 722 -59 727.5 -59 c 128,-1,94
 733 -59 733 -59 737 -55 c 128,-1,95
 741 -51 741 -51 741 -46 c 0,88,89
354 9 m 0,96,97
 379 95 379 95 375 96 c 0,98,99
 372 96 372 96 357.5 69.5 c 128,-1,100
 343 43 343 43 333 15.5 c 128,-1,101
 323 -12 323 -12 321.5 -28 c 128,-1,102
 320 -44 320 -44 327 -46 c 0,103,104
 332 -46 332 -46 339.5 -30 c 128,-1,105
 347 -14 347 -14 354 9 c 0,96,97
548 -33 m 128,-1,107
 548 -28 548 -28 544.5 -24 c 128,-1,108
 541 -20 541 -20 535.5 -20 c 128,-1,109
 530 -20 530 -20 526 -24 c 128,-1,110
 522 -28 522 -28 522 -33 c 128,-1,111
 522 -38 522 -38 526 -42 c 128,-1,112
 530 -46 530 -46 535.5 -46 c 128,-1,113
 541 -46 541 -46 544.5 -42 c 128,-1,106
 548 -38 548 -38 548 -33 c 128,-1,107
714 5 m 0,114,115
 725 19 725 19 734 31 c 128,-1,116
 743 43 743 43 747.5 50 c 128,-1,117
 752 57 752 57 751 57 c 0,118,119
 747 57 747 57 696 5 c 0,120,121
 652 -42 652 -42 659 -46 c 0,122,123
 665 -46 665 -46 681 -31 c 128,-1,124
 697 -16 697 -16 714 5 c 0,114,115
341 108 m 0,125,126
 341 120 341 120 327 95 c 0,127,128
 299 43 299 43 286 -7 c 0,129,130
 284 -17 284 -17 287 -15 c 0,131,132
 292 -11 292 -11 309 25 c 0,133,134
 341 89 341 89 341 108 c 0,125,126
601 56 m 2,135,-1
 595 102 l 1,136,-1
 585 57 l 1,137,-1
 578 32 l 1,138,139
 577 35 577 35 580 75 c 0,140,141
 583 128 583 128 575 123 c 0,142,143
 574 122 574 122 573 120 c 0,144,145
 563 104 563 104 561.5 63.5 c 128,-1,146
 560 23 560 23 569 1 c 0,147,148
 579 -25 579 -25 591 -6 c 0,149,150
 606 16 606 16 601 56 c 2,135,-1
246 99 m 0,151,152
 285 118 285 118 306 151 c 0,153,154
 321 173 321 173 304 173 c 0,155,156
 299 173 299 173 295 167.5 c 128,-1,157
 291 162 291 162 291 154.5 c 128,-1,158
 291 147 291 147 276.5 134.5 c 128,-1,159
 262 122 262 122 242.5 112.5 c 128,-1,160
 223 103 223 103 208.5 90.5 c 128,-1,161
 194 78 194 78 193 70 c 0,162,163
 192 60 192 60 194 60 c 0,164,165
 195 60 195 60 197 64 c 0,166,167
 202 78 202 78 246 99 c 0,151,152
773 95 m 0,168,169
 777 101 777 101 765 104 c 0,170,171
 757 105 757 105 746 104 c 0,172,173
 727 103 727 103 715 109.5 c 128,-1,174
 703 116 703 116 695 133 c 0,175,176
 679 164 679 164 658 175 c 128,-1,177
 637 186 637 186 616 174 c 0,178,179
 599 164 599 164 607 162 c 0,180,181
 612 160 612 160 629 160 c 0,182,183
 665 160 665 160 673 137.5 c 128,-1,184
 681 115 681 115 693 99 c 0,185,186
 704 85 704 85 734.5 83.5 c 128,-1,187
 765 82 765 82 773 95 c 0,168,169
240 187 m 0,188,189
 266 206 266 206 257 211 c 0,190,191
 256 211 256 211 255 211 c 0,192,193
 248 211 248 211 245 215 c 128,-1,194
 242 219 242 219 246 224 c 0,195,196
 254 237 254 237 246 237 c 0,197,198
 241 237 241 237 227 230 c 128,-1,199
 213 223 213 223 196 213 c 128,-1,200
 179 203 179 203 163 192 c 128,-1,201
 147 181 147 181 137 173 c 128,-1,202
 127 165 127 165 129 163 c 0,203,204
 135 157 135 157 181.5 185.5 c 128,-1,205
 228 214 228 214 235 207 c 0,206,207
 237 206 237 206 231.5 200 c 128,-1,208
 226 194 226 194 214.5 186.5 c 128,-1,209
 203 179 203 179 189 171 c 0,210,211
 167 158 167 158 152 146 c 128,-1,212
 137 134 137 134 136 130 c 0,213,214
 136 117 136 117 199 157 c 0,215,216
 220 171 220 171 240 187 c 0,188,189
535 154 m 0,217,218
 551 162 551 162 571.5 184 c 128,-1,219
 592 206 592 206 606 229 c 0,220,221
 636 280 636 280 638.5 340 c 128,-1,222
 641 400 641 400 621 448.5 c 128,-1,223
 601 497 601 497 559.5 530 c 128,-1,224
 518 563 518 563 466 564 c 0,225,226
 430 565 430 565 411.5 558 c 128,-1,227
 393 551 393 551 368 527 c 0,228,229
 324 485 324 485 307.5 447 c 128,-1,230
 291 409 291 409 291 351 c 0,231,232
 291 291 291 291 312 242 c 128,-1,233
 333 193 333 193 367 167 c 128,-1,234
 401 141 401 141 445 134.5 c 128,-1,235
 489 128 489 128 535 154 c 0,217,218
813 212 m 0,236,237
 821 226 821 226 811 230 c 0,238,239
 801 235 801 235 735 241 c 0,240,241
 677 246 677 246 682 241 c 0,242,243
 683 240 683 240 690 237 c 0,244,245
 711 230 711 230 712 228 c 0,246,247
 712 226 712 226 696 225 c 2,248,-1
 671 222 l 1,249,-1
 696 211 l 2,250,251
 724 200 724 200 764.5 200 c 128,-1,252
 805 200 805 200 813 212 c 0,236,237
745 220 m 0,253,254
 768 226 768 226 783 220 c 0,255,256
 792 216 792 216 779 215 c 0,257,258
 772 214 772 214 761 214 c 0,259,260
 738 214 738 214 739 217 c 0,261,262
 739 219 739 219 745 220 c 0,253,254
123 237 m 0,263,264
 123 250 123 250 117.5 250 c 128,-1,265
 112 250 112 250 104 237 c 0,266,267
 101 232 101 232 102.5 228 c 128,-1,268
 104 224 104 224 109.5 224 c 128,-1,269
 115 224 115 224 119 228 c 128,-1,270
 123 232 123 232 123 237 c 0,263,264
254 322 m 0,271,272
 259 381 259 381 249 387 c 0,273,274
 246 389 246 389 243 379 c 0,275,276
 239 365 239 365 239 341 c 0,277,278
 239 289 239 289 232 289 c 128,-1,279
 225 289 225 289 166 315 c 2,280,-1
 107 342 l 1,281,-1
 144 367 l 2,282,283
 181 391 181 391 217 399 c 0,284,285
 245 405 245 405 253 421 c 0,286,287
 259 430 259 430 244 430 c 0,288,289
 232 430 232 430 152 389.5 c 128,-1,290
 72 349 72 349 72 343 c 0,291,292
 73 335 73 335 145 300 c 128,-1,293
 217 265 217 265 235 264 c 0,294,295
 241 263 241 263 246.5 279.5 c 128,-1,296
 252 296 252 296 254 322 c 0,271,272
772 309 m 0,297,298
 885 366 885 366 844 366 c 0,299,300
 825 366 825 366 749 404.5 c 128,-1,301
 673 443 673 443 668.5 443 c 128,-1,302
 664 443 664 443 664 359 c 0,303,304
 664 339 664 339 664.5 327 c 128,-1,305
 665 315 665 315 667 303.5 c 128,-1,306
 669 292 669 292 671.5 287 c 128,-1,307
 674 282 674 282 680 279 c 128,-1,308
 686 276 686 276 692.5 276.5 c 128,-1,309
 699 277 699 277 712 281.5 c 128,-1,310
 725 286 725 286 737.5 292 c 128,-1,311
 750 298 750 298 772 309 c 0,297,298
677 353 m 0,312,313
 677 416 677 416 692 416 c 0,314,315
 698 416 698 416 710 405 c 0,316,317
 723 392 723 392 774 375 c 2,318,-1
 825 357 l 1,319,-1
 783 335 l 2,320,321
 741 314 741 314 709 302 c 0,322,323
 685 292 685 292 681 299 c 128,-1,324
 677 306 677 306 677 353 c 0,312,313
728 353 m 128,-1,326
 728 358 728 358 724.5 362 c 128,-1,327
 721 366 721 366 715.5 366 c 128,-1,328
 710 366 710 366 706.5 362 c 128,-1,329
 703 358 703 358 703 353 c 128,-1,330
 703 348 703 348 706.5 344 c 128,-1,331
 710 340 710 340 715.5 340 c 128,-1,332
 721 340 721 340 724.5 344 c 128,-1,325
 728 348 728 348 728 353 c 128,-1,326
831 289 m 0,333,334
 831 294 831 294 827 297.5 c 128,-1,335
 823 301 823 301 817.5 301 c 128,-1,336
 812 301 812 301 810.5 297.5 c 128,-1,337
 809 294 809 294 812 289 c 0,338,339
 820 276 820 276 825.5 276 c 128,-1,340
 831 276 831 276 831 289 c 0,333,334
201 353 m 128,-1,342
 201 358 201 358 197 362 c 128,-1,343
 193 366 193 366 188 366 c 128,-1,344
 183 366 183 366 179 362 c 128,-1,345
 175 358 175 358 175 353 c 128,-1,346
 175 348 175 348 179 344 c 128,-1,347
 183 340 183 340 188 340 c 128,-1,348
 193 340 193 340 197 344 c 128,-1,341
 201 348 201 348 201 353 c 128,-1,342
844 397.5 m 128,-1,350
 844 403 844 403 831 411 c 0,351,352
 826 414 826 414 822.5 412.5 c 128,-1,353
 819 411 819 411 819 405.5 c 128,-1,354
 819 400 819 400 822.5 396 c 128,-1,355
 826 392 826 392 831 392 c 0,356,349
 844 392 844 392 844 397.5 c 128,-1,350
123 430 m 128,-1,358
 123 435 123 435 119.5 439 c 128,-1,359
 116 443 116 443 110.5 443 c 128,-1,360
 105 443 105 443 101.5 439 c 128,-1,361
 98 435 98 435 98 430 c 128,-1,362
 98 425 98 425 101.5 421 c 128,-1,363
 105 417 105 417 110.5 417 c 128,-1,364
 116 417 116 417 119.5 421 c 128,-1,357
 123 425 123 425 123 430 c 128,-1,358
233 462 m 0,365,366
 129 494 129 494 104 489 c 0,367,368
 100 488 100 488 103 485 c 0,369,370
 113 475 113 475 168 460.5 c 128,-1,371
 223 446 223 446 252 446 c 0,372,373
 276 446 276 446 259 453 c 0,374,375
 251 456 251 456 233 462 c 0,365,366
780 456 m 1,376,-1
 722 465 l 1,377,-1
 779 467 l 2,378,379
 832 469 832 469 828 477 c 0,380,381
 820 485 820 485 732 475 c 0,382,383
 666 467 666 467 665 462 c 0,384,385
 665 460 665 460 683 455 c 0,386,387
 722 446 722 446 780 447 c 2,388,-1
 838 447 l 1,389,-1
 780 456 l 1,376,-1
251 487 m 0,390,391
 246 492 246 492 176 512 c 0,392,393
 112 531 112 531 118 522 c 0,394,395
 121 515 121 515 166 499 c 0,396,397
 217 480 217 480 247 482 c 0,398,399
 255 483 255 483 251 487 c 0,390,391
312 504 m 0,400,401
 331 511 331 511 319 515 c 0,402,403
 313 517 313 517 298 520 c 0,404,405
 261 527 261 527 239.5 565.5 c 128,-1,406
 218 604 218 604 184 608 c 0,407,408
 169 610 169 610 159 607.5 c 128,-1,409
 149 605 149 605 149 600 c 128,-1,410
 149 595 149 595 158.5 593.5 c 128,-1,411
 168 592 168 592 181 594 c 0,412,413
 200 598 200 598 208 592.5 c 128,-1,414
 216 587 216 587 221 566 c 0,415,416
 224 552 224 552 234.5 536.5 c 128,-1,417
 245 521 245 521 257 514 c 0,418,419
 280 497 280 497 285 496 c 128,-1,420
 290 495 290 495 312 504 c 0,400,401
690 546 m 0,421,422
 740 546 740 546 760 562.5 c 128,-1,423
 780 579 780 579 779 619 c 0,424,425
 779 643 779 643 761 601 c 0,426,427
 749 574 749 574 736 566.5 c 128,-1,428
 723 559 723 559 682 556 c 0,429,430
 621 552 621 552 618 536 c 0,431,432
 617 531 617 531 617 529 c 0,433,434
 618 526 618 526 621 533 c 0,435,436
 624 538 624 538 644.5 542 c 128,-1,437
 665 546 665 546 690 546 c 0,421,422
308 621 m 0,438,439
 287 701 287 701 281 695 c 0,440,441
 277 691 277 691 290.5 624 c 128,-1,442
 304 557 304 557 313 542 c 0,443,444
 324 523 324 523 323 542 c 0,445,446
 322 563 322 563 308 621 c 0,438,439
623 594 m 0,447,448
 648 630 648 630 663 662 c 0,449,450
 671 679 671 679 668 678 c 0,451,452
 664 678 664 678 639 649 c 0,453,454
 599 603 599 603 602 617 c 0,455,456
 603 628 603 628 627 668 c 0,457,458
 654 714 654 714 647 722 c 0,459,460
 645 724 645 724 639 716.5 c 128,-1,461
 633 709 633 709 624 694.5 c 128,-1,462
 615 680 615 680 606 662 c 0,463,464
 575 599 575 599 586 603 c 0,465,466
 599 612 599 612 599 601 c 0,467,468
 599 589 599 589 584 574 c 256,469,470
 569 559 569 559 583 559 c 0,471,472
 589 559 589 559 601 569.5 c 128,-1,473
 613 580 613 580 623 594 c 0,447,448
341 639 m 0,474,475
 331 694 331 694 330 712 c 0,476,477
 330 724 330 724 325 724 c 0,478,479
 323 725 323 725 322 723 c 0,480,481
 314 715 314 715 323.5 650 c 128,-1,482
 333 585 333 585 342 585 c 0,483,484
 344 585 344 585 345 592 c 128,-1,485
 346 599 346 599 345 612 c 128,-1,486
 344 625 344 625 341 639 c 0,474,475
548 600 m 128,-1,488
 548 615 548 615 521 696 c 0,489,490
 502 751 502 751 487 767.5 c 128,-1,491
 472 784 472 784 454 769 c 128,-1,492
 436 754 436 754 408 702 c 0,493,494
 368 626 368 626 368 613 c 0,495,496
 368 591 368 591 494 587 c 0,497,487
 548 585 548 585 548 600 c 128,-1,488
401 639 m 0,498,499
 409 668 409 668 436 716.5 c 128,-1,500
 463 765 463 765 470 765 c 256,501,502
 477 765 477 765 505 688 c 2,503,-1
 532 610 l 1,504,-1
 462 610 l 2,505,506
 412 610 412 610 403.5 614.5 c 128,-1,507
 395 619 395 619 401 639 c 0,498,499
477 662 m 0,508,509
 481 667 481 667 477 671 c 128,-1,510
 473 675 473 675 464.5 675 c 128,-1,511
 456 675 456 675 452 671 c 128,-1,512
 448 667 448 667 452 662 c 0,513,514
 460 649 460 649 464.5 649 c 128,-1,515
 469 649 469 649 477 662 c 0,508,509
387 726 m 0,516,517
 391 732 391 732 389 735.5 c 128,-1,518
 387 739 387 739 381.5 739 c 128,-1,519
 376 739 376 739 372 735.5 c 128,-1,520
 368 732 368 732 368 726 c 0,521,522
 368 713 368 713 373.5 713 c 128,-1,523
 379 713 379 713 387 726 c 0,516,517
568 726 m 0,524,525
 571 732 571 732 569 735.5 c 128,-1,526
 567 739 567 739 561.5 739 c 128,-1,527
 556 739 556 739 552 735.5 c 128,-1,528
 548 732 548 732 548 726 c 0,529,530
 548 713 548 713 554 713 c 128,-1,531
 560 713 560 713 568 726 c 0,524,525
EndSplineSet
Validated: 33
EndChar

StartChar: R
Encoding: 82 82 20
Width: 930
GlyphClass: 2
Flags: W
LayerCount: 2
Fore
SplineSet
600 -110 m 1,0,-1
 447 -20 l 1,1,-1
 443 -65 l 2,2,3
 443 -69 443 -69 442 -75 c 0,4,5
 440 -98 440 -98 439.5 -108 c 128,-1,6
 439 -118 439 -118 435.5 -132 c 128,-1,7
 432 -146 432 -146 430.5 -150 c 128,-1,8
 429 -154 429 -154 420 -160.5 c 128,-1,9
 411 -167 411 -167 406 -168 c 128,-1,10
 401 -169 401 -169 384 -170.5 c 128,-1,11
 367 -172 367 -172 355.5 -171.5 c 128,-1,12
 344 -171 344 -171 316 -170 c 0,13,14
 308 -169 308 -169 304 -169 c 2,15,-1
 183 -165 l 1,16,-1
 176 134 l 2,17,18
 173 236 173 236 171.5 280.5 c 128,-1,19
 170 325 170 325 168 367.5 c 128,-1,20
 166 410 166 410 160.5 427 c 128,-1,21
 155 444 155 444 150 457 c 128,-1,22
 145 470 145 470 132 489 c 0,23,24
 22 659 22 659 53 679 c 0,25,26
 142 740 142 740 260.5 772.5 c 128,-1,27
 379 805 379 805 486 799 c 0,28,29
 579 794 579 794 653 767 c 128,-1,30
 727 740 727 740 775.5 698 c 128,-1,31
 824 656 824 656 848.5 599.5 c 128,-1,32
 873 543 873 543 870 480 c 128,-1,33
 867 417 867 417 834.5 346.5 c 128,-1,34
 802 276 802 276 741 208 c 0,35,36
 677 137 677 137 677 130.5 c 128,-1,37
 677 124 677 124 781 73 c 2,38,-1
 885 21 l 1,39,-1
 845 -58 l 2,40,41
 805 -138 805 -138 779 -169 c 2,42,-1
 753 -200 l 1,43,-1
 600 -110 l 1,0,-1
772 -77 m 0,44,45
 786 -59 786 -59 786 -63 c 256,46,47
 786 -67 786 -67 766 -127 c 0,48,49
 763 -135 763 -135 766 -133 c 0,50,51
 772 -131 772 -131 786 -110 c 0,52,53
 815 -69 815 -69 800 -59.5 c 128,-1,54
 785 -50 785 -50 801 -21 c 0,55,56
 815 7 815 7 806 9 c 0,57,58
 797 8 797 8 757.5 -60 c 128,-1,59
 718 -128 718 -128 719 -141 c 0,60,61
 720 -150 720 -150 735 -128 c 0,62,63
 736 -127 736 -127 737 -126 c 0,64,65
 753 -100 753 -100 772 -77 c 0,44,45
363 5 m 0,66,67
 317 112 317 112 305 116 c 0,68,69
 300 118 300 118 286 86.5 c 128,-1,70
 272 55 272 55 257 9 c 2,71,-1
 220 -101 l 1,72,-1
 306 -105 l 2,73,74
 391 -110 391 -110 401 -106 c 0,75,76
 405 -104 405 -104 394 -71.5 c 128,-1,77
 383 -39 383 -39 363 5 c 0,66,67
272 -13 m 2,78,79
 301 84 301 84 312 78 c 0,80,81
 315 77 315 77 315 67 c 0,82,83
 315 50 315 50 348 -19 c 2,84,-1
 382 -89 l 1,85,-1
 315 -89 l 1,86,-1
 248 -89 l 1,87,-1
 272 -13 l 2,78,79
310 -9 m 0,88,89
 306 8 306 8 304 -13 c 0,90,91
 304 -18 304 -18 304 -26 c 0,92,93
 303 -56 303 -56 308 -54 c 0,94,95
 309 -54 309 -54 310 -51 c 0,96,97
 317 -34 317 -34 310 -9 c 0,88,89
676 -54 m 0,98,99
 692 -46 692 -46 706 -33 c 128,-1,100
 720 -20 720 -20 724 -11 c 0,101,102
 735 19 735 19 726 17 c 0,103,104
 717 16 717 16 699 -12 c 0,105,106
 686 -31 686 -31 671 -39 c 128,-1,107
 656 -47 656 -47 631 -47 c 0,108,109
 591 -47 591 -47 573.5 -36.5 c 128,-1,110
 556 -26 556 -26 539 5 c 0,111,112
 529 26 529 26 530.5 44.5 c 128,-1,113
 532 63 532 63 544.5 74 c 128,-1,114
 557 85 557 85 573.5 89.5 c 128,-1,115
 590 94 590 94 610.5 88 c 128,-1,116
 631 82 631 82 648 65 c 0,117,118
 675 38 675 38 667 15.5 c 128,-1,119
 659 -7 659 -7 624 -2 c 0,120,121
 609 -1 609 -1 596.5 6 c 128,-1,122
 584 13 584 13 582 21 c 0,123,124
 578 31 578 31 582 34 c 128,-1,125
 586 37 586 37 598 32 c 0,126,127
 608 29 608 29 614.5 30.5 c 128,-1,128
 621 32 621 32 621 38 c 0,129,130
 621 54 621 54 599 48 c 0,131,132
 573 40 573 40 568 20 c 0,133,134
 566 10 566 10 573.5 -1.5 c 128,-1,135
 581 -13 581 -13 593 -19 c 0,136,137
 611 -29 611 -29 624 -27.5 c 128,-1,138
 637 -26 637 -26 657 -13 c 0,139,140
 687 7 687 7 688.5 29 c 128,-1,141
 690 51 690 51 663 78 c 0,142,143
 635 106 635 106 587 106.5 c 128,-1,144
 539 107 539 107 524 79 c 0,145,146
 507 47 507 47 512.5 22.5 c 128,-1,147
 518 -2 518 -2 550 -34 c 0,148,149
 585 -69 585 -69 609 -72.5 c 128,-1,150
 633 -76 633 -76 676 -54 c 0,98,99
398 64.5 m 128,-1,152
 398 70 398 70 394 74 c 128,-1,153
 390 78 390 78 384.5 78 c 128,-1,154
 379 78 379 78 374.5 74 c 128,-1,155
 370 70 370 70 370 64.5 c 128,-1,156
 370 59 370 59 374.5 54.5 c 128,-1,157
 379 50 379 50 384.5 50 c 128,-1,158
 390 50 390 50 394 54.5 c 128,-1,151
 398 59 398 59 398 64.5 c 128,-1,152
467 178 m 0,159,160
 454 226 454 226 446 223 c 0,161,162
 445 223 445 223 444 221 c 0,163,164
 437 202 437 202 459 141 c 0,165,166
 471 109 471 109 477 111 c 0,167,168
 484 117 484 117 467 178 c 0,159,160
591 175 m 0,169,170
 572 197 572 197 554.5 213.5 c 128,-1,171
 537 230 537 230 531 230 c 0,172,173
 519 231 519 231 566 182 c 0,174,175
 569 179 569 179 572 176 c 0,176,177
 634 112 634 112 631 123 c 0,178,179
 629 131 629 131 591 175 c 0,169,170
517 205 m 0,180,181
 491 251 491 251 483 249 c 0,182,183
 482 248 482 248 482 245 c 0,184,185
 482 233 482 233 496 205 c 128,-1,186
 510 177 510 177 525.5 155 c 128,-1,187
 541 133 541 133 545 137 c 0,188,189
 552 144 552 144 517 205 c 0,180,181
395 168 m 128,-1,191
 400 173 400 173 352 268 c 2,192,-1
 303 364 l 1,193,-1
 276 301 l 2,194,195
 248 238 248 238 238 191 c 2,196,-1
 228 144 l 1,197,-1
 309 153 l 2,198,190
 390 163 390 163 395 168 c 128,-1,191
265 207 m 0,199,200
 274 238 274 238 282 276.5 c 128,-1,201
 290 315 290 315 299 314.5 c 128,-1,202
 308 314 308 314 338 245 c 2,203,-1
 369 176 l 1,204,-1
 312 176 l 2,205,206
 273 176 273 176 266 180.5 c 128,-1,207
 259 185 259 185 265 207 c 0,199,200
310 234 m 0,208,209
 304 250 304 250 302 231 c 0,210,211
 302 228 302 228 302 226 c 0,212,213
 301 205 301 205 307 206 c 0,214,215
 308 206 308 206 309 207 c 0,216,217
 318 216 318 216 310 234 c 0,208,209
704 231 m 0,218,219
 704 237 704 237 700 241 c 128,-1,220
 696 245 696 245 690 245 c 128,-1,221
 684 245 684 245 682 241 c 128,-1,222
 680 237 680 237 684 231 c 0,223,224
 692 217 692 217 698 217 c 128,-1,225
 704 217 704 217 704 231 c 0,218,219
593 245.5 m 128,-1,227
 593 251 593 251 589 255 c 128,-1,228
 585 259 585 259 579 259 c 128,-1,229
 573 259 573 259 569 255 c 128,-1,230
 565 251 565 251 565 245.5 c 128,-1,231
 565 240 565 240 569 235.5 c 128,-1,232
 573 231 573 231 579 231 c 128,-1,233
 585 231 585 231 589 235.5 c 128,-1,226
 593 240 593 240 593 245.5 c 128,-1,227
505 313 m 0,234,235
 621 397 621 397 621 471 c 0,236,237
 621 495 621 495 611.5 507 c 128,-1,238
 602 519 602 519 573 531 c 0,239,240
 524 551 524 551 475 551 c 2,241,-1
 426 551 l 1,242,-1
 426 412 l 2,243,244
 426 355 426 355 429.5 314 c 128,-1,245
 433 273 433 273 438 273 c 0,246,247
 450 273 450 273 505 313 c 0,234,235
565 287 m 128,-1,249
 565 293 565 293 561 297 c 128,-1,250
 557 301 557 301 551.5 301 c 128,-1,251
 546 301 546 301 541.5 297 c 128,-1,252
 537 293 537 293 537 287 c 128,-1,253
 537 281 537 281 541.5 277 c 128,-1,254
 546 273 546 273 551.5 273 c 128,-1,255
 557 273 557 273 561 277 c 128,-1,248
 565 281 565 281 565 287 c 128,-1,249
656 287 m 0,256,257
 659 293 659 293 657.5 297 c 128,-1,258
 656 301 656 301 649.5 301 c 128,-1,259
 643 301 643 301 639 297 c 128,-1,260
 635 293 635 293 635 287 c 0,261,262
 635 273 635 273 641 273 c 128,-1,263
 647 273 647 273 656 287 c 0,256,257
607 329 m 0,264,265
 607 335 607 335 602.5 339 c 128,-1,266
 598 343 598 343 592 343 c 128,-1,267
 586 343 586 343 584.5 339 c 128,-1,268
 583 335 583 335 586 329 c 0,269,270
 595 315 595 315 601 315 c 128,-1,271
 607 315 607 315 607 329 c 0,264,265
739 378 m 0,272,273
 684 426 684 426 670 425 c 0,274,275
 658 425 658 425 701 385 c 0,276,277
 706 381 706 381 710 377 c 0,278,279
 765 329 765 329 780 329 c 0,280,281
 792 330 792 330 750 368 c 0,282,283
 745 373 745 373 739 378 c 0,272,273
649 371 m 0,284,285
 649 376 649 376 644.5 380 c 128,-1,286
 640 384 640 384 634 384 c 128,-1,287
 628 384 628 384 626 380 c 128,-1,288
 624 376 624 376 628 371 c 0,289,290
 636 357 636 357 642.5 357 c 128,-1,291
 649 357 649 357 649 371 c 0,284,285
384 383 m 0,292,293
 384 389 384 389 346 389.5 c 128,-1,294
 308 390 308 390 266.5 385.5 c 128,-1,295
 225 381 225 381 218 376 c 0,296,297
 213 371 213 371 299 371 c 0,298,299
 334 371 334 371 359 374.5 c 128,-1,300
 384 378 384 378 384 383 c 0,292,293
809 384 m 0,301,302
 812 390 812 390 810.5 394 c 128,-1,303
 809 398 809 398 803 398 c 128,-1,304
 797 398 797 398 792.5 394 c 128,-1,305
 788 390 788 390 788 384 c 0,306,307
 788 371 788 371 794 371 c 128,-1,308
 800 371 800 371 809 384 c 0,301,302
296 446 m 0,309,310
 333 448 333 448 358.5 465.5 c 128,-1,311
 384 483 384 483 384 508 c 0,312,313
 384 526 384 526 372 512 c 0,314,315
 368 507 368 507 363 499 c 0,316,317
 341 468 341 468 296 468 c 0,318,319
 277 468 277 468 256 461.5 c 128,-1,320
 235 455 235 455 223 446 c 0,321,322
 203 430 203 430 203.5 428.5 c 128,-1,323
 204 427 204 427 224 434 c 0,324,325
 252 444 252 444 296 446 c 0,309,310
798 464 m 0,326,327
 746 470 746 470 701 464 c 0,328,329
 678 461 678 461 704 460 c 0,330,331
 721 459 721 459 753 459 c 0,332,333
 816 459 816 459 811 462 c 0,334,335
 809 463 809 463 798 464 c 0,326,327
324 540 m 0,336,337
 336 552 336 552 347.5 570 c 128,-1,338
 359 588 359 588 363 602 c 0,339,340
 369 629 369 629 349.5 680.5 c 128,-1,341
 330 732 330 732 312 732 c 0,342,343
 301 732 301 732 318 706 c 0,344,345
 319 704 319 704 321 701 c 0,346,347
 344 669 344 669 342 623 c 128,-1,348
 340 577 340 577 315 551 c 0,349,350
 288 525 288 525 251.5 524 c 128,-1,351
 215 523 215 523 188.5 546.5 c 128,-1,352
 162 570 162 570 162 607 c 0,353,354
 162 640 162 640 178.5 658.5 c 128,-1,355
 195 677 195 677 224 677 c 256,356,357
 253 677 253 677 270 659.5 c 128,-1,358
 287 642 287 642 287 613 c 0,359,360
 287 585 287 585 267.5 575.5 c 128,-1,361
 248 566 248 566 231 586 c 0,362,363
 222 597 222 597 224 604 c 128,-1,364
 226 611 226 611 241 620 c 0,365,366
 258 629 258 629 259 632 c 0,367,368
 260 634 260 634 252 634 c 0,369,370
 249 634 249 634 241 635 c 0,371,372
 216 635 216 635 208.5 612 c 128,-1,373
 201 589 201 589 221 570 c 0,374,375
 233 558 233 558 248 557 c 128,-1,376
 263 556 263 556 275 564.5 c 128,-1,377
 287 573 287 573 296.5 586.5 c 128,-1,378
 306 600 306 600 307 616.5 c 128,-1,379
 308 633 308 633 300 650 c 0,380,381
 288 674 288 674 267.5 686 c 128,-1,382
 247 698 247 698 226.5 697 c 128,-1,383
 206 696 206 696 186.5 687 c 128,-1,384
 167 678 167 678 155 659.5 c 128,-1,385
 143 641 143 641 140 619.5 c 128,-1,386
 137 598 137 598 150 571 c 0,387,388
 177 514 177 514 226.5 505.5 c 128,-1,389
 276 497 276 497 324 540 c 0,336,337
765 533 m 0,390,391
 776 539 776 539 784 544.5 c 128,-1,392
 792 550 792 550 795.5 554.5 c 128,-1,393
 799 559 799 559 798 560 c 0,394,395
 791 567 791 567 723 531 c 0,396,397
 684 510 684 510 687 505 c 0,398,399
 693 498 693 498 760 531 c 0,400,401
 762 532 762 532 765 533 c 0,390,391
830 502 m 128,-1,403
 830 508 830 508 816 517 c 0,404,405
 810 520 810 520 806 518.5 c 128,-1,406
 802 517 802 517 802 510.5 c 128,-1,407
 802 504 802 504 806 500 c 128,-1,408
 810 496 810 496 816 496 c 0,409,402
 830 496 830 496 830 502 c 128,-1,403
677 544 m 128,-1,411
 677 550 677 550 663 558 c 0,412,413
 657 562 657 562 653 560 c 128,-1,414
 649 558 649 558 649 552 c 128,-1,415
 649 546 649 546 653 542 c 128,-1,416
 657 538 657 538 663 538 c 0,417,410
 677 538 677 538 677 544 c 128,-1,411
635 579.5 m 128,-1,419
 635 585 635 585 631 589 c 128,-1,420
 627 593 627 593 621 593 c 128,-1,421
 615 593 615 593 611 589 c 128,-1,422
 607 585 607 585 607 579.5 c 128,-1,423
 607 574 607 574 611 569.5 c 128,-1,424
 615 565 615 565 621 565 c 128,-1,425
 627 565 627 565 631 569.5 c 128,-1,418
 635 574 635 574 635 579.5 c 128,-1,419
593 593 m 128,-1,427
 593 599 593 599 589 603 c 128,-1,428
 585 607 585 607 579 607 c 128,-1,429
 573 607 573 607 569 603 c 128,-1,430
 565 599 565 599 565 593 c 128,-1,431
 565 587 565 587 569 583 c 128,-1,432
 573 579 573 579 579 579 c 128,-1,433
 585 579 585 579 589 583 c 128,-1,426
 593 587 593 587 593 593 c 128,-1,427
440 642 m 128,-1,435
 440 656 440 656 435.5 668.5 c 128,-1,436
 431 681 431 681 425 684 c 0,437,438
 410 694 410 694 383 737 c 0,439,440
 363 770 363 770 358 769 c 0,441,442
 357 768 357 768 357 766 c 0,443,444
 356 752 356 752 391.5 704 c 128,-1,445
 427 656 427 656 419 623 c 0,446,447
 412 596 412 596 422 598 c 0,448,449
 424 599 424 599 426 600 c 0,450,451
 431 604 431 604 435.5 616 c 128,-1,434
 440 628 440 628 440 642 c 128,-1,435
496 634 m 0,452,453
 496 644 496 644 487.5 662 c 128,-1,454
 479 680 479 680 468 694 c 0,455,456
 440 730 440 730 439 749 c 0,457,458
 438 759 438 759 436.5 759.5 c 128,-1,459
 435 760 435 760 431 750 c 0,460,461
 428 743 428 743 435 725.5 c 128,-1,462
 442 708 442 708 454 690 c 0,463,464
 467 672 467 672 474 652 c 128,-1,465
 481 632 481 632 478 620 c 0,466,467
 472 599 472 599 480 600 c 0,468,469
 481 600 481 600 483 601 c 0,470,471
 496 609 496 609 496 634 c 0,452,453
544 621 m 0,472,473
 553 649 553 649 518 708 c 0,474,475
 492 751 492 751 484 748 c 0,476,477
 482 747 482 747 482 744 c 0,478,479
 482 720 482 720 497 711 c 0,480,481
 515 700 515 700 523.5 668.5 c 128,-1,482
 532 637 532 637 521 618 c 0,483,484
 509 593 509 593 522 593 c 0,485,486
 528 593 528 593 534.5 601 c 128,-1,487
 541 609 541 609 544 621 c 0,472,473
718 599.5 m 128,-1,489
 718 606 718 606 704 614 c 0,490,491
 699 618 699 618 695 616 c 128,-1,492
 691 614 691 614 691 608 c 128,-1,493
 691 602 691 602 695 597.5 c 128,-1,494
 699 593 699 593 704 593 c 0,495,488
 718 593 718 593 718 599.5 c 128,-1,489
593 663 m 0,496,497
 593 669 593 669 588.5 673 c 128,-1,498
 584 677 584 677 578 677 c 128,-1,499
 572 677 572 677 570.5 673 c 128,-1,500
 569 669 569 669 572 663 c 0,501,502
 581 649 581 649 587 649 c 128,-1,503
 593 649 593 649 593 663 c 0,496,497
663 663 m 128,-1,505
 663 669 663 669 658.5 673 c 128,-1,506
 654 677 654 677 648.5 677 c 128,-1,507
 643 677 643 677 639 673 c 128,-1,508
 635 669 635 669 635 663 c 128,-1,509
 635 657 635 657 639 653 c 128,-1,510
 643 649 643 649 648.5 649 c 128,-1,511
 654 649 654 649 658.5 653 c 128,-1,504
 663 657 663 657 663 663 c 128,-1,505
649 732 m 0,512,513
 649 746 649 746 642.5 746 c 128,-1,514
 636 746 636 746 628 732 c 0,515,516
 624 727 624 727 626 722.5 c 128,-1,517
 628 718 628 718 634 718 c 128,-1,518
 640 718 640 718 644.5 722.5 c 128,-1,519
 649 727 649 727 649 732 c 0,512,513
EndSplineSet
Validated: 33
EndChar

StartChar: S
Encoding: 83 83 21
Width: 786
GlyphClass: 2
Flags: W
LayerCount: 2
Fore
SplineSet
229 -188 m 0,0,1
 180 -172 180 -172 120.5 -142 c 128,-1,2
 61 -112 61 -112 53 -100 c 0,3,4
 49 -94 49 -94 99 -10.5 c 128,-1,5
 149 73 149 73 176 105 c 0,6,7
 180 110 180 110 248 81 c 0,8,9
 358 34 358 34 433 68 c 0,10,11
 467 84 467 84 467 93 c 0,12,13
 467 107 467 107 384 145 c 0,14,15
 353 159 353 159 277 192 c 0,16,17
 166 241 166 241 112.5 312 c 128,-1,18
 59 383 59 383 59 482 c 0,19,20
 59 573 59 573 112 649.5 c 128,-1,21
 165 726 165 726 253 766.5 c 128,-1,22
 341 807 341 807 440 798 c 0,23,24
 504 793 504 793 568 765 c 128,-1,25
 632 737 632 737 677 695 c 0,26,27
 698 675 698 675 708.5 664.5 c 128,-1,28
 719 654 719 654 724.5 641.5 c 128,-1,29
 730 629 730 629 728 622.5 c 128,-1,30
 726 616 726 616 712 603 c 128,-1,31
 698 590 698 590 681.5 580 c 128,-1,32
 665 570 665 570 631 550 c 2,33,-1
 521 487 l 1,34,-1
 486 515 l 2,35,36
 457 538 457 538 416.5 542 c 128,-1,37
 376 546 376 546 347 531 c 128,-1,38
 318 516 318 516 318 488 c 0,39,40
 318 464 318 464 350 442 c 128,-1,41
 382 420 382 420 457 394 c 0,42,43
 727 302 727 302 727 100 c 0,44,45
 727 16 727 16 674 -55.5 c 128,-1,46
 621 -127 621 -127 529 -167 c 0,47,48
 472 -191 472 -191 376 -198 c 128,-1,49
 280 -205 280 -205 229 -188 c 0,0,1
304 -152 m 0,50,51
 304 -147 304 -147 299.5 -143 c 128,-1,52
 295 -139 295 -139 289 -139 c 128,-1,53
 283 -139 283 -139 281.5 -143 c 128,-1,54
 280 -147 280 -147 283 -152 c 0,55,56
 292 -166 292 -166 298 -166 c 128,-1,57
 304 -166 304 -166 304 -152 c 0,50,51
427 -152 m 0,58,59
 427 -147 427 -147 419.5 -143 c 128,-1,60
 412 -139 412 -139 402 -139 c 0,61,62
 376 -139 376 -139 360.5 -120.5 c 128,-1,63
 345 -102 345 -102 345 -72 c 0,64,65
 345 -35 345 -35 372 -10.5 c 128,-1,66
 399 14 399 14 433.5 12 c 128,-1,67
 468 10 468 10 488 -21 c 0,68,69
 505 -47 505 -47 498.5 -73.5 c 128,-1,70
 492 -100 492 -100 472 -105.5 c 128,-1,71
 452 -111 452 -111 429 -93 c 0,72,73
 412 -76 412 -76 419.5 -58.5 c 128,-1,74
 427 -41 427 -41 448 -49 c 0,75,76
 456 -52 456 -52 461.5 -50 c 128,-1,77
 467 -48 467 -48 467 -42 c 0,78,79
 467 -23 467 -23 440 -31 c 0,80,81
 411 -39 411 -39 403 -60 c 0,82,83
 402 -62 402 -62 402 -65 c 0,84,85
 397 -98 397 -98 422.5 -113.5 c 128,-1,86
 448 -129 448 -129 478.5 -118 c 128,-1,87
 509 -107 509 -107 517 -75 c 0,88,89
 525 -42 525 -42 512 -18.5 c 128,-1,90
 499 5 499 5 461 23 c 0,91,92
 432 37 432 37 400.5 30 c 128,-1,93
 369 23 369 23 349.5 1 c 128,-1,94
 330 -21 330 -21 322 -51 c 128,-1,95
 314 -81 314 -81 331 -111 c 0,96,97
 347 -142 347 -142 389 -158 c 0,98,99
 425 -172 425 -172 427 -152 c 0,58,59
257 -62 m 0,100,101
 291 15 291 15 285 21 c 0,102,103
 283 23 283 23 276.5 15 c 128,-1,104
 270 7 270 7 262 -7.5 c 128,-1,105
 254 -22 254 -22 245 -39.5 c 128,-1,106
 236 -57 236 -57 228 -75.5 c 128,-1,107
 220 -94 220 -94 216 -108 c 0,108,109
 206 -142 206 -142 213 -139 c 0,110,111
 225 -135 225 -135 257 -62 c 0,100,101
228 -26 m 0,112,113
 263 35 263 35 254 39 c 0,114,115
 245 39 245 39 206.5 -26 c 128,-1,116
 168 -91 168 -91 168 -106 c 0,117,118
 168 -132 168 -132 228 -26 c 0,112,113
187 14 m 0,119,120
 207 49 207 49 196 52 c 0,121,122
 185 52 185 52 149 -5 c 128,-1,123
 113 -62 113 -62 113 -79 c 0,124,125
 114 -93 114 -93 152 -40 c 0,126,127
 171 -15 171 -15 187 14 c 0,119,120
617 -56.5 m 128,-1,129
 617 -51 617 -51 613 -47 c 128,-1,130
 609 -43 609 -43 603.5 -43 c 128,-1,131
 598 -43 598 -43 594 -47 c 128,-1,132
 590 -51 590 -51 590 -56.5 c 128,-1,133
 590 -62 590 -62 594 -66.5 c 128,-1,134
 598 -71 598 -71 603.5 -71 c 128,-1,135
 609 -71 609 -71 613 -66.5 c 128,-1,128
 617 -62 617 -62 617 -56.5 c 128,-1,129
678 9 m 0,136,137
 665 21 665 21 598.5 37 c 128,-1,138
 532 53 532 53 525 46 c 0,139,140
 519 40 519 40 538 33 c 0,141,142
 554 27 554 27 604 13 c 0,143,144
 690 -10 690 -10 682 5 c 0,145,146
 681 7 681 7 678 9 c 0,136,137
699 76 m 128,-1,148
 699 80 699 80 673 83 c 128,-1,149
 647 86 647 86 610.5 86 c 128,-1,150
 574 86 574 86 548 83 c 128,-1,151
 522 80 522 80 522 76 c 128,-1,152
 522 72 522 72 548 69 c 128,-1,153
 574 66 574 66 610.5 66 c 128,-1,154
 647 66 647 66 673 69 c 128,-1,147
 699 72 699 72 699 76 c 128,-1,148
499 154 m 0,155,156
 463 170 463 170 450 198 c 128,-1,157
 437 226 437 226 454 256 c 0,158,159
 468 284 468 284 501.5 283.5 c 128,-1,160
 535 283 535 283 550 256 c 0,161,162
 561 234 561 234 551 211.5 c 128,-1,163
 541 189 541 189 520 189 c 0,164,165
 512 189 512 189 509.5 198.5 c 128,-1,166
 507 208 507 208 511.5 219.5 c 128,-1,167
 516 231 516 231 525 235 c 0,168,169
 536 240 536 240 526 240 c 0,170,171
 522 240 522 240 515 239 c 0,172,173
 497 237 497 237 490 223 c 128,-1,174
 483 209 483 209 490.5 194.5 c 128,-1,175
 498 180 498 180 516 178 c 0,176,177
 548 173 548 173 564 195.5 c 128,-1,178
 580 218 580 218 572 249 c 128,-1,179
 564 280 564 280 534 296 c 0,180,181
 510 310 510 310 498 309.5 c 128,-1,182
 486 309 486 309 462 293 c 0,183,184
 428 271 428 271 425 232 c 128,-1,185
 422 193 422 193 448 163.5 c 128,-1,186
 474 134 474 134 515 135 c 0,187,188
 537 135 537 135 519 145 c 0,189,190
 512 148 512 148 499 154 c 0,155,156
418 275 m 0,191,192
 434 296 434 296 443 313.5 c 128,-1,193
 452 331 452 331 449 334 c 0,194,195
 445 338 445 338 422.5 311.5 c 128,-1,196
 400 285 400 285 379 253 c 128,-1,197
 358 221 358 221 358 211 c 0,198,199
 358 199 358 199 367 207 c 0,200,201
 376 216 376 216 418 275 c 0,191,192
270 229 m 0,202,203
 273 235 273 235 271.5 239 c 128,-1,204
 270 243 270 243 264 243 c 128,-1,205
 258 243 258 243 253.5 239 c 128,-1,206
 249 235 249 235 249 229 c 0,207,208
 249 216 249 216 255 216 c 128,-1,209
 261 216 261 216 270 229 c 0,202,203
373 312 m 0,210,211
 396 361 396 361 386 366 c 1,212,213
 377 366 377 366 347.5 315.5 c 128,-1,214
 318 265 318 265 318 250 c 0,215,216
 318 231 318 231 341 262 c 0,217,218
 357 282 357 282 373 312 c 0,210,211
277 299 m 0,219,220
 292 310 292 310 281 309 c 0,221,222
 275 309 275 309 259 305 c 0,223,224
 186 289 186 289 154 365 c 0,225,226
 142 394 142 394 143.5 420.5 c 128,-1,227
 145 447 145 447 157.5 462.5 c 128,-1,228
 170 478 170 478 190 483.5 c 128,-1,229
 210 489 210 489 235 475 c 0,230,231
 269 457 269 457 274 409 c 0,232,233
 280 365 280 365 255 356 c 0,234,235
 248 353 248 353 239 355 c 0,236,237
 224 358 224 358 218 369 c 128,-1,238
 212 380 212 380 218 389.5 c 128,-1,239
 224 399 224 399 239 398 c 0,240,241
 249 397 249 397 256 400.5 c 128,-1,242
 263 404 263 404 263 409 c 0,243,244
 263 428 263 428 235 419 c 0,245,246
 205 409 205 409 198 388 c 0,247,248
 198 386 198 386 197 384 c 0,249,250
 193 350 193 350 225 343 c 0,251,252
 258 335 258 335 283 360 c 0,253,254
 295 372 295 372 299 388 c 0,255,256
 311 437 311 437 269 473.5 c 128,-1,257
 227 510 227 510 173 496 c 0,258,259
 147 490 147 490 133.5 465.5 c 128,-1,260
 120 441 120 441 122 411 c 128,-1,261
 124 381 124 381 135 352 c 128,-1,262
 146 323 146 323 169.5 303.5 c 128,-1,263
 193 284 193 284 221 284 c 0,264,265
 256 284 256 284 277 299 c 0,219,220
365 393 m 0,266,267
 369 399 369 399 367 403 c 128,-1,268
 365 407 365 407 359 407 c 128,-1,269
 353 407 353 407 349 403 c 128,-1,270
 345 399 345 399 345 393 c 0,271,272
 345 379 345 379 351 379 c 128,-1,273
 357 379 357 379 365 393 c 0,266,267
99 494.5 m 128,-1,275
 99 501 99 501 86 509 c 0,276,277
 80 512 80 512 76 510.5 c 128,-1,278
 72 509 72 509 72 503 c 128,-1,279
 72 497 72 497 76 492.5 c 128,-1,280
 80 488 80 488 86 488 c 0,281,274
 99 488 99 488 99 494.5 c 128,-1,275
277 528 m 0,282,283
 277 537 277 537 207 568 c 128,-1,284
 137 599 137 599 130 592 c 0,285,286
 128 590 128 590 160.5 572 c 128,-1,287
 193 554 193 554 229 535.5 c 128,-1,288
 265 517 265 517 273 516 c 0,289,290
 277 516 277 516 277 528 c 0,282,283
304 554 m 0,291,292
 304 563 304 563 245 607.5 c 128,-1,293
 186 652 186 652 174 652 c 0,294,295
 170 652 170 652 199.5 625 c 128,-1,296
 229 598 229 598 262.5 571 c 128,-1,297
 296 544 296 544 300 544 c 0,298,299
 304 543 304 543 304 554 c 0,291,292
596 594 m 0,300,301
 622 609 622 609 640 623.5 c 128,-1,302
 658 638 658 638 658 643 c 0,303,304
 658 649 658 649 655 649 c 0,305,306
 647 647 647 647 564 595 c 0,307,308
 516 565 516 565 518 559 c 0,309,310
 521 549 521 549 591 591 c 0,311,312
 594 592 594 592 596 594 c 0,300,301
341 600 m 0,313,314
 318 608 318 608 311 619.5 c 128,-1,315
 304 631 304 631 304 660 c 0,316,317
 304 697 304 697 331 722.5 c 128,-1,318
 358 748 358 748 392.5 747.5 c 128,-1,319
 427 747 427 747 445 717 c 0,320,321
 461 693 461 693 432.5 663.5 c 128,-1,322
 404 634 404 634 377 644 c 0,323,324
 359 651 359 651 359 655.5 c 128,-1,325
 359 660 359 660 378 674 c 0,326,327
 401 690 401 690 393 692 c 0,328,329
 390 693 390 693 382 693 c 0,330,331
 361 693 361 693 353 680 c 128,-1,332
 345 667 345 667 353 647 c 0,333,334
 359 632 359 632 372.5 627 c 128,-1,335
 386 622 386 622 402 626.5 c 128,-1,336
 418 631 418 631 433 641 c 128,-1,337
 448 651 448 651 457.5 666.5 c 128,-1,338
 467 682 467 682 467 699 c 0,339,340
 467 761 467 761 393 761 c 0,341,342
 351 761 351 761 321.5 739 c 128,-1,343
 292 717 292 717 283 678 c 0,344,345
 275 641 275 641 296 612.5 c 128,-1,346
 317 584 317 584 350 585 c 0,347,348
 367 586 367 586 367 588 c 0,349,350
 366 591 366 591 341 600 c 0,313,314
606 676 m 0,351,352
 594 680 594 680 538 643.5 c 128,-1,353
 482 607 482 607 481 594 c 0,354,355
 481 584 481 584 552 628 c 0,356,357
 609 663 609 663 608 674 c 0,358,359
 608 676 608 676 606 676 c 0,351,352
249 707 m 0,360,361
 249 712 249 712 245 716 c 128,-1,362
 241 720 241 720 235 720 c 128,-1,363
 229 720 229 720 227 716 c 128,-1,364
 225 712 225 712 229 707 c 0,365,366
 237 693 237 693 243 693 c 128,-1,367
 249 693 249 693 249 707 c 0,360,361
549 707 m 0,368,369
 549 720 549 720 543 720 c 128,-1,370
 537 720 537 720 529 707 c 0,371,372
 525 701 525 701 527 697 c 128,-1,373
 529 693 529 693 535 693 c 128,-1,374
 541 693 541 693 545 697 c 128,-1,375
 549 701 549 701 549 707 c 0,368,369
EndSplineSet
Validated: 33
EndChar

StartChar: T
Encoding: 84 84 22
Width: 868
GlyphClass: 1
Flags: W
LayerCount: 2
Fore
SplineSet
305.5 -182.5 m 128,-1,1
 299 -165 299 -165 296 183 c 2,2,-1
 292 530 l 1,3,-1
 179 535 l 2,4,5
 65 539 65 539 60 544 c 0,6,7
 54 551 54 551 53 666 c 128,-1,8
 52 781 52 781 59 785 c 0,9,10
 71 793 71 793 433 798 c 128,-1,11
 795 803 795 803 800 796 c 0,12,13
 806 785 806 785 811 665 c 2,14,-1
 816 544 l 1,15,-1
 689 537 l 1,16,-1
 562 530 l 1,17,-1
 567 165 l 1,18,-1
 571 -200 l 1,19,-1
 442 -200 l 2,20,0
 312 -200 312 -200 305.5 -182.5 c 128,-1,1
540 -144 m 0,21,22
 540 -129 540 -129 501.5 -51 c 128,-1,23
 463 27 463 27 455 27 c 0,24,25
 449 27 449 27 436.5 7.5 c 128,-1,26
 424 -12 424 -12 378 -90 c 2,27,-1
 339 -157 l 1,28,-1
 439 -157 l 2,29,30
 482 -157 482 -157 511 -153 c 128,-1,31
 540 -149 540 -149 540 -144 c 0,21,22
370 -136 m 0,32,33
 370 -131 370 -131 388.5 -101 c 128,-1,34
 407 -71 407 -71 426.5 -44 c 128,-1,35
 446 -17 446 -17 448 -19 c 0,36,37
 450 -23 450 -23 444 -83 c 0,38,39
 440 -122 440 -122 433 -132.5 c 128,-1,40
 426 -143 426 -143 404 -143 c 0,41,42
 370 -143 370 -143 370 -136 c 0,32,33
461 -97 m 0,43,44
 469 -55 469 -55 469 -39 c 0,45,46
 469 -31 469 -31 483 -53 c 0,47,48
 490 -64 490 -64 498 -80 c 0,49,50
 526 -135 526 -135 526 -137.5 c 128,-1,51
 526 -140 526 -140 489 -140 c 0,52,53
 464 -140 464 -140 459.5 -133 c 128,-1,54
 455 -126 455 -126 461 -97 c 0,43,44
540 69 m 0,55,56
 540 82 540 82 488.5 82 c 128,-1,57
 437 82 437 82 398 69 c 0,58,59
 372 61 372 61 406 58 c 0,60,61
 421 57 421 57 451 57 c 0,62,63
 489 56 489 56 514.5 59.5 c 128,-1,64
 540 63 540 63 540 69 c 0,55,56
377 131 m 0,65,66
 364 151 364 151 361.5 177 c 128,-1,67
 359 203 359 203 364 256 c 0,68,69
 370 314 370 314 367 334 c 128,-1,70
 364 354 364 354 348 367 c 0,71,72
 329 383 329 383 329 379 c 0,73,74
 329 376 329 376 340 356 c 0,75,76
 357 324 357 324 348 241 c 0,77,78
 341 180 341 180 351.5 139 c 128,-1,79
 362 98 362 98 385 98 c 0,80,81
 397 98 397 98 380 127 c 0,82,83
 378 129 378 129 377 131 c 0,65,66
490 145 m 0,84,85
 477 165 477 165 475.5 184.5 c 128,-1,86
 474 204 474 204 482 239 c 0,87,88
 492 286 492 286 482 333.5 c 128,-1,89
 472 381 472 381 452 381 c 0,90,91
 440 379 440 379 455 360 c 0,92,93
 473 338 473 338 463 254 c 0,94,95
 456 191 456 191 466 151.5 c 128,-1,96
 476 112 476 112 498 112 c 0,97,98
 510 112 510 112 493 141 c 0,99,100
 492 143 492 143 490 145 c 0,84,85
427 153 m 0,101,102
 421 164 421 164 419.5 191 c 128,-1,103
 418 218 418 218 421 244 c 0,104,105
 429 298 429 298 421.5 339.5 c 128,-1,106
 414 381 414 381 398 381 c 0,107,108
 383 381 383 381 399 351.5 c 128,-1,109
 415 322 415 322 405 253 c 0,110,111
 398 199 398 199 404.5 162.5 c 128,-1,112
 411 126 411 126 428 126 c 0,113,114
 442 126 442 126 427 153 c 0,101,102
483 438 m 0,115,116
 483 452 483 452 423 443 c 0,117,118
 330 429 330 429 373 425 c 0,119,120
 387 424 387 424 417 424 c 0,121,122
 445 424 445 424 464 428 c 128,-1,123
 483 432 483 432 483 438 c 0,115,116
490 478 m 0,124,125
 484 483 484 483 459.5 484 c 128,-1,126
 435 485 435 485 405 480 c 2,127,-1
 335 470 l 1,128,-1
 419 468 l 2,129,130
 495 467 495 467 490 478 c 0,124,125
465 519 m 0,131,132
 412 525 412 525 366 519 c 0,133,134
 343 516 343 516 371 514 c 0,135,136
 388 513 388 513 420 513 c 0,137,138
 484 513 484 513 478 517 c 0,139,140
 477 518 477 518 465 519 c 0,131,132
129 607.5 m 128,-1,142
 129 625 129 625 125 637.5 c 128,-1,143
 121 650 121 650 115 650 c 128,-1,144
 109 650 109 650 105 637.5 c 128,-1,145
 101 625 101 625 101 607.5 c 128,-1,146
 101 590 101 590 105 577.5 c 128,-1,147
 109 565 109 565 115 565 c 128,-1,148
 121 565 121 565 125 577.5 c 128,-1,141
 129 590 129 590 129 607.5 c 128,-1,142
332 665 m 2,149,-1
 396 749 l 1,150,-1
 438 682 l 2,151,152
 475 621 475 621 501.5 593 c 128,-1,153
 528 565 528 565 541 573 c 0,154,155
 553 580 553 580 591 651 c 0,156,157
 632 726 632 726 648 722 c 0,158,159
 653 721 653 721 653 709 c 0,160,161
 653 700 653 700 679 664 c 128,-1,162
 705 628 705 628 732 597.5 c 128,-1,163
 759 567 759 567 763 571 c 0,164,165
 766 574 766 574 755.5 592 c 128,-1,166
 745 610 745 610 727 633 c 0,167,168
 684 688 684 688 666.5 726 c 128,-1,169
 649 764 649 764 639 764 c 128,-1,170
 629 764 629 764 583 676 c 2,171,-1
 536 589 l 1,172,-1
 496 637 l 2,173,174
 456 686 456 686 431 732 c 0,175,176
 421 751 421 751 410.5 764.5 c 128,-1,177
 400 778 400 778 396 778 c 128,-1,178
 392 778 392 778 369.5 751 c 128,-1,179
 347 724 347 724 320 686 c 0,180,181
 254 594 254 594 250.5 594 c 128,-1,182
 247 594 247 594 179 680 c 0,183,184
 161 703 161 703 144.5 721.5 c 128,-1,185
 128 740 128 740 117.5 750 c 128,-1,186
 107 760 107 760 105 758 c 0,187,188
 102 756 102 756 114 736 c 128,-1,189
 126 716 126 716 145 690 c 0,190,191
 202 616 202 616 225.5 592 c 128,-1,192
 249 568 249 568 258 573 c 0,193,194
 269 580 269 580 332 665 c 2,149,-1
413 641 m 0,195,196
 402 652 402 652 400 629 c 0,197,198
 399 620 399 620 399 607 c 0,199,200
 400 572 400 572 402 570 c 0,201,202
 404 570 404 570 407 576 c 0,203,204
 409 581 409 581 414 593 c 0,205,206
 428 627 428 627 413 641 c 0,195,196
655 626 m 0,207,208
 642 639 642 639 640 615 c 0,209,210
 640 609 640 609 640 600 c 0,211,212
 640 570 640 570 643 569 c 0,213,214
 646 569 646 569 653 581 c 0,215,216
 654 582 654 582 655 584 c 0,217,218
 671 611 671 611 655 626 c 0,207,208
256 732 m 0,219,220
 255 760 255 760 252 760 c 0,221,222
 250 760 250 760 242 743 c 0,223,224
 230 713 230 713 230 703 c 128,-1,225
 230 693 230 693 242 693 c 0,226,227
 248 693 248 693 252 704.5 c 128,-1,228
 256 716 256 716 256 732 c 0,219,220
781 736 m 0,229,230
 781 748 781 748 777 756 c 128,-1,231
 773 764 773 764 767 764 c 128,-1,232
 761 764 761 764 757 753 c 128,-1,233
 753 742 753 742 753 728 c 0,234,235
 753 697 753 697 764 699 c 0,236,237
 766 699 766 699 767 700 c 0,238,239
 781 709 781 709 781 736 c 0,229,230
536 760 m 0,240,241
 531 777 531 777 529 756 c 0,242,243
 529 750 529 750 529 743 c 0,244,245
 528 712 528 712 533 714 c 0,246,247
 534 715 534 715 535 717 c 0,248,249
 542 735 542 735 536 760 c 0,240,241
EndSplineSet
Validated: 33
EndChar

